999
"DXF R12 Output" (www.mydxf.blogspot.com)
 0 
SECTION
 2 
HEADER
 9 
$ACADVER
 1 
AC1009
 9 
$EXTMIN
 10 
 0 
 20 
 0 
 9 
$EXTMAX
 10 
 8.5 
 20 
 11 
 0 
ENDSEC
 0 
SECTION
 2 
ENTITIES
0
LINE
8
Layer 1
10
43307.000000
20
53937.000000
11
43307.000000
21
51181.000000
0
LINE
8
Layer 1
10
35433.000000
20
53937.000000
11
43307.000000
21
53937.000000
0
LINE
8
Layer 1
10
35433.000000
20
51181.000000
11
35433.000000
21
53937.000000
0
LINE
8
Layer 1
10
54330.000000
20
43307.000000
11
51181.000000
21
43307.000000
0
LINE
8
Layer 1
10
54330.000000
20
35433.000000
11
54330.000000
21
43307.000000
0
LINE
8
Layer 1
10
51181.000000
20
35433.000000
11
54330.000000
21
35433.000000
0
LINE
8
Layer 1
10
24409.000000
20
43307.000000
11
27559.000000
21
43307.000000
0
LINE
8
Layer 1
10
24409.000000
20
35433.000000
11
24409.000000
21
43307.000000
0
LINE
8
Layer 1
10
27559.000000
20
35433.000000
11
24409.000000
21
35433.000000
0
LINE
8
Layer 1
10
35433.100000
20
27559.100000
11
35389.571097
21
27573.698650
0
LINE
8
Layer 1
10
35389.571097
20
27573.698650
11
35346.115786
21
27588.450612
0
LINE
8
Layer 1
10
35346.115786
20
27588.450612
11
35302.734381
21
27603.355572
0
LINE
8
Layer 1
10
35302.734381
20
27603.355572
11
35259.427196
21
27618.413216
0
LINE
8
Layer 1
10
35259.427196
20
27618.413216
11
35216.194546
21
27633.623229
0
LINE
8
Layer 1
10
35216.194546
20
27633.623229
11
35173.036743
21
27648.985299
0
LINE
8
Layer 1
10
35173.036743
20
27648.985299
11
35129.954101
21
27664.499112
0
LINE
8
Layer 1
10
35129.954101
20
27664.499112
11
35086.946935
21
27680.164353
0
LINE
8
Layer 1
10
35086.946935
20
27680.164353
11
35044.015558
21
27695.980708
0
LINE
8
Layer 1
10
35044.015558
20
27695.980708
11
35001.160285
21
27711.947864
0
LINE
8
Layer 1
10
35001.160285
20
27711.947864
11
34958.381428
21
27728.065507
0
LINE
8
Layer 1
10
34958.381428
20
27728.065507
11
34915.679302
21
27744.333324
0
LINE
8
Layer 1
10
34915.679302
20
27744.333324
11
34873.054221
21
27760.750999
0
LINE
8
Layer 1
10
34873.054221
20
27760.750999
11
34830.506499
21
27777.318220
0
LINE
8
Layer 1
10
34830.506499
20
27777.318220
11
34788.036449
21
27794.034672
0
LINE
8
Layer 1
10
34788.036449
20
27794.034672
11
34745.644385
21
27810.900043
0
LINE
8
Layer 1
10
34745.644385
20
27810.900043
11
34703.330621
21
27827.914016
0
LINE
8
Layer 1
10
34703.330621
20
27827.914016
11
34661.095472
21
27845.076280
0
LINE
8
Layer 1
10
34661.095472
20
27845.076280
11
34618.939250
21
27862.386520
0
LINE
8
Layer 1
10
34618.939250
20
27862.386520
11
34576.862270
21
27879.844422
0
LINE
8
Layer 1
10
34576.862270
20
27879.844422
11
34534.864845
21
27897.449673
0
LINE
8
Layer 1
10
34534.864845
20
27897.449673
11
34492.947290
21
27915.201958
0
LINE
8
Layer 1
10
34492.947290
20
27915.201958
11
34451.109919
21
27933.100963
0
LINE
8
Layer 1
10
34451.109919
20
27933.100963
11
34409.353044
21
27951.146376
0
LINE
8
Layer 1
10
34409.353044
20
27951.146376
11
34367.676980
21
27969.337881
0
LINE
8
Layer 1
10
34367.676980
20
27969.337881
11
34326.082042
21
27987.675166
0
LINE
8
Layer 1
10
34326.082042
20
27987.675166
11
34284.568541
21
28006.157916
0
LINE
8
Layer 1
10
34284.568541
20
28006.157916
11
34243.136794
21
28024.785817
0
LINE
8
Layer 1
10
34243.136794
20
28024.785817
11
34201.787113
21
28043.558556
0
LINE
8
Layer 1
10
34201.787113
20
28043.558556
11
34160.519812
21
28062.475818
0
LINE
8
Layer 1
10
34160.519812
20
28062.475818
11
34119.335205
21
28081.537290
0
LINE
8
Layer 1
10
34119.335205
20
28081.537290
11
34078.233606
21
28100.742658
0
LINE
8
Layer 1
10
34078.233606
20
28100.742658
11
34037.215329
21
28120.091609
0
LINE
8
Layer 1
10
34037.215329
20
28120.091609
11
33996.280688
21
28139.583827
0
LINE
8
Layer 1
10
33996.280688
20
28139.583827
11
33955.429996
21
28159.219000
0
LINE
8
Layer 1
10
33955.429996
20
28159.219000
11
33914.663568
21
28178.996814
0
LINE
8
Layer 1
10
33914.663568
20
28178.996814
11
33873.981717
21
28198.916954
0
LINE
8
Layer 1
10
33873.981717
20
28198.916954
11
33833.384757
21
28218.979107
0
LINE
8
Layer 1
10
33833.384757
20
28218.979107
11
33792.873002
21
28239.182959
0
LINE
8
Layer 1
10
33792.873002
20
28239.182959
11
33752.446766
21
28259.528196
0
LINE
8
Layer 1
10
33752.446766
20
28259.528196
11
33712.106362
21
28280.014504
0
LINE
8
Layer 1
10
33712.106362
20
28280.014504
11
33671.852105
21
28300.641570
0
LINE
8
Layer 1
10
33671.852105
20
28300.641570
11
33631.684309
21
28321.409080
0
LINE
8
Layer 1
10
33631.684309
20
28321.409080
11
33591.603286
21
28342.316719
0
LINE
8
Layer 1
10
33591.603286
20
28342.316719
11
33551.609352
21
28363.364174
0
LINE
8
Layer 1
10
33551.609352
20
28363.364174
11
33511.702820
21
28384.551131
0
LINE
8
Layer 1
10
33511.702820
20
28384.551131
11
33471.884003
21
28405.877276
0
LINE
8
Layer 1
10
33471.884003
20
28405.877276
11
33432.153216
21
28427.342295
0
LINE
8
Layer 1
10
33432.153216
20
28427.342295
11
33392.510773
21
28448.945875
0
LINE
8
Layer 1
10
33392.510773
20
28448.945875
11
33352.956987
21
28470.687701
0
LINE
8
Layer 1
10
33352.956987
20
28470.687701
11
33313.492173
21
28492.567460
0
LINE
8
Layer 1
10
33313.492173
20
28492.567460
11
33274.116643
21
28514.584838
0
LINE
8
Layer 1
10
33274.116643
20
28514.584838
11
33234.830712
21
28536.739521
0
LINE
8
Layer 1
10
33234.830712
20
28536.739521
11
33195.634695
21
28559.031195
0
LINE
8
Layer 1
10
33195.634695
20
28559.031195
11
33156.528903
21
28581.459546
0
LINE
8
Layer 1
10
33156.528903
20
28581.459546
11
33117.513653
21
28604.024261
0
LINE
8
Layer 1
10
33117.513653
20
28604.024261
11
33078.589256
21
28626.725025
0
LINE
8
Layer 1
10
33078.589256
20
28626.725025
11
33039.756028
21
28649.561525
0
LINE
8
Layer 1
10
33039.756028
20
28649.561525
11
33001.014282
21
28672.533447
0
LINE
8
Layer 1
10
33001.014282
20
28672.533447
11
32962.364332
21
28695.640477
0
LINE
8
Layer 1
10
32962.364332
20
28695.640477
11
32923.806492
21
28718.882301
0
LINE
8
Layer 1
10
32923.806492
20
28718.882301
11
32885.341075
21
28742.258605
0
LINE
8
Layer 1
10
32885.341075
20
28742.258605
11
32846.968396
21
28765.769076
0
LINE
8
Layer 1
10
32846.968396
20
28765.769076
11
32808.688768
21
28789.413399
0
LINE
8
Layer 1
10
32808.688768
20
28789.413399
11
32770.502506
21
28813.191262
0
LINE
8
Layer 1
10
32770.502506
20
28813.191262
11
32732.409922
21
28837.102349
0
LINE
8
Layer 1
10
32732.409922
20
28837.102349
11
32694.411332
21
28861.146347
0
LINE
8
Layer 1
10
32694.411332
20
28861.146347
11
32656.507048
21
28885.322942
0
LINE
8
Layer 1
10
32656.507048
20
28885.322942
11
32618.697385
21
28909.631820
0
LINE
8
Layer 1
10
32618.697385
20
28909.631820
11
32580.982656
21
28934.072668
0
LINE
8
Layer 1
10
32580.982656
20
28934.072668
11
32543.363176
21
28958.645172
0
LINE
8
Layer 1
10
32543.363176
20
28958.645172
11
32505.839258
21
28983.349017
0
LINE
8
Layer 1
10
32505.839258
20
28983.349017
11
32468.411216
21
29008.183890
0
LINE
8
Layer 1
10
32468.411216
20
29008.183890
11
32431.079363
21
29033.149477
0
LINE
8
Layer 1
10
32431.079363
20
29033.149477
11
32393.844015
21
29058.245465
0
LINE
8
Layer 1
10
32393.844015
20
29058.245465
11
32356.705484
21
29083.471539
0
LINE
8
Layer 1
10
32356.705484
20
29083.471539
11
32319.664085
21
29108.827385
0
LINE
8
Layer 1
10
32319.664085
20
29108.827385
11
32282.720131
21
29134.312689
0
LINE
8
Layer 1
10
32282.720131
20
29134.312689
11
32245.873936
21
29159.927139
0
LINE
8
Layer 1
10
32245.873936
20
29159.927139
11
32209.125815
21
29185.670419
0
LINE
8
Layer 1
10
32209.125815
20
29185.670419
11
32172.476080
21
29211.542217
0
LINE
8
Layer 1
10
32172.476080
20
29211.542217
11
32135.925046
21
29237.542218
0
LINE
8
Layer 1
10
32135.925046
20
29237.542218
11
32099.473026
21
29263.670108
0
LINE
8
Layer 1
10
32099.473026
20
29263.670108
11
32063.120335
21
29289.925573
0
LINE
8
Layer 1
10
32063.120335
20
29289.925573
11
32026.867287
21
29316.308300
0
LINE
8
Layer 1
10
32026.867287
20
29316.308300
11
31990.714194
21
29342.817975
0
LINE
8
Layer 1
10
31990.714194
20
29342.817975
11
31954.661372
21
29369.454284
0
LINE
8
Layer 1
10
31954.661372
20
29369.454284
11
31918.709133
21
29396.216912
0
LINE
8
Layer 1
10
31918.709133
20
29396.216912
11
31882.857792
21
29423.105547
0
LINE
8
Layer 1
10
31882.857792
20
29423.105547
11
31847.107663
21
29450.119875
0
LINE
8
Layer 1
10
31847.107663
20
29450.119875
11
31811.459060
21
29477.259581
0
LINE
8
Layer 1
10
31811.459060
20
29477.259581
11
31775.912295
21
29504.524351
0
LINE
8
Layer 1
10
31775.912295
20
29504.524351
11
31740.467684
21
29531.913872
0
LINE
8
Layer 1
10
31740.467684
20
29531.913872
11
31705.125540
21
29559.427830
0
LINE
8
Layer 1
10
31705.125540
20
29559.427830
11
31669.886176
21
29587.065912
0
LINE
8
Layer 1
10
31669.886176
20
29587.065912
11
31634.749908
21
29614.827802
0
LINE
8
Layer 1
10
31634.749908
20
29614.827802
11
31599.717048
21
29642.713188
0
LINE
8
Layer 1
10
31599.717048
20
29642.713188
11
31564.787910
21
29670.721755
0
LINE
8
Layer 1
10
31564.787910
20
29670.721755
11
31529.962809
21
29698.853190
0
LINE
8
Layer 1
10
31529.962809
20
29698.853190
11
31495.242058
21
29727.107179
0
LINE
8
Layer 1
10
31495.242058
20
29727.107179
11
31460.625971
21
29755.483407
0
LINE
8
Layer 1
10
31460.625971
20
29755.483407
11
31426.114861
21
29783.981562
0
LINE
8
Layer 1
10
31426.114861
20
29783.981562
11
31391.709044
21
29812.601329
0
LINE
8
Layer 1
10
31391.709044
20
29812.601329
11
31357.408832
21
29841.342394
0
LINE
8
Layer 1
10
31357.408832
20
29841.342394
11
31323.214540
21
29870.204444
0
LINE
8
Layer 1
10
31323.214540
20
29870.204444
11
31289.126480
21
29899.187165
0
LINE
8
Layer 1
10
31289.126480
20
29899.187165
11
31255.144968
21
29928.290242
0
LINE
8
Layer 1
10
31255.144968
20
29928.290242
11
31221.270317
21
29957.513362
0
LINE
8
Layer 1
10
31221.270317
20
29957.513362
11
31187.502841
21
29986.856211
0
LINE
8
Layer 1
10
31187.502841
20
29986.856211
11
31153.842854
21
30016.318476
0
LINE
8
Layer 1
10
31153.842854
20
30016.318476
11
31120.290669
21
30045.899842
0
LINE
8
Layer 1
10
31120.290669
20
30045.899842
11
31086.846600
21
30075.599995
0
LINE
8
Layer 1
10
31086.846600
20
30075.599995
11
31053.510962
21
30105.418622
0
LINE
8
Layer 1
10
31053.510962
20
30105.418622
11
31020.284068
21
30135.355409
0
LINE
8
Layer 1
10
31020.284068
20
30135.355409
11
30987.166232
21
30165.410042
0
LINE
8
Layer 1
10
30987.166232
20
30165.410042
11
30954.157768
21
30195.582207
0
LINE
8
Layer 1
10
30954.157768
20
30195.582207
11
30921.258989
21
30225.871590
0
LINE
8
Layer 1
10
30921.258989
20
30225.871590
11
30888.470211
21
30256.277877
0
LINE
8
Layer 1
10
30888.470211
20
30256.277877
11
30855.791745
21
30286.800755
0
LINE
8
Layer 1
10
30855.791745
20
30286.800755
11
30823.223907
21
30317.439910
0
LINE
8
Layer 1
10
30823.223907
20
30317.439910
11
30790.767010
21
30348.195027
0
LINE
8
Layer 1
10
30790.767010
20
30348.195027
11
30758.421367
21
30379.065794
0
LINE
8
Layer 1
10
30758.421367
20
30379.065794
11
30726.187294
21
30410.051896
0
LINE
8
Layer 1
10
30726.187294
20
30410.051896
11
30694.065104
21
30441.153018
0
LINE
8
Layer 1
10
30694.065104
20
30441.153018
11
30662.055110
21
30472.368849
0
LINE
8
Layer 1
10
30662.055110
20
30472.368849
11
30630.157626
21
30503.699072
0
LINE
8
Layer 1
10
30630.157626
20
30503.699072
11
30598.372967
21
30535.143376
0
LINE
8
Layer 1
10
30598.372967
20
30535.143376
11
30566.701445
21
30566.701445
0
LINE
8
Layer 1
10
30566.701445
20
30566.701445
11
30535.143376
21
30598.372967
0
LINE
8
Layer 1
10
30535.143376
20
30598.372967
11
30503.699072
21
30630.157626
0
LINE
8
Layer 1
10
30503.699072
20
30630.157626
11
30472.368849
21
30662.055110
0
LINE
8
Layer 1
10
30472.368849
20
30662.055110
11
30441.153018
21
30694.065104
0
LINE
8
Layer 1
10
30441.153018
20
30694.065104
11
30410.051896
21
30726.187294
0
LINE
8
Layer 1
10
30410.051896
20
30726.187294
11
30379.065794
21
30758.421367
0
LINE
8
Layer 1
10
30379.065794
20
30758.421367
11
30348.195027
21
30790.767010
0
LINE
8
Layer 1
10
30348.195027
20
30790.767010
11
30317.439910
21
30823.223907
0
LINE
8
Layer 1
10
30317.439910
20
30823.223907
11
30286.800755
21
30855.791745
0
LINE
8
Layer 1
10
30286.800755
20
30855.791745
11
30256.277877
21
30888.470211
0
LINE
8
Layer 1
10
30256.277877
20
30888.470211
11
30225.871590
21
30921.258989
0
LINE
8
Layer 1
10
30225.871590
20
30921.258989
11
30195.582207
21
30954.157768
0
LINE
8
Layer 1
10
30195.582207
20
30954.157768
11
30165.410042
21
30987.166232
0
LINE
8
Layer 1
10
30165.410042
20
30987.166232
11
30135.355409
21
31020.284068
0
LINE
8
Layer 1
10
30135.355409
20
31020.284068
11
30105.418622
21
31053.510962
0
LINE
8
Layer 1
10
30105.418622
20
31053.510962
11
30075.599995
21
31086.846600
0
LINE
8
Layer 1
10
30075.599995
20
31086.846600
11
30045.899842
21
31120.290669
0
LINE
8
Layer 1
10
30045.899842
20
31120.290669
11
30016.318476
21
31153.842854
0
LINE
8
Layer 1
10
30016.318476
20
31153.842854
11
29986.856211
21
31187.502841
0
LINE
8
Layer 1
10
29986.856211
20
31187.502841
11
29957.513362
21
31221.270317
0
LINE
8
Layer 1
10
29957.513362
20
31221.270317
11
29928.290242
21
31255.144968
0
LINE
8
Layer 1
10
29928.290242
20
31255.144968
11
29899.187165
21
31289.126480
0
LINE
8
Layer 1
10
29899.187165
20
31289.126480
11
29870.204444
21
31323.214540
0
LINE
8
Layer 1
10
29870.204444
20
31323.214540
11
29841.342394
21
31357.408832
0
LINE
8
Layer 1
10
29841.342394
20
31357.408832
11
29812.601329
21
31391.709044
0
LINE
8
Layer 1
10
29812.601329
20
31391.709044
11
29783.981562
21
31426.114861
0
LINE
8
Layer 1
10
29783.981562
20
31426.114861
11
29755.483407
21
31460.625971
0
LINE
8
Layer 1
10
29755.483407
20
31460.625971
11
29727.107179
21
31495.242058
0
LINE
8
Layer 1
10
29727.107179
20
31495.242058
11
29698.853190
21
31529.962809
0
LINE
8
Layer 1
10
29698.853190
20
31529.962809
11
29670.721755
21
31564.787910
0
LINE
8
Layer 1
10
29670.721755
20
31564.787910
11
29642.713188
21
31599.717048
0
LINE
8
Layer 1
10
29642.713188
20
31599.717048
11
29614.827802
21
31634.749908
0
LINE
8
Layer 1
10
29614.827802
20
31634.749908
11
29587.065912
21
31669.886176
0
LINE
8
Layer 1
10
29587.065912
20
31669.886176
11
29559.427830
21
31705.125540
0
LINE
8
Layer 1
10
29559.427830
20
31705.125540
11
29531.913872
21
31740.467684
0
LINE
8
Layer 1
10
29531.913872
20
31740.467684
11
29504.524351
21
31775.912295
0
LINE
8
Layer 1
10
29504.524351
20
31775.912295
11
29477.259581
21
31811.459060
0
LINE
8
Layer 1
10
29477.259581
20
31811.459060
11
29450.119875
21
31847.107663
0
LINE
8
Layer 1
10
29450.119875
20
31847.107663
11
29423.105547
21
31882.857792
0
LINE
8
Layer 1
10
29423.105547
20
31882.857792
11
29396.216912
21
31918.709133
0
LINE
8
Layer 1
10
29396.216912
20
31918.709133
11
29369.454284
21
31954.661372
0
LINE
8
Layer 1
10
29369.454284
20
31954.661372
11
29342.817975
21
31990.714194
0
LINE
8
Layer 1
10
29342.817975
20
31990.714194
11
29316.308300
21
32026.867287
0
LINE
8
Layer 1
10
29316.308300
20
32026.867287
11
29289.925573
21
32063.120335
0
LINE
8
Layer 1
10
29289.925573
20
32063.120335
11
29263.670108
21
32099.473026
0
LINE
8
Layer 1
10
29263.670108
20
32099.473026
11
29237.542218
21
32135.925046
0
LINE
8
Layer 1
10
29237.542218
20
32135.925046
11
29211.542217
21
32172.476080
0
LINE
8
Layer 1
10
29211.542217
20
32172.476080
11
29185.670419
21
32209.125815
0
LINE
8
Layer 1
10
29185.670419
20
32209.125815
11
29159.927139
21
32245.873936
0
LINE
8
Layer 1
10
29159.927139
20
32245.873936
11
29134.312689
21
32282.720131
0
LINE
8
Layer 1
10
29134.312689
20
32282.720131
11
29108.827385
21
32319.664085
0
LINE
8
Layer 1
10
29108.827385
20
32319.664085
11
29083.471539
21
32356.705484
0
LINE
8
Layer 1
10
29083.471539
20
32356.705484
11
29058.245465
21
32393.844015
0
LINE
8
Layer 1
10
29058.245465
20
32393.844015
11
29033.149477
21
32431.079363
0
LINE
8
Layer 1
10
29033.149477
20
32431.079363
11
29008.183890
21
32468.411216
0
LINE
8
Layer 1
10
29008.183890
20
32468.411216
11
28983.349017
21
32505.839258
0
LINE
8
Layer 1
10
28983.349017
20
32505.839258
11
28958.645172
21
32543.363176
0
LINE
8
Layer 1
10
28958.645172
20
32543.363176
11
28934.072668
21
32580.982656
0
LINE
8
Layer 1
10
28934.072668
20
32580.982656
11
28909.631820
21
32618.697385
0
LINE
8
Layer 1
10
28909.631820
20
32618.697385
11
28885.322942
21
32656.507048
0
LINE
8
Layer 1
10
28885.322942
20
32656.507048
11
28861.146347
21
32694.411332
0
LINE
8
Layer 1
10
28861.146347
20
32694.411332
11
28837.102349
21
32732.409922
0
LINE
8
Layer 1
10
28837.102349
20
32732.409922
11
28813.191262
21
32770.502506
0
LINE
8
Layer 1
10
28813.191262
20
32770.502506
11
28789.413399
21
32808.688768
0
LINE
8
Layer 1
10
28789.413399
20
32808.688768
11
28765.769076
21
32846.968396
0
LINE
8
Layer 1
10
28765.769076
20
32846.968396
11
28742.258605
21
32885.341075
0
LINE
8
Layer 1
10
28742.258605
20
32885.341075
11
28718.882301
21
32923.806492
0
LINE
8
Layer 1
10
28718.882301
20
32923.806492
11
28695.640477
21
32962.364332
0
LINE
8
Layer 1
10
28695.640477
20
32962.364332
11
28672.533447
21
33001.014282
0
LINE
8
Layer 1
10
28672.533447
20
33001.014282
11
28649.561525
21
33039.756028
0
LINE
8
Layer 1
10
28649.561525
20
33039.756028
11
28626.725025
21
33078.589256
0
LINE
8
Layer 1
10
28626.725025
20
33078.589256
11
28604.024261
21
33117.513653
0
LINE
8
Layer 1
10
28604.024261
20
33117.513653
11
28581.459546
21
33156.528903
0
LINE
8
Layer 1
10
28581.459546
20
33156.528903
11
28559.031195
21
33195.634695
0
LINE
8
Layer 1
10
28559.031195
20
33195.634695
11
28536.739521
21
33234.830712
0
LINE
8
Layer 1
10
28536.739521
20
33234.830712
11
28514.584838
21
33274.116643
0
LINE
8
Layer 1
10
28514.584838
20
33274.116643
11
28492.567460
21
33313.492173
0
LINE
8
Layer 1
10
28492.567460
20
33313.492173
11
28470.687701
21
33352.956987
0
LINE
8
Layer 1
10
28470.687701
20
33352.956987
11
28448.945875
21
33392.510773
0
LINE
8
Layer 1
10
28448.945875
20
33392.510773
11
28427.342295
21
33432.153216
0
LINE
8
Layer 1
10
28427.342295
20
33432.153216
11
28405.877276
21
33471.884003
0
LINE
8
Layer 1
10
28405.877276
20
33471.884003
11
28384.551131
21
33511.702820
0
LINE
8
Layer 1
10
28384.551131
20
33511.702820
11
28363.364174
21
33551.609352
0
LINE
8
Layer 1
10
28363.364174
20
33551.609352
11
28342.316719
21
33591.603286
0
LINE
8
Layer 1
10
28342.316719
20
33591.603286
11
28321.409080
21
33631.684309
0
LINE
8
Layer 1
10
28321.409080
20
33631.684309
11
28300.641570
21
33671.852105
0
LINE
8
Layer 1
10
28300.641570
20
33671.852105
11
28280.014504
21
33712.106362
0
LINE
8
Layer 1
10
28280.014504
20
33712.106362
11
28259.528196
21
33752.446766
0
LINE
8
Layer 1
10
28259.528196
20
33752.446766
11
28239.182959
21
33792.873002
0
LINE
8
Layer 1
10
28239.182959
20
33792.873002
11
28218.979107
21
33833.384757
0
LINE
8
Layer 1
10
28218.979107
20
33833.384757
11
28198.916954
21
33873.981717
0
LINE
8
Layer 1
10
28198.916954
20
33873.981717
11
28178.996814
21
33914.663568
0
LINE
8
Layer 1
10
28178.996814
20
33914.663568
11
28159.219000
21
33955.429996
0
LINE
8
Layer 1
10
28159.219000
20
33955.429996
11
28139.583827
21
33996.280688
0
LINE
8
Layer 1
10
28139.583827
20
33996.280688
11
28120.091609
21
34037.215329
0
LINE
8
Layer 1
10
28120.091609
20
34037.215329
11
28100.742658
21
34078.233606
0
LINE
8
Layer 1
10
28100.742658
20
34078.233606
11
28081.537290
21
34119.335205
0
LINE
8
Layer 1
10
28081.537290
20
34119.335205
11
28062.475818
21
34160.519812
0
LINE
8
Layer 1
10
28062.475818
20
34160.519812
11
28043.558556
21
34201.787113
0
LINE
8
Layer 1
10
28043.558556
20
34201.787113
11
28024.785817
21
34243.136794
0
LINE
8
Layer 1
10
28024.785817
20
34243.136794
11
28006.157916
21
34284.568541
0
LINE
8
Layer 1
10
28006.157916
20
34284.568541
11
27987.675166
21
34326.082042
0
LINE
8
Layer 1
10
27987.675166
20
34326.082042
11
27969.337881
21
34367.676980
0
LINE
8
Layer 1
10
27969.337881
20
34367.676980
11
27951.146376
21
34409.353044
0
LINE
8
Layer 1
10
27951.146376
20
34409.353044
11
27933.100963
21
34451.109919
0
LINE
8
Layer 1
10
27933.100963
20
34451.109919
11
27915.201958
21
34492.947290
0
LINE
8
Layer 1
10
27915.201958
20
34492.947290
11
27897.449673
21
34534.864845
0
LINE
8
Layer 1
10
27897.449673
20
34534.864845
11
27879.844422
21
34576.862270
0
LINE
8
Layer 1
10
27879.844422
20
34576.862270
11
27862.386520
21
34618.939250
0
LINE
8
Layer 1
10
27862.386520
20
34618.939250
11
27845.076280
21
34661.095472
0
LINE
8
Layer 1
10
27845.076280
20
34661.095472
11
27827.914016
21
34703.330621
0
LINE
8
Layer 1
10
27827.914016
20
34703.330621
11
27810.900043
21
34745.644385
0
LINE
8
Layer 1
10
27810.900043
20
34745.644385
11
27794.034672
21
34788.036449
0
LINE
8
Layer 1
10
27794.034672
20
34788.036449
11
27777.318220
21
34830.506499
0
LINE
8
Layer 1
10
27777.318220
20
34830.506499
11
27760.750999
21
34873.054221
0
LINE
8
Layer 1
10
27760.750999
20
34873.054221
11
27744.333324
21
34915.679302
0
LINE
8
Layer 1
10
27744.333324
20
34915.679302
11
27728.065507
21
34958.381428
0
LINE
8
Layer 1
10
27728.065507
20
34958.381428
11
27711.947864
21
35001.160285
0
LINE
8
Layer 1
10
27711.947864
20
35001.160285
11
27695.980708
21
35044.015558
0
LINE
8
Layer 1
10
27695.980708
20
35044.015558
11
27680.164353
21
35086.946935
0
LINE
8
Layer 1
10
27680.164353
20
35086.946935
11
27664.499112
21
35129.954101
0
LINE
8
Layer 1
10
27664.499112
20
35129.954101
11
27648.985299
21
35173.036743
0
LINE
8
Layer 1
10
27648.985299
20
35173.036743
11
27633.623229
21
35216.194546
0
LINE
8
Layer 1
10
27633.623229
20
35216.194546
11
27618.413216
21
35259.427196
0
LINE
8
Layer 1
10
27618.413216
20
35259.427196
11
27603.355572
21
35302.734381
0
LINE
8
Layer 1
10
27603.355572
20
35302.734381
11
27588.450612
21
35346.115786
0
LINE
8
Layer 1
10
27588.450612
20
35346.115786
11
27573.698650
21
35389.571097
0
LINE
8
Layer 1
10
27573.698650
20
35389.571097
11
27559.100000
21
35433.100000
0
LINE
8
Layer 1
10
43307.000000
20
24409.000000
11
43307.000000
21
27559.000000
0
LINE
8
Layer 1
10
35433.000000
20
24409.000000
11
43307.000000
21
24409.000000
0
LINE
8
Layer 1
10
35433.000000
20
27559.000000
11
35433.000000
21
24409.000000
0
LINE
8
Layer 1
10
43307.100000
20
51181.100000
11
43350.628903
21
51166.501350
0
LINE
8
Layer 1
10
43350.628903
20
51166.501350
11
43394.084214
21
51151.749388
0
LINE
8
Layer 1
10
43394.084214
20
51151.749388
11
43437.465619
21
51136.844428
0
LINE
8
Layer 1
10
43437.465619
20
51136.844428
11
43480.772804
21
51121.786784
0
LINE
8
Layer 1
10
43480.772804
20
51121.786784
11
43524.005454
21
51106.576771
0
LINE
8
Layer 1
10
43524.005454
20
51106.576771
11
43567.163257
21
51091.214701
0
LINE
8
Layer 1
10
43567.163257
20
51091.214701
11
43610.245899
21
51075.700888
0
LINE
8
Layer 1
10
43610.245899
20
51075.700888
11
43653.253065
21
51060.035647
0
LINE
8
Layer 1
10
43653.253065
20
51060.035647
11
43696.184442
21
51044.219292
0
LINE
8
Layer 1
10
43696.184442
20
51044.219292
11
43739.039715
21
51028.252136
0
LINE
8
Layer 1
10
43739.039715
20
51028.252136
11
43781.818572
21
51012.134493
0
LINE
8
Layer 1
10
43781.818572
20
51012.134493
11
43824.520698
21
50995.866676
0
LINE
8
Layer 1
10
43824.520698
20
50995.866676
11
43867.145779
21
50979.449001
0
LINE
8
Layer 1
10
43867.145779
20
50979.449001
11
43909.693501
21
50962.881780
0
LINE
8
Layer 1
10
43909.693501
20
50962.881780
11
43952.163551
21
50946.165328
0
LINE
8
Layer 1
10
43952.163551
20
50946.165328
11
43994.555615
21
50929.299957
0
LINE
8
Layer 1
10
43994.555615
20
50929.299957
11
44036.869379
21
50912.285984
0
LINE
8
Layer 1
10
44036.869379
20
50912.285984
11
44079.104528
21
50895.123720
0
LINE
8
Layer 1
10
44079.104528
20
50895.123720
11
44121.260750
21
50877.813480
0
LINE
8
Layer 1
10
44121.260750
20
50877.813480
11
44163.337730
21
50860.355578
0
LINE
8
Layer 1
10
44163.337730
20
50860.355578
11
44205.335155
21
50842.750327
0
LINE
8
Layer 1
10
44205.335155
20
50842.750327
11
44247.252710
21
50824.998042
0
LINE
8
Layer 1
10
44247.252710
20
50824.998042
11
44289.090081
21
50807.099037
0
LINE
8
Layer 1
10
44289.090081
20
50807.099037
11
44330.846956
21
50789.053624
0
LINE
8
Layer 1
10
44330.846956
20
50789.053624
11
44372.523020
21
50770.862119
0
LINE
8
Layer 1
10
44372.523020
20
50770.862119
11
44414.117958
21
50752.524834
0
LINE
8
Layer 1
10
44414.117958
20
50752.524834
11
44455.631459
21
50734.042084
0
LINE
8
Layer 1
10
44455.631459
20
50734.042084
11
44497.063206
21
50715.414183
0
LINE
8
Layer 1
10
44497.063206
20
50715.414183
11
44538.412887
21
50696.641444
0
LINE
8
Layer 1
10
44538.412887
20
50696.641444
11
44579.680188
21
50677.724182
0
LINE
8
Layer 1
10
44579.680188
20
50677.724182
11
44620.864795
21
50658.662710
0
LINE
8
Layer 1
10
44620.864795
20
50658.662710
11
44661.966394
21
50639.457342
0
LINE
8
Layer 1
10
44661.966394
20
50639.457342
11
44702.984671
21
50620.108391
0
LINE
8
Layer 1
10
44702.984671
20
50620.108391
11
44743.919312
21
50600.616173
0
LINE
8
Layer 1
10
44743.919312
20
50600.616173
11
44784.770004
21
50580.981000
0
LINE
8
Layer 1
10
44784.770004
20
50580.981000
11
44825.536432
21
50561.203186
0
LINE
8
Layer 1
10
44825.536432
20
50561.203186
11
44866.218283
21
50541.283046
0
LINE
8
Layer 1
10
44866.218283
20
50541.283046
11
44906.815243
21
50521.220893
0
LINE
8
Layer 1
10
44906.815243
20
50521.220893
11
44947.326998
21
50501.017041
0
LINE
8
Layer 1
10
44947.326998
20
50501.017041
11
44987.753234
21
50480.671804
0
LINE
8
Layer 1
10
44987.753234
20
50480.671804
11
45028.093638
21
50460.185496
0
LINE
8
Layer 1
10
45028.093638
20
50460.185496
11
45068.347895
21
50439.558430
0
LINE
8
Layer 1
10
45068.347895
20
50439.558430
11
45108.515691
21
50418.790920
0
LINE
8
Layer 1
10
45108.515691
20
50418.790920
11
45148.596714
21
50397.883281
0
LINE
8
Layer 1
10
45148.596714
20
50397.883281
11
45188.590648
21
50376.835826
0
LINE
8
Layer 1
10
45188.590648
20
50376.835826
11
45228.497180
21
50355.648869
0
LINE
8
Layer 1
10
45228.497180
20
50355.648869
11
45268.315997
21
50334.322724
0
LINE
8
Layer 1
10
45268.315997
20
50334.322724
11
45308.046784
21
50312.857705
0
LINE
8
Layer 1
10
45308.046784
20
50312.857705
11
45347.689227
21
50291.254125
0
LINE
8
Layer 1
10
45347.689227
20
50291.254125
11
45387.243013
21
50269.512299
0
LINE
8
Layer 1
10
45387.243013
20
50269.512299
11
45426.707827
21
50247.632540
0
LINE
8
Layer 1
10
45426.707827
20
50247.632540
11
45466.083357
21
50225.615162
0
LINE
8
Layer 1
10
45466.083357
20
50225.615162
11
45505.369288
21
50203.460479
0
LINE
8
Layer 1
10
45505.369288
20
50203.460479
11
45544.565305
21
50181.168805
0
LINE
8
Layer 1
10
45544.565305
20
50181.168805
11
45583.671097
21
50158.740454
0
LINE
8
Layer 1
10
45583.671097
20
50158.740454
11
45622.686347
21
50136.175739
0
LINE
8
Layer 1
10
45622.686347
20
50136.175739
11
45661.610744
21
50113.474975
0
LINE
8
Layer 1
10
45661.610744
20
50113.474975
11
45700.443972
21
50090.638475
0
LINE
8
Layer 1
10
45700.443972
20
50090.638475
11
45739.185718
21
50067.666553
0
LINE
8
Layer 1
10
45739.185718
20
50067.666553
11
45777.835668
21
50044.559523
0
LINE
8
Layer 1
10
45777.835668
20
50044.559523
11
45816.393508
21
50021.317699
0
LINE
8
Layer 1
10
45816.393508
20
50021.317699
11
45854.858925
21
49997.941395
0
LINE
8
Layer 1
10
45854.858925
20
49997.941395
11
45893.231604
21
49974.430924
0
LINE
8
Layer 1
10
45893.231604
20
49974.430924
11
45931.511232
21
49950.786601
0
LINE
8
Layer 1
10
45931.511232
20
49950.786601
11
45969.697494
21
49927.008738
0
LINE
8
Layer 1
10
45969.697494
20
49927.008738
11
46007.790078
21
49903.097651
0
LINE
8
Layer 1
10
46007.790078
20
49903.097651
11
46045.788668
21
49879.053653
0
LINE
8
Layer 1
10
46045.788668
20
49879.053653
11
46083.692952
21
49854.877058
0
LINE
8
Layer 1
10
46083.692952
20
49854.877058
11
46121.502615
21
49830.568180
0
LINE
8
Layer 1
10
46121.502615
20
49830.568180
11
46159.217344
21
49806.127332
0
LINE
8
Layer 1
10
46159.217344
20
49806.127332
11
46196.836824
21
49781.554828
0
LINE
8
Layer 1
10
46196.836824
20
49781.554828
11
46234.360742
21
49756.850983
0
LINE
8
Layer 1
10
46234.360742
20
49756.850983
11
46271.788784
21
49732.016110
0
LINE
8
Layer 1
10
46271.788784
20
49732.016110
11
46309.120637
21
49707.050523
0
LINE
8
Layer 1
10
46309.120637
20
49707.050523
11
46346.355985
21
49681.954535
0
LINE
8
Layer 1
10
46346.355985
20
49681.954535
11
46383.494516
21
49656.728461
0
LINE
8
Layer 1
10
46383.494516
20
49656.728461
11
46420.535915
21
49631.372615
0
LINE
8
Layer 1
10
46420.535915
20
49631.372615
11
46457.479869
21
49605.887311
0
LINE
8
Layer 1
10
46457.479869
20
49605.887311
11
46494.326064
21
49580.272861
0
LINE
8
Layer 1
10
46494.326064
20
49580.272861
11
46531.074185
21
49554.529581
0
LINE
8
Layer 1
10
46531.074185
20
49554.529581
11
46567.723920
21
49528.657783
0
LINE
8
Layer 1
10
46567.723920
20
49528.657783
11
46604.274954
21
49502.657782
0
LINE
8
Layer 1
10
46604.274954
20
49502.657782
11
46640.726974
21
49476.529892
0
LINE
8
Layer 1
10
46640.726974
20
49476.529892
11
46677.079665
21
49450.274427
0
LINE
8
Layer 1
10
46677.079665
20
49450.274427
11
46713.332713
21
49423.891700
0
LINE
8
Layer 1
10
46713.332713
20
49423.891700
11
46749.485806
21
49397.382025
0
LINE
8
Layer 1
10
46749.485806
20
49397.382025
11
46785.538628
21
49370.745716
0
LINE
8
Layer 1
10
46785.538628
20
49370.745716
11
46821.490867
21
49343.983088
0
LINE
8
Layer 1
10
46821.490867
20
49343.983088
11
46857.342208
21
49317.094453
0
LINE
8
Layer 1
10
46857.342208
20
49317.094453
11
46893.092337
21
49290.080125
0
LINE
8
Layer 1
10
46893.092337
20
49290.080125
11
46928.740940
21
49262.940419
0
LINE
8
Layer 1
10
46928.740940
20
49262.940419
11
46964.287705
21
49235.675649
0
LINE
8
Layer 1
10
46964.287705
20
49235.675649
11
46999.732316
21
49208.286128
0
LINE
8
Layer 1
10
46999.732316
20
49208.286128
11
47035.074460
21
49180.772170
0
LINE
8
Layer 1
10
47035.074460
20
49180.772170
11
47070.313824
21
49153.134088
0
LINE
8
Layer 1
10
47070.313824
20
49153.134088
11
47105.450092
21
49125.372198
0
LINE
8
Layer 1
10
47105.450092
20
49125.372198
11
47140.482952
21
49097.486812
0
LINE
8
Layer 1
10
47140.482952
20
49097.486812
11
47175.412090
21
49069.478245
0
LINE
8
Layer 1
10
47175.412090
20
49069.478245
11
47210.237191
21
49041.346810
0
LINE
8
Layer 1
10
47210.237191
20
49041.346810
11
47244.957942
21
49013.092821
0
LINE
8
Layer 1
10
47244.957942
20
49013.092821
11
47279.574029
21
48984.716593
0
LINE
8
Layer 1
10
47279.574029
20
48984.716593
11
47314.085139
21
48956.218438
0
LINE
8
Layer 1
10
47314.085139
20
48956.218438
11
47348.490956
21
48927.598671
0
LINE
8
Layer 1
10
47348.490956
20
48927.598671
11
47382.791168
21
48898.857606
0
LINE
8
Layer 1
10
47382.791168
20
48898.857606
11
47416.985460
21
48869.995556
0
LINE
8
Layer 1
10
47416.985460
20
48869.995556
11
47451.073520
21
48841.012835
0
LINE
8
Layer 1
10
47451.073520
20
48841.012835
11
47485.055032
21
48811.909758
0
LINE
8
Layer 1
10
47485.055032
20
48811.909758
11
47518.929683
21
48782.686638
0
LINE
8
Layer 1
10
47518.929683
20
48782.686638
11
47552.697159
21
48753.343789
0
LINE
8
Layer 1
10
47552.697159
20
48753.343789
11
47586.357146
21
48723.881524
0
LINE
8
Layer 1
10
47586.357146
20
48723.881524
11
47619.909331
21
48694.300158
0
LINE
8
Layer 1
10
47619.909331
20
48694.300158
11
47653.353400
21
48664.600005
0
LINE
8
Layer 1
10
47653.353400
20
48664.600005
11
47686.689038
21
48634.781378
0
LINE
8
Layer 1
10
47686.689038
20
48634.781378
11
47719.915932
21
48604.844591
0
LINE
8
Layer 1
10
47719.915932
20
48604.844591
11
47753.033768
21
48574.789958
0
LINE
8
Layer 1
10
47753.033768
20
48574.789958
11
47786.042232
21
48544.617793
0
LINE
8
Layer 1
10
47786.042232
20
48544.617793
11
47818.941011
21
48514.328410
0
LINE
8
Layer 1
10
47818.941011
20
48514.328410
11
47851.729789
21
48483.922123
0
LINE
8
Layer 1
10
47851.729789
20
48483.922123
11
47884.408255
21
48453.399245
0
LINE
8
Layer 1
10
47884.408255
20
48453.399245
11
47916.976093
21
48422.760090
0
LINE
8
Layer 1
10
47916.976093
20
48422.760090
11
47949.432990
21
48392.004973
0
LINE
8
Layer 1
10
47949.432990
20
48392.004973
11
47981.778633
21
48361.134206
0
LINE
8
Layer 1
10
47981.778633
20
48361.134206
11
48014.012706
21
48330.148104
0
LINE
8
Layer 1
10
48014.012706
20
48330.148104
11
48046.134896
21
48299.046982
0
LINE
8
Layer 1
10
48046.134896
20
48299.046982
11
48078.144890
21
48267.831151
0
LINE
8
Layer 1
10
48078.144890
20
48267.831151
11
48110.042374
21
48236.500928
0
LINE
8
Layer 1
10
48110.042374
20
48236.500928
11
48141.827033
21
48205.056624
0
LINE
8
Layer 1
10
48141.827033
20
48205.056624
11
48173.498555
21
48173.498555
0
LINE
8
Layer 1
10
48173.498555
20
48173.498555
11
48205.056624
21
48141.827033
0
LINE
8
Layer 1
10
48205.056624
20
48141.827033
11
48236.500928
21
48110.042374
0
LINE
8
Layer 1
10
48236.500928
20
48110.042374
11
48267.831151
21
48078.144890
0
LINE
8
Layer 1
10
48267.831151
20
48078.144890
11
48299.046982
21
48046.134896
0
LINE
8
Layer 1
10
48299.046982
20
48046.134896
11
48330.148104
21
48014.012706
0
LINE
8
Layer 1
10
48330.148104
20
48014.012706
11
48361.134206
21
47981.778633
0
LINE
8
Layer 1
10
48361.134206
20
47981.778633
11
48392.004973
21
47949.432990
0
LINE
8
Layer 1
10
48392.004973
20
47949.432990
11
48422.760090
21
47916.976093
0
LINE
8
Layer 1
10
48422.760090
20
47916.976093
11
48453.399245
21
47884.408255
0
LINE
8
Layer 1
10
48453.399245
20
47884.408255
11
48483.922123
21
47851.729789
0
LINE
8
Layer 1
10
48483.922123
20
47851.729789
11
48514.328410
21
47818.941011
0
LINE
8
Layer 1
10
48514.328410
20
47818.941011
11
48544.617793
21
47786.042232
0
LINE
8
Layer 1
10
48544.617793
20
47786.042232
11
48574.789958
21
47753.033768
0
LINE
8
Layer 1
10
48574.789958
20
47753.033768
11
48604.844591
21
47719.915932
0
LINE
8
Layer 1
10
48604.844591
20
47719.915932
11
48634.781378
21
47686.689038
0
LINE
8
Layer 1
10
48634.781378
20
47686.689038
11
48664.600005
21
47653.353400
0
LINE
8
Layer 1
10
48664.600005
20
47653.353400
11
48694.300158
21
47619.909331
0
LINE
8
Layer 1
10
48694.300158
20
47619.909331
11
48723.881524
21
47586.357146
0
LINE
8
Layer 1
10
48723.881524
20
47586.357146
11
48753.343789
21
47552.697159
0
LINE
8
Layer 1
10
48753.343789
20
47552.697159
11
48782.686638
21
47518.929683
0
LINE
8
Layer 1
10
48782.686638
20
47518.929683
11
48811.909758
21
47485.055032
0
LINE
8
Layer 1
10
48811.909758
20
47485.055032
11
48841.012835
21
47451.073520
0
LINE
8
Layer 1
10
48841.012835
20
47451.073520
11
48869.995556
21
47416.985460
0
LINE
8
Layer 1
10
48869.995556
20
47416.985460
11
48898.857606
21
47382.791168
0
LINE
8
Layer 1
10
48898.857606
20
47382.791168
11
48927.598671
21
47348.490956
0
LINE
8
Layer 1
10
48927.598671
20
47348.490956
11
48956.218438
21
47314.085139
0
LINE
8
Layer 1
10
48956.218438
20
47314.085139
11
48984.716593
21
47279.574029
0
LINE
8
Layer 1
10
48984.716593
20
47279.574029
11
49013.092821
21
47244.957942
0
LINE
8
Layer 1
10
49013.092821
20
47244.957942
11
49041.346810
21
47210.237191
0
LINE
8
Layer 1
10
49041.346810
20
47210.237191
11
49069.478245
21
47175.412090
0
LINE
8
Layer 1
10
49069.478245
20
47175.412090
11
49097.486812
21
47140.482952
0
LINE
8
Layer 1
10
49097.486812
20
47140.482952
11
49125.372198
21
47105.450092
0
LINE
8
Layer 1
10
49125.372198
20
47105.450092
11
49153.134088
21
47070.313824
0
LINE
8
Layer 1
10
49153.134088
20
47070.313824
11
49180.772170
21
47035.074460
0
LINE
8
Layer 1
10
49180.772170
20
47035.074460
11
49208.286128
21
46999.732316
0
LINE
8
Layer 1
10
49208.286128
20
46999.732316
11
49235.675649
21
46964.287705
0
LINE
8
Layer 1
10
49235.675649
20
46964.287705
11
49262.940419
21
46928.740940
0
LINE
8
Layer 1
10
49262.940419
20
46928.740940
11
49290.080125
21
46893.092337
0
LINE
8
Layer 1
10
49290.080125
20
46893.092337
11
49317.094453
21
46857.342208
0
LINE
8
Layer 1
10
49317.094453
20
46857.342208
11
49343.983088
21
46821.490867
0
LINE
8
Layer 1
10
49343.983088
20
46821.490867
11
49370.745716
21
46785.538628
0
LINE
8
Layer 1
10
49370.745716
20
46785.538628
11
49397.382025
21
46749.485806
0
LINE
8
Layer 1
10
49397.382025
20
46749.485806
11
49423.891700
21
46713.332713
0
LINE
8
Layer 1
10
49423.891700
20
46713.332713
11
49450.274427
21
46677.079665
0
LINE
8
Layer 1
10
49450.274427
20
46677.079665
11
49476.529892
21
46640.726974
0
LINE
8
Layer 1
10
49476.529892
20
46640.726974
11
49502.657782
21
46604.274954
0
LINE
8
Layer 1
10
49502.657782
20
46604.274954
11
49528.657783
21
46567.723920
0
LINE
8
Layer 1
10
49528.657783
20
46567.723920
11
49554.529581
21
46531.074185
0
LINE
8
Layer 1
10
49554.529581
20
46531.074185
11
49580.272861
21
46494.326064
0
LINE
8
Layer 1
10
49580.272861
20
46494.326064
11
49605.887311
21
46457.479869
0
LINE
8
Layer 1
10
49605.887311
20
46457.479869
11
49631.372615
21
46420.535915
0
LINE
8
Layer 1
10
49631.372615
20
46420.535915
11
49656.728461
21
46383.494516
0
LINE
8
Layer 1
10
49656.728461
20
46383.494516
11
49681.954535
21
46346.355985
0
LINE
8
Layer 1
10
49681.954535
20
46346.355985
11
49707.050523
21
46309.120637
0
LINE
8
Layer 1
10
49707.050523
20
46309.120637
11
49732.016110
21
46271.788784
0
LINE
8
Layer 1
10
49732.016110
20
46271.788784
11
49756.850983
21
46234.360742
0
LINE
8
Layer 1
10
49756.850983
20
46234.360742
11
49781.554828
21
46196.836824
0
LINE
8
Layer 1
10
49781.554828
20
46196.836824
11
49806.127332
21
46159.217344
0
LINE
8
Layer 1
10
49806.127332
20
46159.217344
11
49830.568180
21
46121.502615
0
LINE
8
Layer 1
10
49830.568180
20
46121.502615
11
49854.877058
21
46083.692952
0
LINE
8
Layer 1
10
49854.877058
20
46083.692952
11
49879.053653
21
46045.788668
0
LINE
8
Layer 1
10
49879.053653
20
46045.788668
11
49903.097651
21
46007.790078
0
LINE
8
Layer 1
10
49903.097651
20
46007.790078
11
49927.008738
21
45969.697494
0
LINE
8
Layer 1
10
49927.008738
20
45969.697494
11
49950.786601
21
45931.511232
0
LINE
8
Layer 1
10
49950.786601
20
45931.511232
11
49974.430924
21
45893.231604
0
LINE
8
Layer 1
10
49974.430924
20
45893.231604
11
49997.941395
21
45854.858925
0
LINE
8
Layer 1
10
49997.941395
20
45854.858925
11
50021.317699
21
45816.393508
0
LINE
8
Layer 1
10
50021.317699
20
45816.393508
11
50044.559523
21
45777.835668
0
LINE
8
Layer 1
10
50044.559523
20
45777.835668
11
50067.666553
21
45739.185718
0
LINE
8
Layer 1
10
50067.666553
20
45739.185718
11
50090.638475
21
45700.443972
0
LINE
8
Layer 1
10
50090.638475
20
45700.443972
11
50113.474975
21
45661.610744
0
LINE
8
Layer 1
10
50113.474975
20
45661.610744
11
50136.175739
21
45622.686347
0
LINE
8
Layer 1
10
50136.175739
20
45622.686347
11
50158.740454
21
45583.671097
0
LINE
8
Layer 1
10
50158.740454
20
45583.671097
11
50181.168805
21
45544.565305
0
LINE
8
Layer 1
10
50181.168805
20
45544.565305
11
50203.460479
21
45505.369288
0
LINE
8
Layer 1
10
50203.460479
20
45505.369288
11
50225.615162
21
45466.083357
0
LINE
8
Layer 1
10
50225.615162
20
45466.083357
11
50247.632540
21
45426.707827
0
LINE
8
Layer 1
10
50247.632540
20
45426.707827
11
50269.512299
21
45387.243013
0
LINE
8
Layer 1
10
50269.512299
20
45387.243013
11
50291.254125
21
45347.689227
0
LINE
8
Layer 1
10
50291.254125
20
45347.689227
11
50312.857705
21
45308.046784
0
LINE
8
Layer 1
10
50312.857705
20
45308.046784
11
50334.322724
21
45268.315997
0
LINE
8
Layer 1
10
50334.322724
20
45268.315997
11
50355.648869
21
45228.497180
0
LINE
8
Layer 1
10
50355.648869
20
45228.497180
11
50376.835826
21
45188.590648
0
LINE
8
Layer 1
10
50376.835826
20
45188.590648
11
50397.883281
21
45148.596714
0
LINE
8
Layer 1
10
50397.883281
20
45148.596714
11
50418.790920
21
45108.515691
0
LINE
8
Layer 1
10
50418.790920
20
45108.515691
11
50439.558430
21
45068.347895
0
LINE
8
Layer 1
10
50439.558430
20
45068.347895
11
50460.185496
21
45028.093638
0
LINE
8
Layer 1
10
50460.185496
20
45028.093638
11
50480.671804
21
44987.753234
0
LINE
8
Layer 1
10
50480.671804
20
44987.753234
11
50501.017041
21
44947.326998
0
LINE
8
Layer 1
10
50501.017041
20
44947.326998
11
50521.220893
21
44906.815243
0
LINE
8
Layer 1
10
50521.220893
20
44906.815243
11
50541.283046
21
44866.218283
0
LINE
8
Layer 1
10
50541.283046
20
44866.218283
11
50561.203186
21
44825.536432
0
LINE
8
Layer 1
10
50561.203186
20
44825.536432
11
50580.981000
21
44784.770004
0
LINE
8
Layer 1
10
50580.981000
20
44784.770004
11
50600.616173
21
44743.919312
0
LINE
8
Layer 1
10
50600.616173
20
44743.919312
11
50620.108391
21
44702.984671
0
LINE
8
Layer 1
10
50620.108391
20
44702.984671
11
50639.457342
21
44661.966394
0
LINE
8
Layer 1
10
50639.457342
20
44661.966394
11
50658.662710
21
44620.864795
0
LINE
8
Layer 1
10
50658.662710
20
44620.864795
11
50677.724182
21
44579.680188
0
LINE
8
Layer 1
10
50677.724182
20
44579.680188
11
50696.641444
21
44538.412887
0
LINE
8
Layer 1
10
50696.641444
20
44538.412887
11
50715.414183
21
44497.063206
0
LINE
8
Layer 1
10
50715.414183
20
44497.063206
11
50734.042084
21
44455.631459
0
LINE
8
Layer 1
10
50734.042084
20
44455.631459
11
50752.524834
21
44414.117958
0
LINE
8
Layer 1
10
50752.524834
20
44414.117958
11
50770.862119
21
44372.523020
0
LINE
8
Layer 1
10
50770.862119
20
44372.523020
11
50789.053624
21
44330.846956
0
LINE
8
Layer 1
10
50789.053624
20
44330.846956
11
50807.099037
21
44289.090081
0
LINE
8
Layer 1
10
50807.099037
20
44289.090081
11
50824.998042
21
44247.252710
0
LINE
8
Layer 1
10
50824.998042
20
44247.252710
11
50842.750327
21
44205.335155
0
LINE
8
Layer 1
10
50842.750327
20
44205.335155
11
50860.355578
21
44163.337730
0
LINE
8
Layer 1
10
50860.355578
20
44163.337730
11
50877.813480
21
44121.260750
0
LINE
8
Layer 1
10
50877.813480
20
44121.260750
11
50895.123720
21
44079.104528
0
LINE
8
Layer 1
10
50895.123720
20
44079.104528
11
50912.285984
21
44036.869379
0
LINE
8
Layer 1
10
50912.285984
20
44036.869379
11
50929.299957
21
43994.555615
0
LINE
8
Layer 1
10
50929.299957
20
43994.555615
11
50946.165328
21
43952.163551
0
LINE
8
Layer 1
10
50946.165328
20
43952.163551
11
50962.881780
21
43909.693501
0
LINE
8
Layer 1
10
50962.881780
20
43909.693501
11
50979.449001
21
43867.145779
0
LINE
8
Layer 1
10
50979.449001
20
43867.145779
11
50995.866676
21
43824.520698
0
LINE
8
Layer 1
10
50995.866676
20
43824.520698
11
51012.134493
21
43781.818572
0
LINE
8
Layer 1
10
51012.134493
20
43781.818572
11
51028.252136
21
43739.039715
0
LINE
8
Layer 1
10
51028.252136
20
43739.039715
11
51044.219292
21
43696.184442
0
LINE
8
Layer 1
10
51044.219292
20
43696.184442
11
51060.035647
21
43653.253065
0
LINE
8
Layer 1
10
51060.035647
20
43653.253065
11
51075.700888
21
43610.245899
0
LINE
8
Layer 1
10
51075.700888
20
43610.245899
11
51091.214701
21
43567.163257
0
LINE
8
Layer 1
10
51091.214701
20
43567.163257
11
51106.576771
21
43524.005454
0
LINE
8
Layer 1
10
51106.576771
20
43524.005454
11
51121.786784
21
43480.772804
0
LINE
8
Layer 1
10
51121.786784
20
43480.772804
11
51136.844428
21
43437.465619
0
LINE
8
Layer 1
10
51136.844428
20
43437.465619
11
51151.749388
21
43394.084214
0
LINE
8
Layer 1
10
51151.749388
20
43394.084214
11
51166.501350
21
43350.628903
0
LINE
8
Layer 1
10
51166.501350
20
43350.628903
11
51181.100000
21
43307.100000
0
LINE
8
Layer 1
10
27559.100000
20
43307.100000
11
27573.698650
21
43350.628903
0
LINE
8
Layer 1
10
27573.698650
20
43350.628903
11
27588.450612
21
43394.084214
0
LINE
8
Layer 1
10
27588.450612
20
43394.084214
11
27603.355572
21
43437.465619
0
LINE
8
Layer 1
10
27603.355572
20
43437.465619
11
27618.413216
21
43480.772804
0
LINE
8
Layer 1
10
27618.413216
20
43480.772804
11
27633.623229
21
43524.005454
0
LINE
8
Layer 1
10
27633.623229
20
43524.005454
11
27648.985299
21
43567.163257
0
LINE
8
Layer 1
10
27648.985299
20
43567.163257
11
27664.499112
21
43610.245899
0
LINE
8
Layer 1
10
27664.499112
20
43610.245899
11
27680.164353
21
43653.253065
0
LINE
8
Layer 1
10
27680.164353
20
43653.253065
11
27695.980708
21
43696.184442
0
LINE
8
Layer 1
10
27695.980708
20
43696.184442
11
27711.947864
21
43739.039715
0
LINE
8
Layer 1
10
27711.947864
20
43739.039715
11
27728.065507
21
43781.818572
0
LINE
8
Layer 1
10
27728.065507
20
43781.818572
11
27744.333324
21
43824.520698
0
LINE
8
Layer 1
10
27744.333324
20
43824.520698
11
27760.750999
21
43867.145779
0
LINE
8
Layer 1
10
27760.750999
20
43867.145779
11
27777.318220
21
43909.693501
0
LINE
8
Layer 1
10
27777.318220
20
43909.693501
11
27794.034672
21
43952.163551
0
LINE
8
Layer 1
10
27794.034672
20
43952.163551
11
27810.900043
21
43994.555615
0
LINE
8
Layer 1
10
27810.900043
20
43994.555615
11
27827.914016
21
44036.869379
0
LINE
8
Layer 1
10
27827.914016
20
44036.869379
11
27845.076280
21
44079.104528
0
LINE
8
Layer 1
10
27845.076280
20
44079.104528
11
27862.386520
21
44121.260750
0
LINE
8
Layer 1
10
27862.386520
20
44121.260750
11
27879.844422
21
44163.337730
0
LINE
8
Layer 1
10
27879.844422
20
44163.337730
11
27897.449673
21
44205.335155
0
LINE
8
Layer 1
10
27897.449673
20
44205.335155
11
27915.201958
21
44247.252710
0
LINE
8
Layer 1
10
27915.201958
20
44247.252710
11
27933.100963
21
44289.090081
0
LINE
8
Layer 1
10
27933.100963
20
44289.090081
11
27951.146376
21
44330.846956
0
LINE
8
Layer 1
10
27951.146376
20
44330.846956
11
27969.337881
21
44372.523020
0
LINE
8
Layer 1
10
27969.337881
20
44372.523020
11
27987.675166
21
44414.117958
0
LINE
8
Layer 1
10
27987.675166
20
44414.117958
11
28006.157916
21
44455.631459
0
LINE
8
Layer 1
10
28006.157916
20
44455.631459
11
28024.785817
21
44497.063206
0
LINE
8
Layer 1
10
28024.785817
20
44497.063206
11
28043.558556
21
44538.412887
0
LINE
8
Layer 1
10
28043.558556
20
44538.412887
11
28062.475818
21
44579.680188
0
LINE
8
Layer 1
10
28062.475818
20
44579.680188
11
28081.537290
21
44620.864795
0
LINE
8
Layer 1
10
28081.537290
20
44620.864795
11
28100.742658
21
44661.966394
0
LINE
8
Layer 1
10
28100.742658
20
44661.966394
11
28120.091609
21
44702.984671
0
LINE
8
Layer 1
10
28120.091609
20
44702.984671
11
28139.583827
21
44743.919312
0
LINE
8
Layer 1
10
28139.583827
20
44743.919312
11
28159.219000
21
44784.770004
0
LINE
8
Layer 1
10
28159.219000
20
44784.770004
11
28178.996814
21
44825.536432
0
LINE
8
Layer 1
10
28178.996814
20
44825.536432
11
28198.916954
21
44866.218283
0
LINE
8
Layer 1
10
28198.916954
20
44866.218283
11
28218.979107
21
44906.815243
0
LINE
8
Layer 1
10
28218.979107
20
44906.815243
11
28239.182959
21
44947.326998
0
LINE
8
Layer 1
10
28239.182959
20
44947.326998
11
28259.528196
21
44987.753234
0
LINE
8
Layer 1
10
28259.528196
20
44987.753234
11
28280.014504
21
45028.093638
0
LINE
8
Layer 1
10
28280.014504
20
45028.093638
11
28300.641570
21
45068.347895
0
LINE
8
Layer 1
10
28300.641570
20
45068.347895
11
28321.409080
21
45108.515691
0
LINE
8
Layer 1
10
28321.409080
20
45108.515691
11
28342.316719
21
45148.596714
0
LINE
8
Layer 1
10
28342.316719
20
45148.596714
11
28363.364174
21
45188.590648
0
LINE
8
Layer 1
10
28363.364174
20
45188.590648
11
28384.551131
21
45228.497180
0
LINE
8
Layer 1
10
28384.551131
20
45228.497180
11
28405.877276
21
45268.315997
0
LINE
8
Layer 1
10
28405.877276
20
45268.315997
11
28427.342295
21
45308.046784
0
LINE
8
Layer 1
10
28427.342295
20
45308.046784
11
28448.945875
21
45347.689227
0
LINE
8
Layer 1
10
28448.945875
20
45347.689227
11
28470.687701
21
45387.243013
0
LINE
8
Layer 1
10
28470.687701
20
45387.243013
11
28492.567460
21
45426.707827
0
LINE
8
Layer 1
10
28492.567460
20
45426.707827
11
28514.584838
21
45466.083357
0
LINE
8
Layer 1
10
28514.584838
20
45466.083357
11
28536.739521
21
45505.369288
0
LINE
8
Layer 1
10
28536.739521
20
45505.369288
11
28559.031195
21
45544.565305
0
LINE
8
Layer 1
10
28559.031195
20
45544.565305
11
28581.459546
21
45583.671097
0
LINE
8
Layer 1
10
28581.459546
20
45583.671097
11
28604.024261
21
45622.686347
0
LINE
8
Layer 1
10
28604.024261
20
45622.686347
11
28626.725025
21
45661.610744
0
LINE
8
Layer 1
10
28626.725025
20
45661.610744
11
28649.561525
21
45700.443972
0
LINE
8
Layer 1
10
28649.561525
20
45700.443972
11
28672.533447
21
45739.185718
0
LINE
8
Layer 1
10
28672.533447
20
45739.185718
11
28695.640477
21
45777.835668
0
LINE
8
Layer 1
10
28695.640477
20
45777.835668
11
28718.882301
21
45816.393508
0
LINE
8
Layer 1
10
28718.882301
20
45816.393508
11
28742.258605
21
45854.858925
0
LINE
8
Layer 1
10
28742.258605
20
45854.858925
11
28765.769076
21
45893.231604
0
LINE
8
Layer 1
10
28765.769076
20
45893.231604
11
28789.413399
21
45931.511232
0
LINE
8
Layer 1
10
28789.413399
20
45931.511232
11
28813.191262
21
45969.697494
0
LINE
8
Layer 1
10
28813.191262
20
45969.697494
11
28837.102349
21
46007.790078
0
LINE
8
Layer 1
10
28837.102349
20
46007.790078
11
28861.146347
21
46045.788668
0
LINE
8
Layer 1
10
28861.146347
20
46045.788668
11
28885.322942
21
46083.692952
0
LINE
8
Layer 1
10
28885.322942
20
46083.692952
11
28909.631820
21
46121.502615
0
LINE
8
Layer 1
10
28909.631820
20
46121.502615
11
28934.072668
21
46159.217344
0
LINE
8
Layer 1
10
28934.072668
20
46159.217344
11
28958.645172
21
46196.836824
0
LINE
8
Layer 1
10
28958.645172
20
46196.836824
11
28983.349017
21
46234.360742
0
LINE
8
Layer 1
10
28983.349017
20
46234.360742
11
29008.183890
21
46271.788784
0
LINE
8
Layer 1
10
29008.183890
20
46271.788784
11
29033.149477
21
46309.120637
0
LINE
8
Layer 1
10
29033.149477
20
46309.120637
11
29058.245465
21
46346.355985
0
LINE
8
Layer 1
10
29058.245465
20
46346.355985
11
29083.471539
21
46383.494516
0
LINE
8
Layer 1
10
29083.471539
20
46383.494516
11
29108.827385
21
46420.535915
0
LINE
8
Layer 1
10
29108.827385
20
46420.535915
11
29134.312689
21
46457.479869
0
LINE
8
Layer 1
10
29134.312689
20
46457.479869
11
29159.927139
21
46494.326064
0
LINE
8
Layer 1
10
29159.927139
20
46494.326064
11
29185.670419
21
46531.074185
0
LINE
8
Layer 1
10
29185.670419
20
46531.074185
11
29211.542217
21
46567.723920
0
LINE
8
Layer 1
10
29211.542217
20
46567.723920
11
29237.542218
21
46604.274954
0
LINE
8
Layer 1
10
29237.542218
20
46604.274954
11
29263.670108
21
46640.726974
0
LINE
8
Layer 1
10
29263.670108
20
46640.726974
11
29289.925573
21
46677.079665
0
LINE
8
Layer 1
10
29289.925573
20
46677.079665
11
29316.308300
21
46713.332713
0
LINE
8
Layer 1
10
29316.308300
20
46713.332713
11
29342.817975
21
46749.485806
0
LINE
8
Layer 1
10
29342.817975
20
46749.485806
11
29369.454284
21
46785.538628
0
LINE
8
Layer 1
10
29369.454284
20
46785.538628
11
29396.216912
21
46821.490867
0
LINE
8
Layer 1
10
29396.216912
20
46821.490867
11
29423.105547
21
46857.342208
0
LINE
8
Layer 1
10
29423.105547
20
46857.342208
11
29450.119875
21
46893.092337
0
LINE
8
Layer 1
10
29450.119875
20
46893.092337
11
29477.259581
21
46928.740940
0
LINE
8
Layer 1
10
29477.259581
20
46928.740940
11
29504.524351
21
46964.287705
0
LINE
8
Layer 1
10
29504.524351
20
46964.287705
11
29531.913872
21
46999.732316
0
LINE
8
Layer 1
10
29531.913872
20
46999.732316
11
29559.427830
21
47035.074460
0
LINE
8
Layer 1
10
29559.427830
20
47035.074460
11
29587.065912
21
47070.313824
0
LINE
8
Layer 1
10
29587.065912
20
47070.313824
11
29614.827802
21
47105.450092
0
LINE
8
Layer 1
10
29614.827802
20
47105.450092
11
29642.713188
21
47140.482952
0
LINE
8
Layer 1
10
29642.713188
20
47140.482952
11
29670.721755
21
47175.412090
0
LINE
8
Layer 1
10
29670.721755
20
47175.412090
11
29698.853190
21
47210.237191
0
LINE
8
Layer 1
10
29698.853190
20
47210.237191
11
29727.107179
21
47244.957942
0
LINE
8
Layer 1
10
29727.107179
20
47244.957942
11
29755.483407
21
47279.574029
0
LINE
8
Layer 1
10
29755.483407
20
47279.574029
11
29783.981562
21
47314.085139
0
LINE
8
Layer 1
10
29783.981562
20
47314.085139
11
29812.601329
21
47348.490956
0
LINE
8
Layer 1
10
29812.601329
20
47348.490956
11
29841.342394
21
47382.791168
0
LINE
8
Layer 1
10
29841.342394
20
47382.791168
11
29870.204444
21
47416.985460
0
LINE
8
Layer 1
10
29870.204444
20
47416.985460
11
29899.187165
21
47451.073520
0
LINE
8
Layer 1
10
29899.187165
20
47451.073520
11
29928.290242
21
47485.055032
0
LINE
8
Layer 1
10
29928.290242
20
47485.055032
11
29957.513362
21
47518.929683
0
LINE
8
Layer 1
10
29957.513362
20
47518.929683
11
29986.856211
21
47552.697159
0
LINE
8
Layer 1
10
29986.856211
20
47552.697159
11
30016.318476
21
47586.357146
0
LINE
8
Layer 1
10
30016.318476
20
47586.357146
11
30045.899842
21
47619.909331
0
LINE
8
Layer 1
10
30045.899842
20
47619.909331
11
30075.599995
21
47653.353400
0
LINE
8
Layer 1
10
30075.599995
20
47653.353400
11
30105.418622
21
47686.689038
0
LINE
8
Layer 1
10
30105.418622
20
47686.689038
11
30135.355409
21
47719.915932
0
LINE
8
Layer 1
10
30135.355409
20
47719.915932
11
30165.410042
21
47753.033768
0
LINE
8
Layer 1
10
30165.410042
20
47753.033768
11
30195.582207
21
47786.042232
0
LINE
8
Layer 1
10
30195.582207
20
47786.042232
11
30225.871590
21
47818.941011
0
LINE
8
Layer 1
10
30225.871590
20
47818.941011
11
30256.277877
21
47851.729789
0
LINE
8
Layer 1
10
30256.277877
20
47851.729789
11
30286.800755
21
47884.408255
0
LINE
8
Layer 1
10
30286.800755
20
47884.408255
11
30317.439910
21
47916.976093
0
LINE
8
Layer 1
10
30317.439910
20
47916.976093
11
30348.195027
21
47949.432990
0
LINE
8
Layer 1
10
30348.195027
20
47949.432990
11
30379.065794
21
47981.778633
0
LINE
8
Layer 1
10
30379.065794
20
47981.778633
11
30410.051896
21
48014.012706
0
LINE
8
Layer 1
10
30410.051896
20
48014.012706
11
30441.153018
21
48046.134896
0
LINE
8
Layer 1
10
30441.153018
20
48046.134896
11
30472.368849
21
48078.144890
0
LINE
8
Layer 1
10
30472.368849
20
48078.144890
11
30503.699072
21
48110.042374
0
LINE
8
Layer 1
10
30503.699072
20
48110.042374
11
30535.143376
21
48141.827033
0
LINE
8
Layer 1
10
30535.143376
20
48141.827033
11
30566.701445
21
48173.498555
0
LINE
8
Layer 1
10
30566.701445
20
48173.498555
11
30598.372967
21
48205.056624
0
LINE
8
Layer 1
10
30598.372967
20
48205.056624
11
30630.157626
21
48236.500928
0
LINE
8
Layer 1
10
30630.157626
20
48236.500928
11
30662.055110
21
48267.831151
0
LINE
8
Layer 1
10
30662.055110
20
48267.831151
11
30694.065104
21
48299.046982
0
LINE
8
Layer 1
10
30694.065104
20
48299.046982
11
30726.187294
21
48330.148104
0
LINE
8
Layer 1
10
30726.187294
20
48330.148104
11
30758.421367
21
48361.134206
0
LINE
8
Layer 1
10
30758.421367
20
48361.134206
11
30790.767010
21
48392.004973
0
LINE
8
Layer 1
10
30790.767010
20
48392.004973
11
30823.223907
21
48422.760090
0
LINE
8
Layer 1
10
30823.223907
20
48422.760090
11
30855.791745
21
48453.399245
0
LINE
8
Layer 1
10
30855.791745
20
48453.399245
11
30888.470211
21
48483.922123
0
LINE
8
Layer 1
10
30888.470211
20
48483.922123
11
30921.258989
21
48514.328410
0
LINE
8
Layer 1
10
30921.258989
20
48514.328410
11
30954.157768
21
48544.617793
0
LINE
8
Layer 1
10
30954.157768
20
48544.617793
11
30987.166232
21
48574.789958
0
LINE
8
Layer 1
10
30987.166232
20
48574.789958
11
31020.284068
21
48604.844591
0
LINE
8
Layer 1
10
31020.284068
20
48604.844591
11
31053.510962
21
48634.781378
0
LINE
8
Layer 1
10
31053.510962
20
48634.781378
11
31086.846600
21
48664.600005
0
LINE
8
Layer 1
10
31086.846600
20
48664.600005
11
31120.290669
21
48694.300158
0
LINE
8
Layer 1
10
31120.290669
20
48694.300158
11
31153.842854
21
48723.881524
0
LINE
8
Layer 1
10
31153.842854
20
48723.881524
11
31187.502841
21
48753.343789
0
LINE
8
Layer 1
10
31187.502841
20
48753.343789
11
31221.270317
21
48782.686638
0
LINE
8
Layer 1
10
31221.270317
20
48782.686638
11
31255.144968
21
48811.909758
0
LINE
8
Layer 1
10
31255.144968
20
48811.909758
11
31289.126480
21
48841.012835
0
LINE
8
Layer 1
10
31289.126480
20
48841.012835
11
31323.214540
21
48869.995556
0
LINE
8
Layer 1
10
31323.214540
20
48869.995556
11
31357.408832
21
48898.857606
0
LINE
8
Layer 1
10
31357.408832
20
48898.857606
11
31391.709044
21
48927.598671
0
LINE
8
Layer 1
10
31391.709044
20
48927.598671
11
31426.114861
21
48956.218438
0
LINE
8
Layer 1
10
31426.114861
20
48956.218438
11
31460.625971
21
48984.716593
0
LINE
8
Layer 1
10
31460.625971
20
48984.716593
11
31495.242058
21
49013.092821
0
LINE
8
Layer 1
10
31495.242058
20
49013.092821
11
31529.962809
21
49041.346810
0
LINE
8
Layer 1
10
31529.962809
20
49041.346810
11
31564.787910
21
49069.478245
0
LINE
8
Layer 1
10
31564.787910
20
49069.478245
11
31599.717048
21
49097.486812
0
LINE
8
Layer 1
10
31599.717048
20
49097.486812
11
31634.749908
21
49125.372198
0
LINE
8
Layer 1
10
31634.749908
20
49125.372198
11
31669.886176
21
49153.134088
0
LINE
8
Layer 1
10
31669.886176
20
49153.134088
11
31705.125540
21
49180.772170
0
LINE
8
Layer 1
10
31705.125540
20
49180.772170
11
31740.467684
21
49208.286128
0
LINE
8
Layer 1
10
31740.467684
20
49208.286128
11
31775.912295
21
49235.675649
0
LINE
8
Layer 1
10
31775.912295
20
49235.675649
11
31811.459060
21
49262.940419
0
LINE
8
Layer 1
10
31811.459060
20
49262.940419
11
31847.107663
21
49290.080125
0
LINE
8
Layer 1
10
31847.107663
20
49290.080125
11
31882.857792
21
49317.094453
0
LINE
8
Layer 1
10
31882.857792
20
49317.094453
11
31918.709133
21
49343.983088
0
LINE
8
Layer 1
10
31918.709133
20
49343.983088
11
31954.661372
21
49370.745716
0
LINE
8
Layer 1
10
31954.661372
20
49370.745716
11
31990.714194
21
49397.382025
0
LINE
8
Layer 1
10
31990.714194
20
49397.382025
11
32026.867287
21
49423.891700
0
LINE
8
Layer 1
10
32026.867287
20
49423.891700
11
32063.120335
21
49450.274427
0
LINE
8
Layer 1
10
32063.120335
20
49450.274427
11
32099.473026
21
49476.529892
0
LINE
8
Layer 1
10
32099.473026
20
49476.529892
11
32135.925046
21
49502.657782
0
LINE
8
Layer 1
10
32135.925046
20
49502.657782
11
32172.476080
21
49528.657783
0
LINE
8
Layer 1
10
32172.476080
20
49528.657783
11
32209.125815
21
49554.529581
0
LINE
8
Layer 1
10
32209.125815
20
49554.529581
11
32245.873936
21
49580.272861
0
LINE
8
Layer 1
10
32245.873936
20
49580.272861
11
32282.720131
21
49605.887311
0
LINE
8
Layer 1
10
32282.720131
20
49605.887311
11
32319.664085
21
49631.372615
0
LINE
8
Layer 1
10
32319.664085
20
49631.372615
11
32356.705484
21
49656.728461
0
LINE
8
Layer 1
10
32356.705484
20
49656.728461
11
32393.844015
21
49681.954535
0
LINE
8
Layer 1
10
32393.844015
20
49681.954535
11
32431.079363
21
49707.050523
0
LINE
8
Layer 1
10
32431.079363
20
49707.050523
11
32468.411216
21
49732.016110
0
LINE
8
Layer 1
10
32468.411216
20
49732.016110
11
32505.839258
21
49756.850983
0
LINE
8
Layer 1
10
32505.839258
20
49756.850983
11
32543.363176
21
49781.554828
0
LINE
8
Layer 1
10
32543.363176
20
49781.554828
11
32580.982656
21
49806.127332
0
LINE
8
Layer 1
10
32580.982656
20
49806.127332
11
32618.697385
21
49830.568180
0
LINE
8
Layer 1
10
32618.697385
20
49830.568180
11
32656.507048
21
49854.877058
0
LINE
8
Layer 1
10
32656.507048
20
49854.877058
11
32694.411332
21
49879.053653
0
LINE
8
Layer 1
10
32694.411332
20
49879.053653
11
32732.409922
21
49903.097651
0
LINE
8
Layer 1
10
32732.409922
20
49903.097651
11
32770.502506
21
49927.008738
0
LINE
8
Layer 1
10
32770.502506
20
49927.008738
11
32808.688768
21
49950.786601
0
LINE
8
Layer 1
10
32808.688768
20
49950.786601
11
32846.968396
21
49974.430924
0
LINE
8
Layer 1
10
32846.968396
20
49974.430924
11
32885.341075
21
49997.941395
0
LINE
8
Layer 1
10
32885.341075
20
49997.941395
11
32923.806492
21
50021.317699
0
LINE
8
Layer 1
10
32923.806492
20
50021.317699
11
32962.364332
21
50044.559523
0
LINE
8
Layer 1
10
32962.364332
20
50044.559523
11
33001.014282
21
50067.666553
0
LINE
8
Layer 1
10
33001.014282
20
50067.666553
11
33039.756028
21
50090.638475
0
LINE
8
Layer 1
10
33039.756028
20
50090.638475
11
33078.589256
21
50113.474975
0
LINE
8
Layer 1
10
33078.589256
20
50113.474975
11
33117.513653
21
50136.175739
0
LINE
8
Layer 1
10
33117.513653
20
50136.175739
11
33156.528903
21
50158.740454
0
LINE
8
Layer 1
10
33156.528903
20
50158.740454
11
33195.634695
21
50181.168805
0
LINE
8
Layer 1
10
33195.634695
20
50181.168805
11
33234.830712
21
50203.460479
0
LINE
8
Layer 1
10
33234.830712
20
50203.460479
11
33274.116643
21
50225.615162
0
LINE
8
Layer 1
10
33274.116643
20
50225.615162
11
33313.492173
21
50247.632540
0
LINE
8
Layer 1
10
33313.492173
20
50247.632540
11
33352.956987
21
50269.512299
0
LINE
8
Layer 1
10
33352.956987
20
50269.512299
11
33392.510773
21
50291.254125
0
LINE
8
Layer 1
10
33392.510773
20
50291.254125
11
33432.153216
21
50312.857705
0
LINE
8
Layer 1
10
33432.153216
20
50312.857705
11
33471.884003
21
50334.322724
0
LINE
8
Layer 1
10
33471.884003
20
50334.322724
11
33511.702820
21
50355.648869
0
LINE
8
Layer 1
10
33511.702820
20
50355.648869
11
33551.609352
21
50376.835826
0
LINE
8
Layer 1
10
33551.609352
20
50376.835826
11
33591.603286
21
50397.883281
0
LINE
8
Layer 1
10
33591.603286
20
50397.883281
11
33631.684309
21
50418.790920
0
LINE
8
Layer 1
10
33631.684309
20
50418.790920
11
33671.852105
21
50439.558430
0
LINE
8
Layer 1
10
33671.852105
20
50439.558430
11
33712.106362
21
50460.185496
0
LINE
8
Layer 1
10
33712.106362
20
50460.185496
11
33752.446766
21
50480.671804
0
LINE
8
Layer 1
10
33752.446766
20
50480.671804
11
33792.873002
21
50501.017041
0
LINE
8
Layer 1
10
33792.873002
20
50501.017041
11
33833.384757
21
50521.220893
0
LINE
8
Layer 1
10
33833.384757
20
50521.220893
11
33873.981717
21
50541.283046
0
LINE
8
Layer 1
10
33873.981717
20
50541.283046
11
33914.663568
21
50561.203186
0
LINE
8
Layer 1
10
33914.663568
20
50561.203186
11
33955.429996
21
50580.981000
0
LINE
8
Layer 1
10
33955.429996
20
50580.981000
11
33996.280688
21
50600.616173
0
LINE
8
Layer 1
10
33996.280688
20
50600.616173
11
34037.215329
21
50620.108391
0
LINE
8
Layer 1
10
34037.215329
20
50620.108391
11
34078.233606
21
50639.457342
0
LINE
8
Layer 1
10
34078.233606
20
50639.457342
11
34119.335205
21
50658.662710
0
LINE
8
Layer 1
10
34119.335205
20
50658.662710
11
34160.519812
21
50677.724182
0
LINE
8
Layer 1
10
34160.519812
20
50677.724182
11
34201.787113
21
50696.641444
0
LINE
8
Layer 1
10
34201.787113
20
50696.641444
11
34243.136794
21
50715.414183
0
LINE
8
Layer 1
10
34243.136794
20
50715.414183
11
34284.568541
21
50734.042084
0
LINE
8
Layer 1
10
34284.568541
20
50734.042084
11
34326.082042
21
50752.524834
0
LINE
8
Layer 1
10
34326.082042
20
50752.524834
11
34367.676980
21
50770.862119
0
LINE
8
Layer 1
10
34367.676980
20
50770.862119
11
34409.353044
21
50789.053624
0
LINE
8
Layer 1
10
34409.353044
20
50789.053624
11
34451.109919
21
50807.099037
0
LINE
8
Layer 1
10
34451.109919
20
50807.099037
11
34492.947290
21
50824.998042
0
LINE
8
Layer 1
10
34492.947290
20
50824.998042
11
34534.864845
21
50842.750327
0
LINE
8
Layer 1
10
34534.864845
20
50842.750327
11
34576.862270
21
50860.355578
0
LINE
8
Layer 1
10
34576.862270
20
50860.355578
11
34618.939250
21
50877.813480
0
LINE
8
Layer 1
10
34618.939250
20
50877.813480
11
34661.095472
21
50895.123720
0
LINE
8
Layer 1
10
34661.095472
20
50895.123720
11
34703.330621
21
50912.285984
0
LINE
8
Layer 1
10
34703.330621
20
50912.285984
11
34745.644385
21
50929.299957
0
LINE
8
Layer 1
10
34745.644385
20
50929.299957
11
34788.036449
21
50946.165328
0
LINE
8
Layer 1
10
34788.036449
20
50946.165328
11
34830.506499
21
50962.881780
0
LINE
8
Layer 1
10
34830.506499
20
50962.881780
11
34873.054221
21
50979.449001
0
LINE
8
Layer 1
10
34873.054221
20
50979.449001
11
34915.679302
21
50995.866676
0
LINE
8
Layer 1
10
34915.679302
20
50995.866676
11
34958.381428
21
51012.134493
0
LINE
8
Layer 1
10
34958.381428
20
51012.134493
11
35001.160285
21
51028.252136
0
LINE
8
Layer 1
10
35001.160285
20
51028.252136
11
35044.015558
21
51044.219292
0
LINE
8
Layer 1
10
35044.015558
20
51044.219292
11
35086.946935
21
51060.035647
0
LINE
8
Layer 1
10
35086.946935
20
51060.035647
11
35129.954101
21
51075.700888
0
LINE
8
Layer 1
10
35129.954101
20
51075.700888
11
35173.036743
21
51091.214701
0
LINE
8
Layer 1
10
35173.036743
20
51091.214701
11
35216.194546
21
51106.576771
0
LINE
8
Layer 1
10
35216.194546
20
51106.576771
11
35259.427196
21
51121.786784
0
LINE
8
Layer 1
10
35259.427196
20
51121.786784
11
35302.734381
21
51136.844428
0
LINE
8
Layer 1
10
35302.734381
20
51136.844428
11
35346.115786
21
51151.749388
0
LINE
8
Layer 1
10
35346.115786
20
51151.749388
11
35389.571097
21
51166.501350
0
LINE
8
Layer 1
10
35389.571097
20
51166.501350
11
35433.100000
21
51181.100000
0
LINE
8
Layer 1
10
51181.100000
20
35433.100000
11
51166.501350
21
35389.571097
0
LINE
8
Layer 1
10
51166.501350
20
35389.571097
11
51151.749388
21
35346.115786
0
LINE
8
Layer 1
10
51151.749388
20
35346.115786
11
51136.844428
21
35302.734381
0
LINE
8
Layer 1
10
51136.844428
20
35302.734381
11
51121.786784
21
35259.427196
0
LINE
8
Layer 1
10
51121.786784
20
35259.427196
11
51106.576771
21
35216.194546
0
LINE
8
Layer 1
10
51106.576771
20
35216.194546
11
51091.214701
21
35173.036743
0
LINE
8
Layer 1
10
51091.214701
20
35173.036743
11
51075.700888
21
35129.954101
0
LINE
8
Layer 1
10
51075.700888
20
35129.954101
11
51060.035647
21
35086.946935
0
LINE
8
Layer 1
10
51060.035647
20
35086.946935
11
51044.219292
21
35044.015558
0
LINE
8
Layer 1
10
51044.219292
20
35044.015558
11
51028.252136
21
35001.160285
0
LINE
8
Layer 1
10
51028.252136
20
35001.160285
11
51012.134493
21
34958.381428
0
LINE
8
Layer 1
10
51012.134493
20
34958.381428
11
50995.866676
21
34915.679302
0
LINE
8
Layer 1
10
50995.866676
20
34915.679302
11
50979.449001
21
34873.054221
0
LINE
8
Layer 1
10
50979.449001
20
34873.054221
11
50962.881780
21
34830.506499
0
LINE
8
Layer 1
10
50962.881780
20
34830.506499
11
50946.165328
21
34788.036449
0
LINE
8
Layer 1
10
50946.165328
20
34788.036449
11
50929.299957
21
34745.644385
0
LINE
8
Layer 1
10
50929.299957
20
34745.644385
11
50912.285984
21
34703.330621
0
LINE
8
Layer 1
10
50912.285984
20
34703.330621
11
50895.123720
21
34661.095472
0
LINE
8
Layer 1
10
50895.123720
20
34661.095472
11
50877.813480
21
34618.939250
0
LINE
8
Layer 1
10
50877.813480
20
34618.939250
11
50860.355578
21
34576.862270
0
LINE
8
Layer 1
10
50860.355578
20
34576.862270
11
50842.750327
21
34534.864845
0
LINE
8
Layer 1
10
50842.750327
20
34534.864845
11
50824.998042
21
34492.947290
0
LINE
8
Layer 1
10
50824.998042
20
34492.947290
11
50807.099037
21
34451.109919
0
LINE
8
Layer 1
10
50807.099037
20
34451.109919
11
50789.053624
21
34409.353044
0
LINE
8
Layer 1
10
50789.053624
20
34409.353044
11
50770.862119
21
34367.676980
0
LINE
8
Layer 1
10
50770.862119
20
34367.676980
11
50752.524834
21
34326.082042
0
LINE
8
Layer 1
10
50752.524834
20
34326.082042
11
50734.042084
21
34284.568541
0
LINE
8
Layer 1
10
50734.042084
20
34284.568541
11
50715.414183
21
34243.136794
0
LINE
8
Layer 1
10
50715.414183
20
34243.136794
11
50696.641444
21
34201.787113
0
LINE
8
Layer 1
10
50696.641444
20
34201.787113
11
50677.724182
21
34160.519812
0
LINE
8
Layer 1
10
50677.724182
20
34160.519812
11
50658.662710
21
34119.335205
0
LINE
8
Layer 1
10
50658.662710
20
34119.335205
11
50639.457342
21
34078.233606
0
LINE
8
Layer 1
10
50639.457342
20
34078.233606
11
50620.108391
21
34037.215329
0
LINE
8
Layer 1
10
50620.108391
20
34037.215329
11
50600.616173
21
33996.280688
0
LINE
8
Layer 1
10
50600.616173
20
33996.280688
11
50580.981000
21
33955.429996
0
LINE
8
Layer 1
10
50580.981000
20
33955.429996
11
50561.203186
21
33914.663568
0
LINE
8
Layer 1
10
50561.203186
20
33914.663568
11
50541.283046
21
33873.981717
0
LINE
8
Layer 1
10
50541.283046
20
33873.981717
11
50521.220893
21
33833.384757
0
LINE
8
Layer 1
10
50521.220893
20
33833.384757
11
50501.017041
21
33792.873002
0
LINE
8
Layer 1
10
50501.017041
20
33792.873002
11
50480.671804
21
33752.446766
0
LINE
8
Layer 1
10
50480.671804
20
33752.446766
11
50460.185496
21
33712.106362
0
LINE
8
Layer 1
10
50460.185496
20
33712.106362
11
50439.558430
21
33671.852105
0
LINE
8
Layer 1
10
50439.558430
20
33671.852105
11
50418.790920
21
33631.684309
0
LINE
8
Layer 1
10
50418.790920
20
33631.684309
11
50397.883281
21
33591.603286
0
LINE
8
Layer 1
10
50397.883281
20
33591.603286
11
50376.835826
21
33551.609352
0
LINE
8
Layer 1
10
50376.835826
20
33551.609352
11
50355.648869
21
33511.702820
0
LINE
8
Layer 1
10
50355.648869
20
33511.702820
11
50334.322724
21
33471.884003
0
LINE
8
Layer 1
10
50334.322724
20
33471.884003
11
50312.857705
21
33432.153216
0
LINE
8
Layer 1
10
50312.857705
20
33432.153216
11
50291.254125
21
33392.510773
0
LINE
8
Layer 1
10
50291.254125
20
33392.510773
11
50269.512299
21
33352.956987
0
LINE
8
Layer 1
10
50269.512299
20
33352.956987
11
50247.632540
21
33313.492173
0
LINE
8
Layer 1
10
50247.632540
20
33313.492173
11
50225.615162
21
33274.116643
0
LINE
8
Layer 1
10
50225.615162
20
33274.116643
11
50203.460479
21
33234.830712
0
LINE
8
Layer 1
10
50203.460479
20
33234.830712
11
50181.168805
21
33195.634695
0
LINE
8
Layer 1
10
50181.168805
20
33195.634695
11
50158.740454
21
33156.528903
0
LINE
8
Layer 1
10
50158.740454
20
33156.528903
11
50136.175739
21
33117.513653
0
LINE
8
Layer 1
10
50136.175739
20
33117.513653
11
50113.474975
21
33078.589256
0
LINE
8
Layer 1
10
50113.474975
20
33078.589256
11
50090.638475
21
33039.756028
0
LINE
8
Layer 1
10
50090.638475
20
33039.756028
11
50067.666553
21
33001.014282
0
LINE
8
Layer 1
10
50067.666553
20
33001.014282
11
50044.559523
21
32962.364332
0
LINE
8
Layer 1
10
50044.559523
20
32962.364332
11
50021.317699
21
32923.806492
0
LINE
8
Layer 1
10
50021.317699
20
32923.806492
11
49997.941395
21
32885.341075
0
LINE
8
Layer 1
10
49997.941395
20
32885.341075
11
49974.430924
21
32846.968396
0
LINE
8
Layer 1
10
49974.430924
20
32846.968396
11
49950.786601
21
32808.688768
0
LINE
8
Layer 1
10
49950.786601
20
32808.688768
11
49927.008738
21
32770.502506
0
LINE
8
Layer 1
10
49927.008738
20
32770.502506
11
49903.097651
21
32732.409922
0
LINE
8
Layer 1
10
49903.097651
20
32732.409922
11
49879.053653
21
32694.411332
0
LINE
8
Layer 1
10
49879.053653
20
32694.411332
11
49854.877058
21
32656.507048
0
LINE
8
Layer 1
10
49854.877058
20
32656.507048
11
49830.568180
21
32618.697385
0
LINE
8
Layer 1
10
49830.568180
20
32618.697385
11
49806.127332
21
32580.982656
0
LINE
8
Layer 1
10
49806.127332
20
32580.982656
11
49781.554828
21
32543.363176
0
LINE
8
Layer 1
10
49781.554828
20
32543.363176
11
49756.850983
21
32505.839258
0
LINE
8
Layer 1
10
49756.850983
20
32505.839258
11
49732.016110
21
32468.411216
0
LINE
8
Layer 1
10
49732.016110
20
32468.411216
11
49707.050523
21
32431.079363
0
LINE
8
Layer 1
10
49707.050523
20
32431.079363
11
49681.954535
21
32393.844015
0
LINE
8
Layer 1
10
49681.954535
20
32393.844015
11
49656.728461
21
32356.705484
0
LINE
8
Layer 1
10
49656.728461
20
32356.705484
11
49631.372615
21
32319.664085
0
LINE
8
Layer 1
10
49631.372615
20
32319.664085
11
49605.887311
21
32282.720131
0
LINE
8
Layer 1
10
49605.887311
20
32282.720131
11
49580.272861
21
32245.873936
0
LINE
8
Layer 1
10
49580.272861
20
32245.873936
11
49554.529581
21
32209.125815
0
LINE
8
Layer 1
10
49554.529581
20
32209.125815
11
49528.657783
21
32172.476080
0
LINE
8
Layer 1
10
49528.657783
20
32172.476080
11
49502.657782
21
32135.925046
0
LINE
8
Layer 1
10
49502.657782
20
32135.925046
11
49476.529892
21
32099.473026
0
LINE
8
Layer 1
10
49476.529892
20
32099.473026
11
49450.274427
21
32063.120335
0
LINE
8
Layer 1
10
49450.274427
20
32063.120335
11
49423.891700
21
32026.867287
0
LINE
8
Layer 1
10
49423.891700
20
32026.867287
11
49397.382025
21
31990.714194
0
LINE
8
Layer 1
10
49397.382025
20
31990.714194
11
49370.745716
21
31954.661372
0
LINE
8
Layer 1
10
49370.745716
20
31954.661372
11
49343.983088
21
31918.709133
0
LINE
8
Layer 1
10
49343.983088
20
31918.709133
11
49317.094453
21
31882.857792
0
LINE
8
Layer 1
10
49317.094453
20
31882.857792
11
49290.080125
21
31847.107663
0
LINE
8
Layer 1
10
49290.080125
20
31847.107663
11
49262.940419
21
31811.459060
0
LINE
8
Layer 1
10
49262.940419
20
31811.459060
11
49235.675649
21
31775.912295
0
LINE
8
Layer 1
10
49235.675649
20
31775.912295
11
49208.286128
21
31740.467684
0
LINE
8
Layer 1
10
49208.286128
20
31740.467684
11
49180.772170
21
31705.125540
0
LINE
8
Layer 1
10
49180.772170
20
31705.125540
11
49153.134088
21
31669.886176
0
LINE
8
Layer 1
10
49153.134088
20
31669.886176
11
49125.372198
21
31634.749908
0
LINE
8
Layer 1
10
49125.372198
20
31634.749908
11
49097.486812
21
31599.717048
0
LINE
8
Layer 1
10
49097.486812
20
31599.717048
11
49069.478245
21
31564.787910
0
LINE
8
Layer 1
10
49069.478245
20
31564.787910
11
49041.346810
21
31529.962809
0
LINE
8
Layer 1
10
49041.346810
20
31529.962809
11
49013.092821
21
31495.242058
0
LINE
8
Layer 1
10
49013.092821
20
31495.242058
11
48984.716593
21
31460.625971
0
LINE
8
Layer 1
10
48984.716593
20
31460.625971
11
48956.218438
21
31426.114861
0
LINE
8
Layer 1
10
48956.218438
20
31426.114861
11
48927.598671
21
31391.709044
0
LINE
8
Layer 1
10
48927.598671
20
31391.709044
11
48898.857606
21
31357.408832
0
LINE
8
Layer 1
10
48898.857606
20
31357.408832
11
48869.995556
21
31323.214540
0
LINE
8
Layer 1
10
48869.995556
20
31323.214540
11
48841.012835
21
31289.126480
0
LINE
8
Layer 1
10
48841.012835
20
31289.126480
11
48811.909758
21
31255.144968
0
LINE
8
Layer 1
10
48811.909758
20
31255.144968
11
48782.686638
21
31221.270317
0
LINE
8
Layer 1
10
48782.686638
20
31221.270317
11
48753.343789
21
31187.502841
0
LINE
8
Layer 1
10
48753.343789
20
31187.502841
11
48723.881524
21
31153.842854
0
LINE
8
Layer 1
10
48723.881524
20
31153.842854
11
48694.300158
21
31120.290669
0
LINE
8
Layer 1
10
48694.300158
20
31120.290669
11
48664.600005
21
31086.846600
0
LINE
8
Layer 1
10
48664.600005
20
31086.846600
11
48634.781378
21
31053.510962
0
LINE
8
Layer 1
10
48634.781378
20
31053.510962
11
48604.844591
21
31020.284068
0
LINE
8
Layer 1
10
48604.844591
20
31020.284068
11
48574.789958
21
30987.166232
0
LINE
8
Layer 1
10
48574.789958
20
30987.166232
11
48544.617793
21
30954.157768
0
LINE
8
Layer 1
10
48544.617793
20
30954.157768
11
48514.328410
21
30921.258989
0
LINE
8
Layer 1
10
48514.328410
20
30921.258989
11
48483.922123
21
30888.470211
0
LINE
8
Layer 1
10
48483.922123
20
30888.470211
11
48453.399245
21
30855.791745
0
LINE
8
Layer 1
10
48453.399245
20
30855.791745
11
48422.760090
21
30823.223907
0
LINE
8
Layer 1
10
48422.760090
20
30823.223907
11
48392.004973
21
30790.767010
0
LINE
8
Layer 1
10
48392.004973
20
30790.767010
11
48361.134206
21
30758.421367
0
LINE
8
Layer 1
10
48361.134206
20
30758.421367
11
48330.148104
21
30726.187294
0
LINE
8
Layer 1
10
48330.148104
20
30726.187294
11
48299.046982
21
30694.065104
0
LINE
8
Layer 1
10
48299.046982
20
30694.065104
11
48267.831151
21
30662.055110
0
LINE
8
Layer 1
10
48267.831151
20
30662.055110
11
48236.500928
21
30630.157626
0
LINE
8
Layer 1
10
48236.500928
20
30630.157626
11
48205.056624
21
30598.372967
0
LINE
8
Layer 1
10
48205.056624
20
30598.372967
11
48173.498555
21
30566.701445
0
LINE
8
Layer 1
10
48173.498555
20
30566.701445
11
48141.827033
21
30535.143376
0
LINE
8
Layer 1
10
48141.827033
20
30535.143376
11
48110.042374
21
30503.699072
0
LINE
8
Layer 1
10
48110.042374
20
30503.699072
11
48078.144890
21
30472.368849
0
LINE
8
Layer 1
10
48078.144890
20
30472.368849
11
48046.134896
21
30441.153018
0
LINE
8
Layer 1
10
48046.134896
20
30441.153018
11
48014.012706
21
30410.051896
0
LINE
8
Layer 1
10
48014.012706
20
30410.051896
11
47981.778633
21
30379.065794
0
LINE
8
Layer 1
10
47981.778633
20
30379.065794
11
47949.432990
21
30348.195027
0
LINE
8
Layer 1
10
47949.432990
20
30348.195027
11
47916.976093
21
30317.439910
0
LINE
8
Layer 1
10
47916.976093
20
30317.439910
11
47884.408255
21
30286.800755
0
LINE
8
Layer 1
10
47884.408255
20
30286.800755
11
47851.729789
21
30256.277877
0
LINE
8
Layer 1
10
47851.729789
20
30256.277877
11
47818.941011
21
30225.871590
0
LINE
8
Layer 1
10
47818.941011
20
30225.871590
11
47786.042232
21
30195.582207
0
LINE
8
Layer 1
10
47786.042232
20
30195.582207
11
47753.033768
21
30165.410042
0
LINE
8
Layer 1
10
47753.033768
20
30165.410042
11
47719.915932
21
30135.355409
0
LINE
8
Layer 1
10
47719.915932
20
30135.355409
11
47686.689038
21
30105.418622
0
LINE
8
Layer 1
10
47686.689038
20
30105.418622
11
47653.353400
21
30075.599995
0
LINE
8
Layer 1
10
47653.353400
20
30075.599995
11
47619.909331
21
30045.899842
0
LINE
8
Layer 1
10
47619.909331
20
30045.899842
11
47586.357146
21
30016.318476
0
LINE
8
Layer 1
10
47586.357146
20
30016.318476
11
47552.697159
21
29986.856211
0
LINE
8
Layer 1
10
47552.697159
20
29986.856211
11
47518.929683
21
29957.513362
0
LINE
8
Layer 1
10
47518.929683
20
29957.513362
11
47485.055032
21
29928.290242
0
LINE
8
Layer 1
10
47485.055032
20
29928.290242
11
47451.073520
21
29899.187165
0
LINE
8
Layer 1
10
47451.073520
20
29899.187165
11
47416.985460
21
29870.204444
0
LINE
8
Layer 1
10
47416.985460
20
29870.204444
11
47382.791168
21
29841.342394
0
LINE
8
Layer 1
10
47382.791168
20
29841.342394
11
47348.490956
21
29812.601329
0
LINE
8
Layer 1
10
47348.490956
20
29812.601329
11
47314.085139
21
29783.981562
0
LINE
8
Layer 1
10
47314.085139
20
29783.981562
11
47279.574029
21
29755.483407
0
LINE
8
Layer 1
10
47279.574029
20
29755.483407
11
47244.957942
21
29727.107179
0
LINE
8
Layer 1
10
47244.957942
20
29727.107179
11
47210.237191
21
29698.853190
0
LINE
8
Layer 1
10
47210.237191
20
29698.853190
11
47175.412090
21
29670.721755
0
LINE
8
Layer 1
10
47175.412090
20
29670.721755
11
47140.482952
21
29642.713188
0
LINE
8
Layer 1
10
47140.482952
20
29642.713188
11
47105.450092
21
29614.827802
0
LINE
8
Layer 1
10
47105.450092
20
29614.827802
11
47070.313824
21
29587.065912
0
LINE
8
Layer 1
10
47070.313824
20
29587.065912
11
47035.074460
21
29559.427830
0
LINE
8
Layer 1
10
47035.074460
20
29559.427830
11
46999.732316
21
29531.913872
0
LINE
8
Layer 1
10
46999.732316
20
29531.913872
11
46964.287705
21
29504.524351
0
LINE
8
Layer 1
10
46964.287705
20
29504.524351
11
46928.740940
21
29477.259581
0
LINE
8
Layer 1
10
46928.740940
20
29477.259581
11
46893.092337
21
29450.119875
0
LINE
8
Layer 1
10
46893.092337
20
29450.119875
11
46857.342208
21
29423.105547
0
LINE
8
Layer 1
10
46857.342208
20
29423.105547
11
46821.490867
21
29396.216912
0
LINE
8
Layer 1
10
46821.490867
20
29396.216912
11
46785.538628
21
29369.454284
0
LINE
8
Layer 1
10
46785.538628
20
29369.454284
11
46749.485806
21
29342.817975
0
LINE
8
Layer 1
10
46749.485806
20
29342.817975
11
46713.332713
21
29316.308300
0
LINE
8
Layer 1
10
46713.332713
20
29316.308300
11
46677.079665
21
29289.925573
0
LINE
8
Layer 1
10
46677.079665
20
29289.925573
11
46640.726974
21
29263.670108
0
LINE
8
Layer 1
10
46640.726974
20
29263.670108
11
46604.274954
21
29237.542218
0
LINE
8
Layer 1
10
46604.274954
20
29237.542218
11
46567.723920
21
29211.542217
0
LINE
8
Layer 1
10
46567.723920
20
29211.542217
11
46531.074185
21
29185.670419
0
LINE
8
Layer 1
10
46531.074185
20
29185.670419
11
46494.326064
21
29159.927139
0
LINE
8
Layer 1
10
46494.326064
20
29159.927139
11
46457.479869
21
29134.312689
0
LINE
8
Layer 1
10
46457.479869
20
29134.312689
11
46420.535915
21
29108.827385
0
LINE
8
Layer 1
10
46420.535915
20
29108.827385
11
46383.494516
21
29083.471539
0
LINE
8
Layer 1
10
46383.494516
20
29083.471539
11
46346.355985
21
29058.245465
0
LINE
8
Layer 1
10
46346.355985
20
29058.245465
11
46309.120637
21
29033.149477
0
LINE
8
Layer 1
10
46309.120637
20
29033.149477
11
46271.788784
21
29008.183890
0
LINE
8
Layer 1
10
46271.788784
20
29008.183890
11
46234.360742
21
28983.349017
0
LINE
8
Layer 1
10
46234.360742
20
28983.349017
11
46196.836824
21
28958.645172
0
LINE
8
Layer 1
10
46196.836824
20
28958.645172
11
46159.217344
21
28934.072668
0
LINE
8
Layer 1
10
46159.217344
20
28934.072668
11
46121.502615
21
28909.631820
0
LINE
8
Layer 1
10
46121.502615
20
28909.631820
11
46083.692952
21
28885.322942
0
LINE
8
Layer 1
10
46083.692952
20
28885.322942
11
46045.788668
21
28861.146347
0
LINE
8
Layer 1
10
46045.788668
20
28861.146347
11
46007.790078
21
28837.102349
0
LINE
8
Layer 1
10
46007.790078
20
28837.102349
11
45969.697494
21
28813.191262
0
LINE
8
Layer 1
10
45969.697494
20
28813.191262
11
45931.511232
21
28789.413399
0
LINE
8
Layer 1
10
45931.511232
20
28789.413399
11
45893.231604
21
28765.769076
0
LINE
8
Layer 1
10
45893.231604
20
28765.769076
11
45854.858925
21
28742.258605
0
LINE
8
Layer 1
10
45854.858925
20
28742.258605
11
45816.393508
21
28718.882301
0
LINE
8
Layer 1
10
45816.393508
20
28718.882301
11
45777.835668
21
28695.640477
0
LINE
8
Layer 1
10
45777.835668
20
28695.640477
11
45739.185718
21
28672.533447
0
LINE
8
Layer 1
10
45739.185718
20
28672.533447
11
45700.443972
21
28649.561525
0
LINE
8
Layer 1
10
45700.443972
20
28649.561525
11
45661.610744
21
28626.725025
0
LINE
8
Layer 1
10
45661.610744
20
28626.725025
11
45622.686347
21
28604.024261
0
LINE
8
Layer 1
10
45622.686347
20
28604.024261
11
45583.671097
21
28581.459546
0
LINE
8
Layer 1
10
45583.671097
20
28581.459546
11
45544.565305
21
28559.031195
0
LINE
8
Layer 1
10
45544.565305
20
28559.031195
11
45505.369288
21
28536.739521
0
LINE
8
Layer 1
10
45505.369288
20
28536.739521
11
45466.083357
21
28514.584838
0
LINE
8
Layer 1
10
45466.083357
20
28514.584838
11
45426.707827
21
28492.567460
0
LINE
8
Layer 1
10
45426.707827
20
28492.567460
11
45387.243013
21
28470.687701
0
LINE
8
Layer 1
10
45387.243013
20
28470.687701
11
45347.689227
21
28448.945875
0
LINE
8
Layer 1
10
45347.689227
20
28448.945875
11
45308.046784
21
28427.342295
0
LINE
8
Layer 1
10
45308.046784
20
28427.342295
11
45268.315997
21
28405.877276
0
LINE
8
Layer 1
10
45268.315997
20
28405.877276
11
45228.497180
21
28384.551131
0
LINE
8
Layer 1
10
45228.497180
20
28384.551131
11
45188.590648
21
28363.364174
0
LINE
8
Layer 1
10
45188.590648
20
28363.364174
11
45148.596714
21
28342.316719
0
LINE
8
Layer 1
10
45148.596714
20
28342.316719
11
45108.515691
21
28321.409080
0
LINE
8
Layer 1
10
45108.515691
20
28321.409080
11
45068.347895
21
28300.641570
0
LINE
8
Layer 1
10
45068.347895
20
28300.641570
11
45028.093638
21
28280.014504
0
LINE
8
Layer 1
10
45028.093638
20
28280.014504
11
44987.753234
21
28259.528196
0
LINE
8
Layer 1
10
44987.753234
20
28259.528196
11
44947.326998
21
28239.182959
0
LINE
8
Layer 1
10
44947.326998
20
28239.182959
11
44906.815243
21
28218.979107
0
LINE
8
Layer 1
10
44906.815243
20
28218.979107
11
44866.218283
21
28198.916954
0
LINE
8
Layer 1
10
44866.218283
20
28198.916954
11
44825.536432
21
28178.996814
0
LINE
8
Layer 1
10
44825.536432
20
28178.996814
11
44784.770004
21
28159.219000
0
LINE
8
Layer 1
10
44784.770004
20
28159.219000
11
44743.919312
21
28139.583827
0
LINE
8
Layer 1
10
44743.919312
20
28139.583827
11
44702.984671
21
28120.091609
0
LINE
8
Layer 1
10
44702.984671
20
28120.091609
11
44661.966394
21
28100.742658
0
LINE
8
Layer 1
10
44661.966394
20
28100.742658
11
44620.864795
21
28081.537290
0
LINE
8
Layer 1
10
44620.864795
20
28081.537290
11
44579.680188
21
28062.475818
0
LINE
8
Layer 1
10
44579.680188
20
28062.475818
11
44538.412887
21
28043.558556
0
LINE
8
Layer 1
10
44538.412887
20
28043.558556
11
44497.063206
21
28024.785817
0
LINE
8
Layer 1
10
44497.063206
20
28024.785817
11
44455.631459
21
28006.157916
0
LINE
8
Layer 1
10
44455.631459
20
28006.157916
11
44414.117958
21
27987.675166
0
LINE
8
Layer 1
10
44414.117958
20
27987.675166
11
44372.523020
21
27969.337881
0
LINE
8
Layer 1
10
44372.523020
20
27969.337881
11
44330.846956
21
27951.146376
0
LINE
8
Layer 1
10
44330.846956
20
27951.146376
11
44289.090081
21
27933.100963
0
LINE
8
Layer 1
10
44289.090081
20
27933.100963
11
44247.252710
21
27915.201958
0
LINE
8
Layer 1
10
44247.252710
20
27915.201958
11
44205.335155
21
27897.449673
0
LINE
8
Layer 1
10
44205.335155
20
27897.449673
11
44163.337730
21
27879.844422
0
LINE
8
Layer 1
10
44163.337730
20
27879.844422
11
44121.260750
21
27862.386520
0
LINE
8
Layer 1
10
44121.260750
20
27862.386520
11
44079.104528
21
27845.076280
0
LINE
8
Layer 1
10
44079.104528
20
27845.076280
11
44036.869379
21
27827.914016
0
LINE
8
Layer 1
10
44036.869379
20
27827.914016
11
43994.555615
21
27810.900043
0
LINE
8
Layer 1
10
43994.555615
20
27810.900043
11
43952.163551
21
27794.034672
0
LINE
8
Layer 1
10
43952.163551
20
27794.034672
11
43909.693501
21
27777.318220
0
LINE
8
Layer 1
10
43909.693501
20
27777.318220
11
43867.145779
21
27760.750999
0
LINE
8
Layer 1
10
43867.145779
20
27760.750999
11
43824.520698
21
27744.333324
0
LINE
8
Layer 1
10
43824.520698
20
27744.333324
11
43781.818572
21
27728.065507
0
LINE
8
Layer 1
10
43781.818572
20
27728.065507
11
43739.039715
21
27711.947864
0
LINE
8
Layer 1
10
43739.039715
20
27711.947864
11
43696.184442
21
27695.980708
0
LINE
8
Layer 1
10
43696.184442
20
27695.980708
11
43653.253065
21
27680.164353
0
LINE
8
Layer 1
10
43653.253065
20
27680.164353
11
43610.245899
21
27664.499112
0
LINE
8
Layer 1
10
43610.245899
20
27664.499112
11
43567.163257
21
27648.985299
0
LINE
8
Layer 1
10
43567.163257
20
27648.985299
11
43524.005454
21
27633.623229
0
LINE
8
Layer 1
10
43524.005454
20
27633.623229
11
43480.772804
21
27618.413216
0
LINE
8
Layer 1
10
43480.772804
20
27618.413216
11
43437.465619
21
27603.355572
0
LINE
8
Layer 1
10
43437.465619
20
27603.355572
11
43394.084214
21
27588.450612
0
LINE
8
Layer 1
10
43394.084214
20
27588.450612
11
43350.628903
21
27573.698650
0
LINE
8
Layer 1
10
43350.628903
20
27573.698650
11
43307.100000
21
27559.100000
 0 
ENDSEC
 0 
EOF