%TF.GenerationSoftware,KiCad,Pcbnew,(5.1.6)-1*%
%TF.CreationDate,2020-08-06T18:29:29-04:00*%
%TF.ProjectId,RingLight,52696e67-4c69-4676-9874-2e6b69636164,rev?*%
%TF.SameCoordinates,Original*%
%TF.FileFunction,Legend,Bot*%
%TF.FilePolarity,Positive*%
%FSLAX46Y46*%
G04 Gerber Fmt 4.6, Leading zero omitted, Abs format (unit mm)*
G04 Created by KiCad (PCBNEW (5.1.6)-1) date 2020-08-06 18:29:29*
%MOMM*%
%LPD*%
G01*
G04 APERTURE LIST*
%ADD10C,0.120000*%
G04 APERTURE END LIST*
D10*
X95000000Y-133000000D02*
X95000000Y-134000000D01*
X95500000Y-133500000D02*
X94500000Y-133500000D01*
X104500000Y-133500000D02*
X105500000Y-133500000D01*
%TO.C,J1*%
X104100000Y-130750000D02*
X104100000Y-132000000D01*
X102850000Y-130750000D02*
X104100000Y-130750000D01*
X96950000Y-136250000D02*
X100000000Y-136250000D01*
X96950000Y-133300000D02*
X96950000Y-136250000D01*
X96200000Y-133300000D02*
X96950000Y-133300000D01*
X103050000Y-136250000D02*
X100000000Y-136250000D01*
X103050000Y-133300000D02*
X103050000Y-136250000D01*
X103800000Y-133300000D02*
X103050000Y-133300000D01*
X96200000Y-131050000D02*
X98000000Y-131050000D01*
X96200000Y-131800000D02*
X96200000Y-131050000D01*
X98000000Y-131800000D02*
X96200000Y-131800000D01*
X98000000Y-131050000D02*
X98000000Y-131800000D01*
X102000000Y-131050000D02*
X103800000Y-131050000D01*
X102000000Y-131800000D02*
X102000000Y-131050000D01*
X103800000Y-131800000D02*
X102000000Y-131800000D01*
X103800000Y-131050000D02*
X103800000Y-131800000D01*
X99500000Y-131050000D02*
X100500000Y-131050000D01*
X99500000Y-131800000D02*
X99500000Y-131050000D01*
X100500000Y-131800000D02*
X99500000Y-131800000D01*
X100500000Y-131050000D02*
X100500000Y-131800000D01*
X96190000Y-131040000D02*
X103810000Y-131040000D01*
X96190000Y-137010000D02*
X96190000Y-131040000D01*
X103810000Y-137010000D02*
X96190000Y-137010000D01*
X103810000Y-131040000D02*
X103810000Y-137010000D01*
%TD*%
M02*
