<?xml version="1.0" standalone="no"?>
 <!DOCTYPE svg PUBLIC "-//W3C//DTD SVG 1.1//EN" 
 "http://www.w3.org/Graphics/SVG/1.1/DTD/svg11.dtd"> 
<svg
  xmlns:svg="http://www.w3.org/2000/svg"
  xmlns="http://www.w3.org/2000/svg"
  xmlns:xlink="http://www.w3.org/1999/xlink"
  version="1.1"
  width="29.700220cm" height="21.000720cm" viewBox="0 0 116930 82680">
<title>SVG Picture created as RingLight-Edge_Cuts.svg date 2020/08/06 19:39:07 </title>
  <desc>Picture generated by PCBNEW </desc>
<g style="fill:#000000; fill-opacity:1;stroke:#000000; stroke-opacity:1;
stroke-linecap:round; stroke-linejoin:round;"
 transform="translate(0 0) scale(1 1)">
</g>
<g style="fill:#000000; fill-opacity:0.0; 
stroke:#000000; stroke-width:-0.000393701; stroke-opacity:1; 
stroke-linecap:round; stroke-linejoin:round;">
</g>
<g style="fill:#000000; fill-opacity:0.0; 
stroke:#000000; stroke-width:19.685; stroke-opacity:1; 
stroke-linecap:round; stroke-linejoin:round;">
<path d="M43307 53937
L43307 51181
" />
<path d="M35433 53937
L43307 53937
" />
<path d="M35433 51181
L35433 53937
" />
<path d="M54330 43307
L51181 43307
" />
<path d="M54330 35433
L54330 43307
" />
<path d="M51181 35433
L54330 35433
" />
<path d="M24409 43307
L27559 43307
" />
<path d="M24409 35433
L24409 43307
" />
<path d="M27559 35433
L24409 35433
" />
<path d="M35433.1 27559.1 A12449.9 12449.9 0.0 0 0 27559.1 35433.1" />
<path d="M43307 24409
L43307 27559
" />
<path d="M35433 24409
L43307 24409
" />
<path d="M35433 27559
L35433 24409
" />
<path d="M43307.1 51181.1 A12449.9 12449.9 0.0 0 0 51181.1 43307.1" />
<path d="M27559.1 43307.1 A12449.9 12449.9 0.0 0 0 35433.1 51181.1" />
<path d="M51181.1 35433.1 A12449.9 12449.9 0.0 0 0 43307.1 27559.1" />
<circle cx="39370.1" cy="39370.1" r="9063.67" /> 
<g >
</g>
<g >
</g>
<g >
</g>
<g >
</g>
<g >
</g>
<g >
</g>
<g >
</g>
<g >
</g>
<g >
</g>
<g >
</g>
<g >
</g>
<g >
</g>
<g >
</g>
<g >
</g>
<g >
</g>
<g >
</g>
<g >
</g>
<g >
</g>
<g >
</g>
<g >
</g>
<g >
</g>
<g >
</g>
<g >
</g>
<g >
</g>
<g >
</g>
<g >
</g>
<g >
</g>
<g >
</g>
<g >
</g>
<g >
</g>
<g >
</g>
<g >
</g>
<g >
</g>
<g >
</g>
<g >
</g>
<g >
</g>
</g> 
</svg>
