  0
SECTION
  2
HEADER
  9
$ANGBASE
  50
0.0
  9
$ANGDIR
  70
1
  9
$MEASUREMENT
  70
0
  0
ENDSEC
  0
SECTION
  2
TABLES
  0
TABLE
  2
LTYPE
  70
4
  0
LTYPE
  5
40F
  2
CONTINUOUS
  70
0
  3
Solid line
  72
65
  73
0
  40
0.0
  0
LTYPE
  5
410
  2
DASHDOT
 70
0
  3
Dash Dot ____ _ ____ _
 72
65
 73
4
 40
2.0
 49
1.25
 49
-0.25
 49
0.25
 49
-0.25
  0
LTYPE
  5
411
  2
DASHED
 70
0
  3
Dashed __ __ __ __ __
 72
65
 73
2
 40
0.75
 49
0.5
 49
-0.25
  0
LTYPE
  5
43B
  2
DOTTED
 70
0
  3
Dotted .  .  .  .
 72
65
 73
2
 40
0.2
 49
0.0
 49
-0.2
  0
ENDTAB
  0
TABLE
  2
STYLE
  70
4
  0
STYLE
  2
KICAD
  70
0
  40
0
  41
1
  42
1
  50
0
  71
0
  3
isocp.shx
  0
STYLE
  2
KICADB
  70
0
  40
0
  41
1
  42
1
  50
0
  71
0
  3
isocp.shx
  0
STYLE
  2
KICADI
  70
0
  40
0
  41
1
  42
1
  50
15
  71
0
  3
isocp.shx
  0
STYLE
  2
KICADBI
  70
0
  40
0
  41
1
  42
1
  50
15
  71
0
  3
isocp.shx
  0
ENDTAB
  0
TABLE
  2
LAYER
  70
1
  0
LAYER
  2
BLACK
  70
0
  62
7
  6
CONTINUOUS
  0
ENDTAB
  0
ENDSEC
  0
SECTION
  2
ENTITIES
0
LINE
8
BLACK
6
CONTINUOUS
10
4.33076
20
-2.43996
11
4.33076
21
-2.43996
0
LINE
8
BLACK
6
CONTINUOUS
10
4.33076
20
-2.43996
11
4.3309
21
-2.43997
0
LINE
8
BLACK
6
CONTINUOUS
10
4.3309
20
-2.43997
11
4.33109
21
-2.44003
0
LINE
8
BLACK
6
CONTINUOUS
10
4.33109
20
-2.44003
11
4.33126
21
-2.44012
0
LINE
8
BLACK
6
CONTINUOUS
10
4.33126
20
-2.44012
11
4.33141
21
-2.44025
0
LINE
8
BLACK
6
CONTINUOUS
10
4.33141
20
-2.44025
11
4.33153
21
-2.4404
0
LINE
8
BLACK
6
CONTINUOUS
10
4.33153
20
-2.4404
11
4.33162
21
-2.44057
0
LINE
8
BLACK
6
CONTINUOUS
10
4.33162
20
-2.44057
11
4.33168
21
-2.44075
0
LINE
8
BLACK
6
CONTINUOUS
10
4.33168
20
-2.44075
11
4.3317
21
-2.44094
0
LINE
8
BLACK
6
CONTINUOUS
10
4.3317
20
-2.44094
11
4.33169
21
-2.44099
0
LINE
8
BLACK
6
CONTINUOUS
10
4.33169
20
-2.44099
11
4.33169
21
-2.75522
0
LINE
8
BLACK
6
CONTINUOUS
10
4.33169
20
-2.75522
11
4.41248
21
-2.78532
0
LINE
8
BLACK
6
CONTINUOUS
10
4.41248
20
-2.78532
11
4.41255
21
-2.78535
0
LINE
8
BLACK
6
CONTINUOUS
10
4.41255
20
-2.78535
11
4.49166
21
-2.8213
0
LINE
8
BLACK
6
CONTINUOUS
10
4.49166
20
-2.8213
11
4.49172
21
-2.82133
0
LINE
8
BLACK
6
CONTINUOUS
10
4.49172
20
-2.82133
11
4.56814
21
-2.8627
0
LINE
8
BLACK
6
CONTINUOUS
10
4.56814
20
-2.8627
11
4.5682
21
-2.86274
0
LINE
8
BLACK
6
CONTINUOUS
10
4.5682
20
-2.86274
11
4.64154
21
-2.90935
0
LINE
8
BLACK
6
CONTINUOUS
10
4.64154
20
-2.90935
11
4.6416
21
-2.90939
0
LINE
8
BLACK
6
CONTINUOUS
10
4.6416
20
-2.90939
11
4.71151
21
-2.961
0
LINE
8
BLACK
6
CONTINUOUS
10
4.71151
20
-2.961
11
4.71156
21
-2.96104
0
LINE
8
BLACK
6
CONTINUOUS
10
4.71156
20
-2.96104
11
4.77771
21
-3.0174
0
LINE
8
BLACK
6
CONTINUOUS
10
4.77771
20
-3.0174
11
4.77776
21
-3.01745
0
LINE
8
BLACK
6
CONTINUOUS
10
4.77776
20
-3.01745
11
4.77776
21
-3.01745
0
LINE
8
BLACK
6
CONTINUOUS
10
4.77776
20
-3.01745
11
4.83981
21
-3.07828
0
LINE
8
BLACK
6
CONTINUOUS
10
4.83981
20
-3.07828
11
4.83984
21
-3.07832
0
LINE
8
BLACK
6
CONTINUOUS
10
4.83984
20
-3.07832
11
4.83986
21
-3.07833
0
LINE
8
BLACK
6
CONTINUOUS
10
4.83986
20
-3.07833
11
4.89751
21
-3.14335
0
LINE
8
BLACK
6
CONTINUOUS
10
4.89751
20
-3.14335
11
4.89755
21
-3.14341
0
LINE
8
BLACK
6
CONTINUOUS
10
4.89755
20
-3.14341
11
4.95053
21
-3.21229
0
LINE
8
BLACK
6
CONTINUOUS
10
4.95053
20
-3.21229
11
4.95057
21
-3.21234
0
LINE
8
BLACK
6
CONTINUOUS
10
4.95057
20
-3.21234
11
4.99862
21
-3.28475
0
LINE
8
BLACK
6
CONTINUOUS
10
4.99862
20
-3.28475
11
4.99865
21
-3.2848
0
LINE
8
BLACK
6
CONTINUOUS
10
4.99865
20
-3.2848
11
4.99865
21
-3.28481
0
LINE
8
BLACK
6
CONTINUOUS
10
4.99865
20
-3.28481
11
5.04153
21
-3.3604
0
LINE
8
BLACK
6
CONTINUOUS
10
5.04153
20
-3.3604
11
5.04156
21
-3.36046
0
LINE
8
BLACK
6
CONTINUOUS
10
5.04156
20
-3.36046
11
5.07906
21
-3.43885
0
LINE
8
BLACK
6
CONTINUOUS
10
5.07906
20
-3.43885
11
5.07909
21
-3.43891
0
LINE
8
BLACK
6
CONTINUOUS
10
5.07909
20
-3.43891
11
5.11103
21
-3.51973
0
LINE
8
BLACK
6
CONTINUOUS
10
5.11103
20
-3.51973
11
5.11104
21
-3.51975
0
LINE
8
BLACK
6
CONTINUOUS
10
5.11104
20
-3.51975
11
5.11105
21
-3.51977
0
LINE
8
BLACK
6
CONTINUOUS
10
5.11105
20
-3.51977
11
5.11881
21
-3.54232
0
LINE
8
BLACK
6
CONTINUOUS
10
5.11881
20
-3.54232
11
5.43302
21
-3.54232
0
LINE
8
BLACK
6
CONTINUOUS
10
5.43302
20
-3.54232
11
5.43307
21
-3.54232
0
LINE
8
BLACK
6
CONTINUOUS
10
5.43307
20
-3.54232
11
5.43326
21
-3.54234
0
LINE
8
BLACK
6
CONTINUOUS
10
5.43326
20
-3.54234
11
5.43345
21
-3.54239
0
LINE
8
BLACK
6
CONTINUOUS
10
5.43345
20
-3.54239
11
5.43362
21
-3.54248
0
LINE
8
BLACK
6
CONTINUOUS
10
5.43362
20
-3.54248
11
5.43377
21
-3.54261
0
LINE
8
BLACK
6
CONTINUOUS
10
5.43377
20
-3.54261
11
5.43389
21
-3.54276
0
LINE
8
BLACK
6
CONTINUOUS
10
5.43389
20
-3.54276
11
5.43398
21
-3.54293
0
LINE
8
BLACK
6
CONTINUOUS
10
5.43398
20
-3.54293
11
5.43404
21
-3.54311
0
LINE
8
BLACK
6
CONTINUOUS
10
5.43404
20
-3.54311
11
5.43406
21
-3.54326
0
LINE
8
BLACK
6
CONTINUOUS
10
5.43406
20
-3.54326
11
5.43406
21
-3.54326
0
LINE
8
BLACK
6
CONTINUOUS
10
5.43406
20
-3.54326
11
5.43406
21
-3.54331
0
LINE
8
BLACK
6
CONTINUOUS
10
5.43406
20
-3.54331
11
5.43406
21
-3.54335
0
LINE
8
BLACK
6
CONTINUOUS
10
5.43406
20
-3.54335
11
5.43406
21
-4.33066
0
LINE
8
BLACK
6
CONTINUOUS
10
5.43406
20
-4.33066
11
5.43406
21
-4.33071
0
LINE
8
BLACK
6
CONTINUOUS
10
5.43406
20
-4.33071
11
5.43406
21
-4.33076
0
LINE
8
BLACK
6
CONTINUOUS
10
5.43406
20
-4.33076
11
5.43404
21
-4.3309
0
LINE
8
BLACK
6
CONTINUOUS
10
5.43404
20
-4.3309
11
5.43398
21
-4.33109
0
LINE
8
BLACK
6
CONTINUOUS
10
5.43398
20
-4.33109
11
5.43389
21
-4.33126
0
LINE
8
BLACK
6
CONTINUOUS
10
5.43389
20
-4.33126
11
5.43377
21
-4.33141
0
LINE
8
BLACK
6
CONTINUOUS
10
5.43377
20
-4.33141
11
5.43362
21
-4.33153
0
LINE
8
BLACK
6
CONTINUOUS
10
5.43362
20
-4.33153
11
5.43345
21
-4.33162
0
LINE
8
BLACK
6
CONTINUOUS
10
5.43345
20
-4.33162
11
5.43326
21
-4.33168
0
LINE
8
BLACK
6
CONTINUOUS
10
5.43326
20
-4.33168
11
5.43307
21
-4.3317
0
LINE
8
BLACK
6
CONTINUOUS
10
5.43307
20
-4.3317
11
5.43302
21
-4.33169
0
LINE
8
BLACK
6
CONTINUOUS
10
5.43302
20
-4.33169
11
5.11879
21
-4.33169
0
LINE
8
BLACK
6
CONTINUOUS
10
5.11879
20
-4.33169
11
5.08869
21
-4.41248
0
LINE
8
BLACK
6
CONTINUOUS
10
5.08869
20
-4.41248
11
5.08867
21
-4.41255
0
LINE
8
BLACK
6
CONTINUOUS
10
5.08867
20
-4.41255
11
5.05272
21
-4.49166
0
LINE
8
BLACK
6
CONTINUOUS
10
5.05272
20
-4.49166
11
5.05269
21
-4.49172
0
LINE
8
BLACK
6
CONTINUOUS
10
5.05269
20
-4.49172
11
5.01131
21
-4.56814
0
LINE
8
BLACK
6
CONTINUOUS
10
5.01131
20
-4.56814
11
5.01128
21
-4.5682
0
LINE
8
BLACK
6
CONTINUOUS
10
5.01128
20
-4.5682
11
4.96467
21
-4.64154
0
LINE
8
BLACK
6
CONTINUOUS
10
4.96467
20
-4.64154
11
4.96463
21
-4.6416
0
LINE
8
BLACK
6
CONTINUOUS
10
4.96463
20
-4.6416
11
4.91302
21
-4.71151
0
LINE
8
BLACK
6
CONTINUOUS
10
4.91302
20
-4.71151
11
4.91299
21
-4.71155
0
LINE
8
BLACK
6
CONTINUOUS
10
4.91299
20
-4.71155
11
4.91298
21
-4.71156
0
LINE
8
BLACK
6
CONTINUOUS
10
4.91298
20
-4.71156
11
4.85662
21
-4.77771
0
LINE
8
BLACK
6
CONTINUOUS
10
4.85662
20
-4.77771
11
4.85658
21
-4.77775
0
LINE
8
BLACK
6
CONTINUOUS
10
4.85658
20
-4.77775
11
4.85657
21
-4.77776
0
LINE
8
BLACK
6
CONTINUOUS
10
4.85657
20
-4.77776
11
4.79573
21
-4.83981
0
LINE
8
BLACK
6
CONTINUOUS
10
4.79573
20
-4.83981
11
4.79568
21
-4.83986
0
LINE
8
BLACK
6
CONTINUOUS
10
4.79568
20
-4.83986
11
4.73066
21
-4.89751
0
LINE
8
BLACK
6
CONTINUOUS
10
4.73066
20
-4.89751
11
4.73061
21
-4.89755
0
LINE
8
BLACK
6
CONTINUOUS
10
4.73061
20
-4.89755
11
4.66173
21
-4.95053
0
LINE
8
BLACK
6
CONTINUOUS
10
4.66173
20
-4.95053
11
4.66168
21
-4.95056
0
LINE
8
BLACK
6
CONTINUOUS
10
4.66168
20
-4.95056
11
4.66167
21
-4.95057
0
LINE
8
BLACK
6
CONTINUOUS
10
4.66167
20
-4.95057
11
4.58926
21
-4.99862
0
LINE
8
BLACK
6
CONTINUOUS
10
4.58926
20
-4.99862
11
4.5892
21
-4.99865
0
LINE
8
BLACK
6
CONTINUOUS
10
4.5892
20
-4.99865
11
4.51362
21
-5.04153
0
LINE
8
BLACK
6
CONTINUOUS
10
4.51362
20
-5.04153
11
4.51362
21
-5.04153
0
LINE
8
BLACK
6
CONTINUOUS
10
4.51362
20
-5.04153
11
4.51356
21
-5.04156
0
LINE
8
BLACK
6
CONTINUOUS
10
4.51356
20
-5.04156
11
4.43517
21
-5.07906
0
LINE
8
BLACK
6
CONTINUOUS
10
4.43517
20
-5.07906
11
4.4351
21
-5.07909
0
LINE
8
BLACK
6
CONTINUOUS
10
4.4351
20
-5.07909
11
4.35429
21
-5.11103
0
LINE
8
BLACK
6
CONTINUOUS
10
4.35429
20
-5.11103
11
4.35427
21
-5.11104
0
LINE
8
BLACK
6
CONTINUOUS
10
4.35427
20
-5.11104
11
4.35425
21
-5.11105
0
LINE
8
BLACK
6
CONTINUOUS
10
4.35425
20
-5.11105
11
4.33169
21
-5.11881
0
LINE
8
BLACK
6
CONTINUOUS
10
4.33169
20
-5.11881
11
4.33169
21
-5.39365
0
LINE
8
BLACK
6
CONTINUOUS
10
4.33169
20
-5.39365
11
4.3317
21
-5.3937
0
LINE
8
BLACK
6
CONTINUOUS
10
4.3317
20
-5.3937
11
4.33168
21
-5.39389
0
LINE
8
BLACK
6
CONTINUOUS
10
4.33168
20
-5.39389
11
4.33162
21
-5.39408
0
LINE
8
BLACK
6
CONTINUOUS
10
4.33162
20
-5.39408
11
4.33153
21
-5.39425
0
LINE
8
BLACK
6
CONTINUOUS
10
4.33153
20
-5.39425
11
4.33141
21
-5.3944
0
LINE
8
BLACK
6
CONTINUOUS
10
4.33141
20
-5.3944
11
4.33126
21
-5.39452
0
LINE
8
BLACK
6
CONTINUOUS
10
4.33126
20
-5.39452
11
4.33109
21
-5.39461
0
LINE
8
BLACK
6
CONTINUOUS
10
4.33109
20
-5.39461
11
4.3309
21
-5.39467
0
LINE
8
BLACK
6
CONTINUOUS
10
4.3309
20
-5.39467
11
4.33076
21
-5.39469
0
LINE
8
BLACK
6
CONTINUOUS
10
4.33076
20
-5.39469
11
4.33076
21
-5.39469
0
LINE
8
BLACK
6
CONTINUOUS
10
4.33076
20
-5.39469
11
4.33071
21
-5.39469
0
LINE
8
BLACK
6
CONTINUOUS
10
4.33071
20
-5.39469
11
4.33066
21
-5.39469
0
LINE
8
BLACK
6
CONTINUOUS
10
4.33066
20
-5.39469
11
3.54336
21
-5.39469
0
LINE
8
BLACK
6
CONTINUOUS
10
3.54336
20
-5.39469
11
3.54331
21
-5.39469
0
LINE
8
BLACK
6
CONTINUOUS
10
3.54331
20
-5.39469
11
3.54326
21
-5.39469
0
LINE
8
BLACK
6
CONTINUOUS
10
3.54326
20
-5.39469
11
3.54326
21
-5.39469
0
LINE
8
BLACK
6
CONTINUOUS
10
3.54326
20
-5.39469
11
3.54311
21
-5.39467
0
LINE
8
BLACK
6
CONTINUOUS
10
3.54311
20
-5.39467
11
3.54293
21
-5.39461
0
LINE
8
BLACK
6
CONTINUOUS
10
3.54293
20
-5.39461
11
3.54276
21
-5.39452
0
LINE
8
BLACK
6
CONTINUOUS
10
3.54276
20
-5.39452
11
3.54261
21
-5.3944
0
LINE
8
BLACK
6
CONTINUOUS
10
3.54261
20
-5.3944
11
3.54248
21
-5.39425
0
LINE
8
BLACK
6
CONTINUOUS
10
3.54248
20
-5.39425
11
3.54239
21
-5.39408
0
LINE
8
BLACK
6
CONTINUOUS
10
3.54239
20
-5.39408
11
3.54234
21
-5.39389
0
LINE
8
BLACK
6
CONTINUOUS
10
3.54234
20
-5.39389
11
3.54232
21
-5.3937
0
LINE
8
BLACK
6
CONTINUOUS
10
3.54232
20
-5.3937
11
3.54232
21
-5.39365
0
LINE
8
BLACK
6
CONTINUOUS
10
3.54232
20
-5.39365
11
3.54232
21
-5.11879
0
LINE
8
BLACK
6
CONTINUOUS
10
3.54232
20
-5.11879
11
3.46153
21
-5.08869
0
LINE
8
BLACK
6
CONTINUOUS
10
3.46153
20
-5.08869
11
3.46147
21
-5.08867
0
LINE
8
BLACK
6
CONTINUOUS
10
3.46147
20
-5.08867
11
3.38235
21
-5.05272
0
LINE
8
BLACK
6
CONTINUOUS
10
3.38235
20
-5.05272
11
3.38229
21
-5.05269
0
LINE
8
BLACK
6
CONTINUOUS
10
3.38229
20
-5.05269
11
3.30588
21
-5.01131
0
LINE
8
BLACK
6
CONTINUOUS
10
3.30588
20
-5.01131
11
3.30582
21
-5.01128
0
LINE
8
BLACK
6
CONTINUOUS
10
3.30582
20
-5.01128
11
3.23247
21
-4.96467
0
LINE
8
BLACK
6
CONTINUOUS
10
3.23247
20
-4.96467
11
3.23242
21
-4.96463
0
LINE
8
BLACK
6
CONTINUOUS
10
3.23242
20
-4.96463
11
3.1625
21
-4.91302
0
LINE
8
BLACK
6
CONTINUOUS
10
3.1625
20
-4.91302
11
3.16245
21
-4.91298
0
LINE
8
BLACK
6
CONTINUOUS
10
3.16245
20
-4.91298
11
3.09631
21
-4.85662
0
LINE
8
BLACK
6
CONTINUOUS
10
3.09631
20
-4.85662
11
3.09626
21
-4.85657
0
LINE
8
BLACK
6
CONTINUOUS
10
3.09626
20
-4.85657
11
3.03421
21
-4.79573
0
LINE
8
BLACK
6
CONTINUOUS
10
3.03421
20
-4.79573
11
3.03416
21
-4.79568
0
LINE
8
BLACK
6
CONTINUOUS
10
3.03416
20
-4.79568
11
2.97651
21
-4.73066
0
LINE
8
BLACK
6
CONTINUOUS
10
2.97651
20
-4.73066
11
2.97646
21
-4.73061
0
LINE
8
BLACK
6
CONTINUOUS
10
2.97646
20
-4.73061
11
2.92348
21
-4.66173
0
LINE
8
BLACK
6
CONTINUOUS
10
2.92348
20
-4.66173
11
2.92344
21
-4.66167
0
LINE
8
BLACK
6
CONTINUOUS
10
2.92344
20
-4.66167
11
2.8754
21
-4.58926
0
LINE
8
BLACK
6
CONTINUOUS
10
2.8754
20
-4.58926
11
2.87536
21
-4.5892
0
LINE
8
BLACK
6
CONTINUOUS
10
2.87536
20
-4.5892
11
2.83248
21
-4.51362
0
LINE
8
BLACK
6
CONTINUOUS
10
2.83248
20
-4.51362
11
2.83248
21
-4.51362
0
LINE
8
BLACK
6
CONTINUOUS
10
2.83248
20
-4.51362
11
2.83245
21
-4.51356
0
LINE
8
BLACK
6
CONTINUOUS
10
2.83245
20
-4.51356
11
2.79495
21
-4.43517
0
LINE
8
BLACK
6
CONTINUOUS
10
2.79495
20
-4.43517
11
2.79493
21
-4.4351
0
LINE
8
BLACK
6
CONTINUOUS
10
2.79493
20
-4.4351
11
2.76298
21
-4.35429
0
LINE
8
BLACK
6
CONTINUOUS
10
2.76298
20
-4.35429
11
2.76298
21
-4.35427
0
LINE
8
BLACK
6
CONTINUOUS
10
2.76298
20
-4.35427
11
2.76297
21
-4.35425
0
LINE
8
BLACK
6
CONTINUOUS
10
2.76297
20
-4.35425
11
2.7552
21
-4.33169
0
LINE
8
BLACK
6
CONTINUOUS
10
2.7552
20
-4.33169
11
2.44099
21
-4.33169
0
LINE
8
BLACK
6
CONTINUOUS
10
2.44099
20
-4.33169
11
2.44094
21
-4.3317
0
LINE
8
BLACK
6
CONTINUOUS
10
2.44094
20
-4.3317
11
2.4409
21
-4.33169
0
LINE
8
BLACK
6
CONTINUOUS
10
2.4409
20
-4.33169
11
2.4409
21
-4.33169
0
LINE
8
BLACK
6
CONTINUOUS
10
2.4409
20
-4.33169
11
2.44075
21
-4.33168
0
LINE
8
BLACK
6
CONTINUOUS
10
2.44075
20
-4.33168
11
2.44057
21
-4.33162
0
LINE
8
BLACK
6
CONTINUOUS
10
2.44057
20
-4.33162
11
2.4404
21
-4.33153
0
LINE
8
BLACK
6
CONTINUOUS
10
2.4404
20
-4.33153
11
2.44025
21
-4.33141
0
LINE
8
BLACK
6
CONTINUOUS
10
2.44025
20
-4.33141
11
2.44012
21
-4.33126
0
LINE
8
BLACK
6
CONTINUOUS
10
2.44012
20
-4.33126
11
2.44003
21
-4.33109
0
LINE
8
BLACK
6
CONTINUOUS
10
2.44003
20
-4.33109
11
2.43997
21
-4.3309
0
LINE
8
BLACK
6
CONTINUOUS
10
2.43997
20
-4.3309
11
2.43996
21
-4.33071
0
LINE
8
BLACK
6
CONTINUOUS
10
2.43996
20
-4.33071
11
2.43996
21
-4.33066
0
LINE
8
BLACK
6
CONTINUOUS
10
2.43996
20
-4.33066
11
2.43996
21
-3.54336
0
LINE
8
BLACK
6
CONTINUOUS
10
2.43996
20
-3.54336
11
2.43996
21
-3.54331
0
LINE
8
BLACK
6
CONTINUOUS
10
2.43996
20
-3.54331
11
2.43997
21
-3.54311
0
LINE
8
BLACK
6
CONTINUOUS
10
2.43997
20
-3.54311
11
2.44003
21
-3.54293
0
LINE
8
BLACK
6
CONTINUOUS
10
2.44003
20
-3.54293
11
2.44012
21
-3.54276
0
LINE
8
BLACK
6
CONTINUOUS
10
2.44012
20
-3.54276
11
2.44025
21
-3.54261
0
LINE
8
BLACK
6
CONTINUOUS
10
2.44025
20
-3.54261
11
2.4404
21
-3.54248
0
LINE
8
BLACK
6
CONTINUOUS
10
2.4404
20
-3.54248
11
2.44057
21
-3.54239
0
LINE
8
BLACK
6
CONTINUOUS
10
2.44057
20
-3.54239
11
2.44075
21
-3.54234
0
LINE
8
BLACK
6
CONTINUOUS
10
2.44075
20
-3.54234
11
2.4409
21
-3.54232
0
LINE
8
BLACK
6
CONTINUOUS
10
2.4409
20
-3.54232
11
2.44094
21
-3.54232
0
LINE
8
BLACK
6
CONTINUOUS
10
2.44094
20
-3.54232
11
2.44099
21
-3.54232
0
LINE
8
BLACK
6
CONTINUOUS
10
2.44099
20
-3.54232
11
2.75522
21
-3.54232
0
LINE
8
BLACK
6
CONTINUOUS
10
2.75522
20
-3.54232
11
2.78532
21
-3.46153
0
LINE
8
BLACK
6
CONTINUOUS
10
2.78532
20
-3.46153
11
2.78535
21
-3.46147
0
LINE
8
BLACK
6
CONTINUOUS
10
2.78535
20
-3.46147
11
2.8213
21
-3.38235
0
LINE
8
BLACK
6
CONTINUOUS
10
2.8213
20
-3.38235
11
2.82133
21
-3.38229
0
LINE
8
BLACK
6
CONTINUOUS
10
2.82133
20
-3.38229
11
2.8627
21
-3.30588
0
LINE
8
BLACK
6
CONTINUOUS
10
2.8627
20
-3.30588
11
2.86274
21
-3.30582
0
LINE
8
BLACK
6
CONTINUOUS
10
2.86274
20
-3.30582
11
2.90935
21
-3.23247
0
LINE
8
BLACK
6
CONTINUOUS
10
2.90935
20
-3.23247
11
2.90938
21
-3.23243
0
LINE
8
BLACK
6
CONTINUOUS
10
2.90938
20
-3.23243
11
2.90939
21
-3.23242
0
LINE
8
BLACK
6
CONTINUOUS
10
2.90939
20
-3.23242
11
2.961
21
-3.1625
0
LINE
8
BLACK
6
CONTINUOUS
10
2.961
20
-3.1625
11
2.96104
21
-3.16245
0
LINE
8
BLACK
6
CONTINUOUS
10
2.96104
20
-3.16245
11
3.0174
21
-3.09631
0
LINE
8
BLACK
6
CONTINUOUS
10
3.0174
20
-3.09631
11
3.01745
21
-3.09626
0
LINE
8
BLACK
6
CONTINUOUS
10
3.01745
20
-3.09626
11
3.01745
21
-3.09626
0
LINE
8
BLACK
6
CONTINUOUS
10
3.01745
20
-3.09626
11
3.07828
21
-3.03421
0
LINE
8
BLACK
6
CONTINUOUS
10
3.07828
20
-3.03421
11
3.07833
21
-3.03416
0
LINE
8
BLACK
6
CONTINUOUS
10
3.07833
20
-3.03416
11
3.14335
21
-2.97651
0
LINE
8
BLACK
6
CONTINUOUS
10
3.14335
20
-2.97651
11
3.14341
21
-2.97646
0
LINE
8
BLACK
6
CONTINUOUS
10
3.14341
20
-2.97646
11
3.21229
21
-2.92348
0
LINE
8
BLACK
6
CONTINUOUS
10
3.21229
20
-2.92348
11
3.21234
21
-2.92344
0
LINE
8
BLACK
6
CONTINUOUS
10
3.21234
20
-2.92344
11
3.28475
21
-2.8754
0
LINE
8
BLACK
6
CONTINUOUS
10
3.28475
20
-2.8754
11
3.28481
21
-2.87536
0
LINE
8
BLACK
6
CONTINUOUS
10
3.28481
20
-2.87536
11
3.3604
21
-2.83248
0
LINE
8
BLACK
6
CONTINUOUS
10
3.3604
20
-2.83248
11
3.36046
21
-2.83245
0
LINE
8
BLACK
6
CONTINUOUS
10
3.36046
20
-2.83245
11
3.43885
21
-2.79495
0
LINE
8
BLACK
6
CONTINUOUS
10
3.43885
20
-2.79495
11
3.43891
21
-2.79493
0
LINE
8
BLACK
6
CONTINUOUS
10
3.43891
20
-2.79493
11
3.51973
21
-2.76298
0
LINE
8
BLACK
6
CONTINUOUS
10
3.51973
20
-2.76298
11
3.51975
21
-2.76298
0
LINE
8
BLACK
6
CONTINUOUS
10
3.51975
20
-2.76298
11
3.51977
21
-2.76297
0
LINE
8
BLACK
6
CONTINUOUS
10
3.51977
20
-2.76297
11
3.54232
21
-2.7552
0
LINE
8
BLACK
6
CONTINUOUS
10
3.54232
20
-2.7552
11
3.54232
21
-2.44099
0
LINE
8
BLACK
6
CONTINUOUS
10
3.54232
20
-2.44099
11
3.54232
21
-2.44094
0
LINE
8
BLACK
6
CONTINUOUS
10
3.54232
20
-2.44094
11
3.54234
21
-2.44075
0
LINE
8
BLACK
6
CONTINUOUS
10
3.54234
20
-2.44075
11
3.54239
21
-2.44057
0
LINE
8
BLACK
6
CONTINUOUS
10
3.54239
20
-2.44057
11
3.54248
21
-2.4404
0
LINE
8
BLACK
6
CONTINUOUS
10
3.54248
20
-2.4404
11
3.54261
21
-2.44025
0
LINE
8
BLACK
6
CONTINUOUS
10
3.54261
20
-2.44025
11
3.54276
21
-2.44012
0
LINE
8
BLACK
6
CONTINUOUS
10
3.54276
20
-2.44012
11
3.54293
21
-2.44003
0
LINE
8
BLACK
6
CONTINUOUS
10
3.54293
20
-2.44003
11
3.54311
21
-2.43997
0
LINE
8
BLACK
6
CONTINUOUS
10
3.54311
20
-2.43997
11
3.54326
21
-2.43996
0
LINE
8
BLACK
6
CONTINUOUS
10
3.54326
20
-2.43996
11
3.54326
21
-2.43996
0
LINE
8
BLACK
6
CONTINUOUS
10
3.54326
20
-2.43996
11
3.54331
21
-2.43996
0
LINE
8
BLACK
6
CONTINUOUS
10
3.54331
20
-2.43996
11
3.54335
21
-2.43996
0
LINE
8
BLACK
6
CONTINUOUS
10
3.54335
20
-2.43996
11
4.33066
21
-2.43996
0
LINE
8
BLACK
6
CONTINUOUS
10
4.33066
20
-2.43996
11
4.33071
21
-2.43996
0
LINE
8
BLACK
6
CONTINUOUS
10
4.33071
20
-2.43996
11
4.33076
21
-2.43996
0
LINE
8
BLACK
6
CONTINUOUS
10
3.54429
20
-2.44193
11
3.54429
21
-2.75595
0
LINE
8
BLACK
6
CONTINUOUS
10
3.54429
20
-2.75595
11
3.54428
21
-2.7561
0
LINE
8
BLACK
6
CONTINUOUS
10
3.54428
20
-2.7561
11
3.54422
21
-2.75628
0
LINE
8
BLACK
6
CONTINUOUS
10
3.54422
20
-2.75628
11
3.54413
21
-2.75645
0
LINE
8
BLACK
6
CONTINUOUS
10
3.54413
20
-2.75645
11
3.54407
21
-2.75652
0
LINE
8
BLACK
6
CONTINUOUS
10
3.54407
20
-2.75652
11
3.54407
21
-2.75652
0
LINE
8
BLACK
6
CONTINUOUS
10
3.54407
20
-2.75652
11
3.54407
21
-2.75653
0
LINE
8
BLACK
6
CONTINUOUS
10
3.54407
20
-2.75653
11
3.54401
21
-2.7566
0
LINE
8
BLACK
6
CONTINUOUS
10
3.54401
20
-2.7566
11
3.54393
21
-2.75667
0
LINE
8
BLACK
6
CONTINUOUS
10
3.54393
20
-2.75667
11
3.54393
21
-2.75667
0
LINE
8
BLACK
6
CONTINUOUS
10
3.54393
20
-2.75667
11
3.54393
21
-2.75667
0
LINE
8
BLACK
6
CONTINUOUS
10
3.54393
20
-2.75667
11
3.54386
21
-2.75673
0
LINE
8
BLACK
6
CONTINUOUS
10
3.54386
20
-2.75673
11
3.54369
21
-2.75682
0
LINE
8
BLACK
6
CONTINUOUS
10
3.54369
20
-2.75682
11
3.54361
21
-2.75684
0
LINE
8
BLACK
6
CONTINUOUS
10
3.54361
20
-2.75684
11
3.52043
21
-2.76482
0
LINE
8
BLACK
6
CONTINUOUS
10
3.52043
20
-2.76482
11
3.43967
21
-2.79674
0
LINE
8
BLACK
6
CONTINUOUS
10
3.43967
20
-2.79674
11
3.36134
21
-2.83421
0
LINE
8
BLACK
6
CONTINUOUS
10
3.36134
20
-2.83421
11
3.28581
21
-2.87706
0
LINE
8
BLACK
6
CONTINUOUS
10
3.28581
20
-2.87706
11
3.21346
21
-2.92506
0
LINE
8
BLACK
6
CONTINUOUS
10
3.21346
20
-2.92506
11
3.14463
21
-2.978
0
LINE
8
BLACK
6
CONTINUOUS
10
3.14463
20
-2.978
11
3.07967
21
-3.03561
0
LINE
8
BLACK
6
CONTINUOUS
10
3.07967
20
-3.03561
11
3.01888
21
-3.09761
0
LINE
8
BLACK
6
CONTINUOUS
10
3.01888
20
-3.09761
11
2.96256
21
-3.1637
0
LINE
8
BLACK
6
CONTINUOUS
10
2.96256
20
-3.1637
11
2.91099
21
-3.23356
0
LINE
8
BLACK
6
CONTINUOUS
10
2.91099
20
-3.23356
11
2.86442
21
-3.30684
0
LINE
8
BLACK
6
CONTINUOUS
10
2.86442
20
-3.30684
11
2.82307
21
-3.3832
0
LINE
8
BLACK
6
CONTINUOUS
10
2.82307
20
-3.3832
11
2.78716
21
-3.46225
0
LINE
8
BLACK
6
CONTINUOUS
10
2.78716
20
-3.46225
11
2.75684
21
-3.54362
0
LINE
8
BLACK
6
CONTINUOUS
10
2.75684
20
-3.54362
11
2.75682
21
-3.54369
0
LINE
8
BLACK
6
CONTINUOUS
10
2.75682
20
-3.54369
11
2.75677
21
-3.54377
0
LINE
8
BLACK
6
CONTINUOUS
10
2.75677
20
-3.54377
11
2.75677
21
-3.54378
0
LINE
8
BLACK
6
CONTINUOUS
10
2.75677
20
-3.54378
11
2.75677
21
-3.54378
0
LINE
8
BLACK
6
CONTINUOUS
10
2.75677
20
-3.54378
11
2.75673
21
-3.54386
0
LINE
8
BLACK
6
CONTINUOUS
10
2.75673
20
-3.54386
11
2.7566
21
-3.54401
0
LINE
8
BLACK
6
CONTINUOUS
10
2.7566
20
-3.54401
11
2.75645
21
-3.54413
0
LINE
8
BLACK
6
CONTINUOUS
10
2.75645
20
-3.54413
11
2.75628
21
-3.54422
0
LINE
8
BLACK
6
CONTINUOUS
10
2.75628
20
-3.54422
11
2.7561
21
-3.54428
0
LINE
8
BLACK
6
CONTINUOUS
10
2.7561
20
-3.54428
11
2.756
21
-3.54429
0
LINE
8
BLACK
6
CONTINUOUS
10
2.756
20
-3.54429
11
2.756
21
-3.54429
0
LINE
8
BLACK
6
CONTINUOUS
10
2.756
20
-3.54429
11
2.756
21
-3.54429
0
LINE
8
BLACK
6
CONTINUOUS
10
2.756
20
-3.54429
11
2.75595
21
-3.54429
0
LINE
8
BLACK
6
CONTINUOUS
10
2.75595
20
-3.54429
11
2.44193
21
-3.54429
0
LINE
8
BLACK
6
CONTINUOUS
10
2.44193
20
-3.54429
11
2.44193
21
-4.32972
0
LINE
8
BLACK
6
CONTINUOUS
10
2.44193
20
-4.32972
11
2.75595
21
-4.32972
0
LINE
8
BLACK
6
CONTINUOUS
10
2.75595
20
-4.32972
11
2.7561
21
-4.32974
0
LINE
8
BLACK
6
CONTINUOUS
10
2.7561
20
-4.32974
11
2.75628
21
-4.32979
0
LINE
8
BLACK
6
CONTINUOUS
10
2.75628
20
-4.32979
11
2.75645
21
-4.32989
0
LINE
8
BLACK
6
CONTINUOUS
10
2.75645
20
-4.32989
11
2.75652
21
-4.32994
0
LINE
8
BLACK
6
CONTINUOUS
10
2.75652
20
-4.32994
11
2.75652
21
-4.32994
0
LINE
8
BLACK
6
CONTINUOUS
10
2.75652
20
-4.32994
11
2.75653
21
-4.32995
0
LINE
8
BLACK
6
CONTINUOUS
10
2.75653
20
-4.32995
11
2.7566
21
-4.33001
0
LINE
8
BLACK
6
CONTINUOUS
10
2.7566
20
-4.33001
11
2.75667
21
-4.33009
0
LINE
8
BLACK
6
CONTINUOUS
10
2.75667
20
-4.33009
11
2.75667
21
-4.33009
0
LINE
8
BLACK
6
CONTINUOUS
10
2.75667
20
-4.33009
11
2.75667
21
-4.33009
0
LINE
8
BLACK
6
CONTINUOUS
10
2.75667
20
-4.33009
11
2.75673
21
-4.33016
0
LINE
8
BLACK
6
CONTINUOUS
10
2.75673
20
-4.33016
11
2.75682
21
-4.33033
0
LINE
8
BLACK
6
CONTINUOUS
10
2.75682
20
-4.33033
11
2.75684
21
-4.3304
0
LINE
8
BLACK
6
CONTINUOUS
10
2.75684
20
-4.3304
11
2.76482
21
-4.35359
0
LINE
8
BLACK
6
CONTINUOUS
10
2.76482
20
-4.35359
11
2.79674
21
-4.43435
0
LINE
8
BLACK
6
CONTINUOUS
10
2.79674
20
-4.43435
11
2.83421
21
-4.51268
0
LINE
8
BLACK
6
CONTINUOUS
10
2.83421
20
-4.51268
11
2.87706
21
-4.5882
0
LINE
8
BLACK
6
CONTINUOUS
10
2.87706
20
-4.5882
11
2.92506
21
-4.66056
0
LINE
8
BLACK
6
CONTINUOUS
10
2.92506
20
-4.66056
11
2.978
21
-4.72938
0
LINE
8
BLACK
6
CONTINUOUS
10
2.978
20
-4.72938
11
3.03561
21
-4.79435
0
LINE
8
BLACK
6
CONTINUOUS
10
3.03561
20
-4.79435
11
3.09761
21
-4.85514
0
LINE
8
BLACK
6
CONTINUOUS
10
3.09761
20
-4.85514
11
3.1637
21
-4.91146
0
LINE
8
BLACK
6
CONTINUOUS
10
3.1637
20
-4.91146
11
3.23356
21
-4.96303
0
LINE
8
BLACK
6
CONTINUOUS
10
3.23356
20
-4.96303
11
3.30684
21
-5.0096
0
LINE
8
BLACK
6
CONTINUOUS
10
3.30684
20
-5.0096
11
3.3832
21
-5.05094
0
LINE
8
BLACK
6
CONTINUOUS
10
3.3832
20
-5.05094
11
3.46225
21
-5.08686
0
LINE
8
BLACK
6
CONTINUOUS
10
3.46225
20
-5.08686
11
3.54362
21
-5.11718
0
LINE
8
BLACK
6
CONTINUOUS
10
3.54362
20
-5.11718
11
3.54369
21
-5.1172
0
LINE
8
BLACK
6
CONTINUOUS
10
3.54369
20
-5.1172
11
3.54377
21
-5.11724
0
LINE
8
BLACK
6
CONTINUOUS
10
3.54377
20
-5.11724
11
3.54378
21
-5.11724
0
LINE
8
BLACK
6
CONTINUOUS
10
3.54378
20
-5.11724
11
3.54378
21
-5.11725
0
LINE
8
BLACK
6
CONTINUOUS
10
3.54378
20
-5.11725
11
3.54386
21
-5.11729
0
LINE
8
BLACK
6
CONTINUOUS
10
3.54386
20
-5.11729
11
3.54401
21
-5.11741
0
LINE
8
BLACK
6
CONTINUOUS
10
3.54401
20
-5.11741
11
3.54413
21
-5.11756
0
LINE
8
BLACK
6
CONTINUOUS
10
3.54413
20
-5.11756
11
3.54422
21
-5.11773
0
LINE
8
BLACK
6
CONTINUOUS
10
3.54422
20
-5.11773
11
3.54428
21
-5.11792
0
LINE
8
BLACK
6
CONTINUOUS
10
3.54428
20
-5.11792
11
3.54429
21
-5.11801
0
LINE
8
BLACK
6
CONTINUOUS
10
3.54429
20
-5.11801
11
3.54429
21
-5.11801
0
LINE
8
BLACK
6
CONTINUOUS
10
3.54429
20
-5.11801
11
3.54429
21
-5.11802
0
LINE
8
BLACK
6
CONTINUOUS
10
3.54429
20
-5.11802
11
3.54429
21
-5.11806
0
LINE
8
BLACK
6
CONTINUOUS
10
3.54429
20
-5.11806
11
3.54429
21
-5.39272
0
LINE
8
BLACK
6
CONTINUOUS
10
3.54429
20
-5.39272
11
4.32972
21
-5.39272
0
LINE
8
BLACK
6
CONTINUOUS
10
4.32972
20
-5.39272
11
4.32972
21
-5.11806
0
LINE
8
BLACK
6
CONTINUOUS
10
4.32972
20
-5.11806
11
4.32974
21
-5.11792
0
LINE
8
BLACK
6
CONTINUOUS
10
4.32974
20
-5.11792
11
4.32979
21
-5.11773
0
LINE
8
BLACK
6
CONTINUOUS
10
4.32979
20
-5.11773
11
4.32989
21
-5.11756
0
LINE
8
BLACK
6
CONTINUOUS
10
4.32989
20
-5.11756
11
4.32994
21
-5.11749
0
LINE
8
BLACK
6
CONTINUOUS
10
4.32994
20
-5.11749
11
4.32994
21
-5.11749
0
LINE
8
BLACK
6
CONTINUOUS
10
4.32994
20
-5.11749
11
4.32995
21
-5.11749
0
LINE
8
BLACK
6
CONTINUOUS
10
4.32995
20
-5.11749
11
4.33001
21
-5.11741
0
LINE
8
BLACK
6
CONTINUOUS
10
4.33001
20
-5.11741
11
4.33009
21
-5.11735
0
LINE
8
BLACK
6
CONTINUOUS
10
4.33009
20
-5.11735
11
4.33009
21
-5.11735
0
LINE
8
BLACK
6
CONTINUOUS
10
4.33009
20
-5.11735
11
4.33009
21
-5.11734
0
LINE
8
BLACK
6
CONTINUOUS
10
4.33009
20
-5.11734
11
4.33016
21
-5.11729
0
LINE
8
BLACK
6
CONTINUOUS
10
4.33016
20
-5.11729
11
4.33033
21
-5.1172
0
LINE
8
BLACK
6
CONTINUOUS
10
4.33033
20
-5.1172
11
4.3304
21
-5.11717
0
LINE
8
BLACK
6
CONTINUOUS
10
4.3304
20
-5.11717
11
4.35359
21
-5.10919
0
LINE
8
BLACK
6
CONTINUOUS
10
4.35359
20
-5.10919
11
4.43435
21
-5.07727
0
LINE
8
BLACK
6
CONTINUOUS
10
4.43435
20
-5.07727
11
4.51268
21
-5.0398
0
LINE
8
BLACK
6
CONTINUOUS
10
4.51268
20
-5.0398
11
4.5882
21
-4.99696
0
LINE
8
BLACK
6
CONTINUOUS
10
4.5882
20
-4.99696
11
4.66056
21
-4.94895
0
LINE
8
BLACK
6
CONTINUOUS
10
4.66056
20
-4.94895
11
4.72938
21
-4.89601
0
LINE
8
BLACK
6
CONTINUOUS
10
4.72938
20
-4.89601
11
4.79435
21
-4.83841
0
LINE
8
BLACK
6
CONTINUOUS
10
4.79435
20
-4.83841
11
4.85514
21
-4.7764
0
LINE
8
BLACK
6
CONTINUOUS
10
4.85514
20
-4.7764
11
4.91146
21
-4.71031
0
LINE
8
BLACK
6
CONTINUOUS
10
4.91146
20
-4.71031
11
4.96303
21
-4.64046
0
LINE
8
BLACK
6
CONTINUOUS
10
4.96303
20
-4.64046
11
5.0096
21
-4.56717
0
LINE
8
BLACK
6
CONTINUOUS
10
5.0096
20
-4.56717
11
5.05094
21
-4.49082
0
LINE
8
BLACK
6
CONTINUOUS
10
5.05094
20
-4.49082
11
5.08686
21
-4.41176
0
LINE
8
BLACK
6
CONTINUOUS
10
5.08686
20
-4.41176
11
5.11718
21
-4.33039
0
LINE
8
BLACK
6
CONTINUOUS
10
5.11718
20
-4.33039
11
5.1172
21
-4.33033
0
LINE
8
BLACK
6
CONTINUOUS
10
5.1172
20
-4.33033
11
5.11729
21
-4.33016
0
LINE
8
BLACK
6
CONTINUOUS
10
5.11729
20
-4.33016
11
5.11741
21
-4.33001
0
LINE
8
BLACK
6
CONTINUOUS
10
5.11741
20
-4.33001
11
5.11756
21
-4.32989
0
LINE
8
BLACK
6
CONTINUOUS
10
5.11756
20
-4.32989
11
5.11773
21
-4.32979
0
LINE
8
BLACK
6
CONTINUOUS
10
5.11773
20
-4.32979
11
5.11792
21
-4.32974
0
LINE
8
BLACK
6
CONTINUOUS
10
5.11792
20
-4.32974
11
5.11801
21
-4.32973
0
LINE
8
BLACK
6
CONTINUOUS
10
5.11801
20
-4.32973
11
5.11801
21
-4.32973
0
LINE
8
BLACK
6
CONTINUOUS
10
5.11801
20
-4.32973
11
5.11802
21
-4.32973
0
LINE
8
BLACK
6
CONTINUOUS
10
5.11802
20
-4.32973
11
5.11806
21
-4.32972
0
LINE
8
BLACK
6
CONTINUOUS
10
5.11806
20
-4.32972
11
5.43209
21
-4.32972
0
LINE
8
BLACK
6
CONTINUOUS
10
5.43209
20
-4.32972
11
5.43209
21
-3.54429
0
LINE
8
BLACK
6
CONTINUOUS
10
5.43209
20
-3.54429
11
5.11806
21
-3.54429
0
LINE
8
BLACK
6
CONTINUOUS
10
5.11806
20
-3.54429
11
5.11792
21
-3.54428
0
LINE
8
BLACK
6
CONTINUOUS
10
5.11792
20
-3.54428
11
5.11773
21
-3.54422
0
LINE
8
BLACK
6
CONTINUOUS
10
5.11773
20
-3.54422
11
5.11756
21
-3.54413
0
LINE
8
BLACK
6
CONTINUOUS
10
5.11756
20
-3.54413
11
5.11749
21
-3.54407
0
LINE
8
BLACK
6
CONTINUOUS
10
5.11749
20
-3.54407
11
5.11749
21
-3.54407
0
LINE
8
BLACK
6
CONTINUOUS
10
5.11749
20
-3.54407
11
5.11749
21
-3.54407
0
LINE
8
BLACK
6
CONTINUOUS
10
5.11749
20
-3.54407
11
5.11741
21
-3.54401
0
LINE
8
BLACK
6
CONTINUOUS
10
5.11741
20
-3.54401
11
5.11735
21
-3.54393
0
LINE
8
BLACK
6
CONTINUOUS
10
5.11735
20
-3.54393
11
5.11735
21
-3.54393
0
LINE
8
BLACK
6
CONTINUOUS
10
5.11735
20
-3.54393
11
5.11734
21
-3.54393
0
LINE
8
BLACK
6
CONTINUOUS
10
5.11734
20
-3.54393
11
5.11729
21
-3.54386
0
LINE
8
BLACK
6
CONTINUOUS
10
5.11729
20
-3.54386
11
5.1172
21
-3.54369
0
LINE
8
BLACK
6
CONTINUOUS
10
5.1172
20
-3.54369
11
5.11717
21
-3.54361
0
LINE
8
BLACK
6
CONTINUOUS
10
5.11717
20
-3.54361
11
5.10919
21
-3.52043
0
LINE
8
BLACK
6
CONTINUOUS
10
5.10919
20
-3.52043
11
5.07727
21
-3.43967
0
LINE
8
BLACK
6
CONTINUOUS
10
5.07727
20
-3.43967
11
5.0398
21
-3.36134
0
LINE
8
BLACK
6
CONTINUOUS
10
5.0398
20
-3.36134
11
4.99696
21
-3.28581
0
LINE
8
BLACK
6
CONTINUOUS
10
4.99696
20
-3.28581
11
4.94895
21
-3.21346
0
LINE
8
BLACK
6
CONTINUOUS
10
4.94895
20
-3.21346
11
4.89601
21
-3.14463
0
LINE
8
BLACK
6
CONTINUOUS
10
4.89601
20
-3.14463
11
4.83841
21
-3.07967
0
LINE
8
BLACK
6
CONTINUOUS
10
4.83841
20
-3.07967
11
4.7764
21
-3.01888
0
LINE
8
BLACK
6
CONTINUOUS
10
4.7764
20
-3.01888
11
4.71031
21
-2.96256
0
LINE
8
BLACK
6
CONTINUOUS
10
4.71031
20
-2.96256
11
4.64046
21
-2.91099
0
LINE
8
BLACK
6
CONTINUOUS
10
4.64046
20
-2.91099
11
4.56717
21
-2.86442
0
LINE
8
BLACK
6
CONTINUOUS
10
4.56717
20
-2.86442
11
4.49082
21
-2.82307
0
LINE
8
BLACK
6
CONTINUOUS
10
4.49082
20
-2.82307
11
4.41176
21
-2.78716
0
LINE
8
BLACK
6
CONTINUOUS
10
4.41176
20
-2.78716
11
4.33039
21
-2.75684
0
LINE
8
BLACK
6
CONTINUOUS
10
4.33039
20
-2.75684
11
4.33033
21
-2.75682
0
LINE
8
BLACK
6
CONTINUOUS
10
4.33033
20
-2.75682
11
4.33024
21
-2.75677
0
LINE
8
BLACK
6
CONTINUOUS
10
4.33024
20
-2.75677
11
4.33024
21
-2.75677
0
LINE
8
BLACK
6
CONTINUOUS
10
4.33024
20
-2.75677
11
4.33024
21
-2.75677
0
LINE
8
BLACK
6
CONTINUOUS
10
4.33024
20
-2.75677
11
4.33016
21
-2.75673
0
LINE
8
BLACK
6
CONTINUOUS
10
4.33016
20
-2.75673
11
4.33001
21
-2.7566
0
LINE
8
BLACK
6
CONTINUOUS
10
4.33001
20
-2.7566
11
4.32989
21
-2.75645
0
LINE
8
BLACK
6
CONTINUOUS
10
4.32989
20
-2.75645
11
4.32979
21
-2.75628
0
LINE
8
BLACK
6
CONTINUOUS
10
4.32979
20
-2.75628
11
4.32974
21
-2.7561
0
LINE
8
BLACK
6
CONTINUOUS
10
4.32974
20
-2.7561
11
4.32973
21
-2.756
0
LINE
8
BLACK
6
CONTINUOUS
10
4.32973
20
-2.756
11
4.32973
21
-2.756
0
LINE
8
BLACK
6
CONTINUOUS
10
4.32973
20
-2.756
11
4.32973
21
-2.756
0
LINE
8
BLACK
6
CONTINUOUS
10
4.32973
20
-2.756
11
4.32972
21
-2.75595
0
LINE
8
BLACK
6
CONTINUOUS
10
4.32972
20
-2.75595
11
4.32972
21
-2.44193
0
LINE
8
BLACK
6
CONTINUOUS
10
4.32972
20
-2.44193
11
3.54429
21
-2.44193
0
LINE
8
BLACK
6
CONTINUOUS
10
3.04159
20
-3.78556
11
3.0574
21
-3.71116
0
LINE
8
BLACK
6
CONTINUOUS
10
3.0574
20
-3.71116
11
3.07938
21
-3.63835
0
LINE
8
BLACK
6
CONTINUOUS
10
3.07938
20
-3.63835
11
3.10738
21
-3.56763
0
LINE
8
BLACK
6
CONTINUOUS
10
3.10738
20
-3.56763
11
3.1412
21
-3.49951
0
LINE
8
BLACK
6
CONTINUOUS
10
3.1412
20
-3.49951
11
3.1806
21
-3.43445
0
LINE
8
BLACK
6
CONTINUOUS
10
3.1806
20
-3.43445
11
3.22531
21
-3.37292
0
LINE
8
BLACK
6
CONTINUOUS
10
3.22531
20
-3.37292
11
3.275
21
-3.31534
0
LINE
8
BLACK
6
CONTINUOUS
10
3.275
20
-3.31534
11
3.32934
21
-3.26213
0
LINE
8
BLACK
6
CONTINUOUS
10
3.32934
20
-3.26213
11
3.38795
21
-3.21365
0
LINE
8
BLACK
6
CONTINUOUS
10
3.38795
20
-3.21365
11
3.4504
21
-3.17024
0
LINE
8
BLACK
6
CONTINUOUS
10
3.4504
20
-3.17024
11
3.51627
21
-3.13221
0
LINE
8
BLACK
6
CONTINUOUS
10
3.51627
20
-3.13221
11
3.58509
21
-3.09983
0
LINE
8
BLACK
6
CONTINUOUS
10
3.58509
20
-3.09983
11
3.65638
21
-3.07332
0
LINE
8
BLACK
6
CONTINUOUS
10
3.65638
20
-3.07332
11
3.72963
21
-3.05286
0
LINE
8
BLACK
6
CONTINUOUS
10
3.72963
20
-3.05286
11
3.80434
21
-3.03861
0
LINE
8
BLACK
6
CONTINUOUS
10
3.80434
20
-3.03861
11
3.87999
21
-3.03066
0
LINE
8
BLACK
6
CONTINUOUS
10
3.87999
20
-3.03066
11
3.95603
21
-3.02907
0
LINE
8
BLACK
6
CONTINUOUS
10
3.95603
20
-3.02907
11
4.03193
21
-3.03384
0
LINE
8
BLACK
6
CONTINUOUS
10
4.03193
20
-3.03384
11
4.10718
21
-3.04495
0
LINE
8
BLACK
6
CONTINUOUS
10
4.10718
20
-3.04495
11
4.18122
21
-3.06232
0
LINE
8
BLACK
6
CONTINUOUS
10
4.18122
20
-3.06232
11
4.25356
21
-3.08583
0
LINE
8
BLACK
6
CONTINUOUS
10
4.25356
20
-3.08583
11
4.32367
21
-3.1153
0
LINE
8
BLACK
6
CONTINUOUS
10
4.32367
20
-3.1153
11
4.39108
21
-3.15054
0
LINE
8
BLACK
6
CONTINUOUS
10
4.39108
20
-3.15054
11
4.4553
21
-3.19129
0
LINE
8
BLACK
6
CONTINUOUS
10
4.4553
20
-3.19129
11
4.51588
21
-3.23727
0
LINE
8
BLACK
6
CONTINUOUS
10
4.51588
20
-3.23727
11
4.5724
21
-3.28817
0
LINE
8
BLACK
6
CONTINUOUS
10
4.5724
20
-3.28817
11
4.62446
21
-3.34361
0
LINE
8
BLACK
6
CONTINUOUS
10
4.62446
20
-3.34361
11
4.67171
21
-3.40322
0
LINE
8
BLACK
6
CONTINUOUS
10
4.67171
20
-3.40322
11
4.7138
21
-3.46657
0
LINE
8
BLACK
6
CONTINUOUS
10
4.7138
20
-3.46657
11
4.75044
21
-3.53322
0
LINE
8
BLACK
6
CONTINUOUS
10
4.75044
20
-3.53322
11
4.78137
21
-3.6027
0
LINE
8
BLACK
6
CONTINUOUS
10
4.78137
20
-3.6027
11
4.80639
21
-3.67453
0
LINE
8
BLACK
6
CONTINUOUS
10
4.80639
20
-3.67453
11
4.8253
21
-3.7482
0
LINE
8
BLACK
6
CONTINUOUS
10
4.8253
20
-3.7482
11
4.83799
21
-3.82319
0
LINE
8
BLACK
6
CONTINUOUS
10
4.83799
20
-3.82319
11
4.84435
21
-3.89898
0
LINE
8
BLACK
6
CONTINUOUS
10
4.84435
20
-3.89898
11
4.84435
21
-3.97504
0
LINE
8
BLACK
6
CONTINUOUS
10
4.84435
20
-3.97504
11
4.83799
21
-4.05083
0
LINE
8
BLACK
6
CONTINUOUS
10
4.83799
20
-4.05083
11
4.8253
21
-4.12582
0
LINE
8
BLACK
6
CONTINUOUS
10
4.8253
20
-4.12582
11
4.80639
21
-4.19949
0
LINE
8
BLACK
6
CONTINUOUS
10
4.80639
20
-4.19949
11
4.78137
21
-4.27132
0
LINE
8
BLACK
6
CONTINUOUS
10
4.78137
20
-4.27132
11
4.75044
21
-4.3408
0
LINE
8
BLACK
6
CONTINUOUS
10
4.75044
20
-4.3408
11
4.7138
21
-4.40745
0
LINE
8
BLACK
6
CONTINUOUS
10
4.7138
20
-4.40745
11
4.67171
21
-4.4708
0
LINE
8
BLACK
6
CONTINUOUS
10
4.67171
20
-4.4708
11
4.62446
21
-4.5304
0
LINE
8
BLACK
6
CONTINUOUS
10
4.62446
20
-4.5304
11
4.5724
21
-4.58585
0
LINE
8
BLACK
6
CONTINUOUS
10
4.5724
20
-4.58585
11
4.51588
21
-4.63674
0
LINE
8
BLACK
6
CONTINUOUS
10
4.51588
20
-4.63674
11
4.4553
21
-4.68273
0
LINE
8
BLACK
6
CONTINUOUS
10
4.4553
20
-4.68273
11
4.39108
21
-4.72348
0
LINE
8
BLACK
6
CONTINUOUS
10
4.39108
20
-4.72348
11
4.32367
21
-4.75872
0
LINE
8
BLACK
6
CONTINUOUS
10
4.32367
20
-4.75872
11
4.25356
21
-4.78819
0
LINE
8
BLACK
6
CONTINUOUS
10
4.25356
20
-4.78819
11
4.18122
21
-4.81169
0
LINE
8
BLACK
6
CONTINUOUS
10
4.18122
20
-4.81169
11
4.10718
21
-4.82906
0
LINE
8
BLACK
6
CONTINUOUS
10
4.10718
20
-4.82906
11
4.03193
21
-4.84017
0
LINE
8
BLACK
6
CONTINUOUS
10
4.03193
20
-4.84017
11
3.95603
21
-4.84495
0
LINE
8
BLACK
6
CONTINUOUS
10
3.95603
20
-4.84495
11
3.87999
21
-4.84335
0
LINE
8
BLACK
6
CONTINUOUS
10
3.87999
20
-4.84335
11
3.80434
21
-4.8354
0
LINE
8
BLACK
6
CONTINUOUS
10
3.80434
20
-4.8354
11
3.72963
21
-4.82115
0
LINE
8
BLACK
6
CONTINUOUS
10
3.72963
20
-4.82115
11
3.65638
21
-4.8007
0
LINE
8
BLACK
6
CONTINUOUS
10
3.65638
20
-4.8007
11
3.58509
21
-4.77419
0
LINE
8
BLACK
6
CONTINUOUS
10
3.58509
20
-4.77419
11
3.51627
21
-4.7418
0
LINE
8
BLACK
6
CONTINUOUS
10
3.51627
20
-4.7418
11
3.4504
21
-4.70377
0
LINE
8
BLACK
6
CONTINUOUS
10
3.4504
20
-4.70377
11
3.38795
21
-4.66037
0
LINE
8
BLACK
6
CONTINUOUS
10
3.38795
20
-4.66037
11
3.32934
21
-4.61189
0
LINE
8
BLACK
6
CONTINUOUS
10
3.32934
20
-4.61189
11
3.275
21
-4.55867
0
LINE
8
BLACK
6
CONTINUOUS
10
3.275
20
-4.55867
11
3.22531
21
-4.5011
0
LINE
8
BLACK
6
CONTINUOUS
10
3.22531
20
-4.5011
11
3.1806
21
-4.43956
0
LINE
8
BLACK
6
CONTINUOUS
10
3.1806
20
-4.43956
11
3.1412
21
-4.37451
0
LINE
8
BLACK
6
CONTINUOUS
10
3.1412
20
-4.37451
11
3.10738
21
-4.30638
0
LINE
8
BLACK
6
CONTINUOUS
10
3.10738
20
-4.30638
11
3.07938
21
-4.23566
0
LINE
8
BLACK
6
CONTINUOUS
10
3.07938
20
-4.23566
11
3.0574
21
-4.16285
0
LINE
8
BLACK
6
CONTINUOUS
10
3.0574
20
-4.16285
11
3.04159
21
-4.08846
0
LINE
8
BLACK
6
CONTINUOUS
10
3.04159
20
-4.08846
11
3.03205
21
-4.013
0
LINE
8
BLACK
6
CONTINUOUS
10
3.03205
20
-4.013
11
3.02887
21
-3.93701
0
LINE
8
BLACK
6
CONTINUOUS
10
3.02887
20
-3.93701
11
3.03205
21
-3.86102
0
LINE
8
BLACK
6
CONTINUOUS
10
3.03205
20
-3.86102
11
3.04159
21
-3.78556
0
LINE
8
BLACK
6
CONTINUOUS
10
3.0443
20
-4.088
11
3.06007
21
-4.16217
0
LINE
8
BLACK
6
CONTINUOUS
10
3.06007
20
-4.16217
11
3.08199
21
-4.23476
0
LINE
8
BLACK
6
CONTINUOUS
10
3.08199
20
-4.23476
11
3.1099
21
-4.30526
0
LINE
8
BLACK
6
CONTINUOUS
10
3.1099
20
-4.30526
11
3.14361
21
-4.37318
0
LINE
8
BLACK
6
CONTINUOUS
10
3.14361
20
-4.37318
11
3.1829
21
-4.43804
0
LINE
8
BLACK
6
CONTINUOUS
10
3.1829
20
-4.43804
11
3.22747
21
-4.49938
0
LINE
8
BLACK
6
CONTINUOUS
10
3.22747
20
-4.49938
11
3.27701
21
-4.55679
0
LINE
8
BLACK
6
CONTINUOUS
10
3.27701
20
-4.55679
11
3.33119
21
-4.60984
0
LINE
8
BLACK
6
CONTINUOUS
10
3.33119
20
-4.60984
11
3.38961
21
-4.65817
0
LINE
8
BLACK
6
CONTINUOUS
10
3.38961
20
-4.65817
11
3.45188
21
-4.70145
0
LINE
8
BLACK
6
CONTINUOUS
10
3.45188
20
-4.70145
11
3.51755
21
-4.73936
0
LINE
8
BLACK
6
CONTINUOUS
10
3.51755
20
-4.73936
11
3.58616
21
-4.77165
0
LINE
8
BLACK
6
CONTINUOUS
10
3.58616
20
-4.77165
11
3.65723
21
-4.79808
0
LINE
8
BLACK
6
CONTINUOUS
10
3.65723
20
-4.79808
11
3.73026
21
-4.81847
0
LINE
8
BLACK
6
CONTINUOUS
10
3.73026
20
-4.81847
11
3.80475
21
-4.83268
0
LINE
8
BLACK
6
CONTINUOUS
10
3.80475
20
-4.83268
11
3.88016
21
-4.8406
0
LINE
8
BLACK
6
CONTINUOUS
10
3.88016
20
-4.8406
11
3.95597
21
-4.84219
0
LINE
8
BLACK
6
CONTINUOUS
10
3.95597
20
-4.84219
11
4.03165
21
-4.83743
0
LINE
8
BLACK
6
CONTINUOUS
10
4.03165
20
-4.83743
11
4.10666
21
-4.82635
0
LINE
8
BLACK
6
CONTINUOUS
10
4.10666
20
-4.82635
11
4.18048
21
-4.80904
0
LINE
8
BLACK
6
CONTINUOUS
10
4.18048
20
-4.80904
11
4.2526
21
-4.78561
0
LINE
8
BLACK
6
CONTINUOUS
10
4.2526
20
-4.78561
11
4.3225
21
-4.75622
0
LINE
8
BLACK
6
CONTINUOUS
10
4.3225
20
-4.75622
11
4.3897
21
-4.72109
0
LINE
8
BLACK
6
CONTINUOUS
10
4.3897
20
-4.72109
11
4.45372
21
-4.68046
0
LINE
8
BLACK
6
CONTINUOUS
10
4.45372
20
-4.68046
11
4.51412
21
-4.63462
0
LINE
8
BLACK
6
CONTINUOUS
10
4.51412
20
-4.63462
11
4.57047
21
-4.58388
0
LINE
8
BLACK
6
CONTINUOUS
10
4.57047
20
-4.58388
11
4.62238
21
-4.5286
0
LINE
8
BLACK
6
CONTINUOUS
10
4.62238
20
-4.5286
11
4.66948
21
-4.46918
0
LINE
8
BLACK
6
CONTINUOUS
10
4.66948
20
-4.46918
11
4.71144
21
-4.40602
0
LINE
8
BLACK
6
CONTINUOUS
10
4.71144
20
-4.40602
11
4.74797
21
-4.33957
0
LINE
8
BLACK
6
CONTINUOUS
10
4.74797
20
-4.33957
11
4.77881
21
-4.2703
0
LINE
8
BLACK
6
CONTINUOUS
10
4.77881
20
-4.2703
11
4.80375
21
-4.19869
0
LINE
8
BLACK
6
CONTINUOUS
10
4.80375
20
-4.19869
11
4.82261
21
-4.12525
0
LINE
8
BLACK
6
CONTINUOUS
10
4.82261
20
-4.12525
11
4.83525
21
-4.05048
0
LINE
8
BLACK
6
CONTINUOUS
10
4.83525
20
-4.05048
11
4.8416
21
-3.97492
0
LINE
8
BLACK
6
CONTINUOUS
10
4.8416
20
-3.97492
11
4.8416
21
-3.89909
0
LINE
8
BLACK
6
CONTINUOUS
10
4.8416
20
-3.89909
11
4.83525
21
-3.82353
0
LINE
8
BLACK
6
CONTINUOUS
10
4.83525
20
-3.82353
11
4.82261
21
-3.74877
0
LINE
8
BLACK
6
CONTINUOUS
10
4.82261
20
-3.74877
11
4.80375
21
-3.67532
0
LINE
8
BLACK
6
CONTINUOUS
10
4.80375
20
-3.67532
11
4.77881
21
-3.60371
0
LINE
8
BLACK
6
CONTINUOUS
10
4.77881
20
-3.60371
11
4.74797
21
-3.53444
0
LINE
8
BLACK
6
CONTINUOUS
10
4.74797
20
-3.53444
11
4.71144
21
-3.46799
0
LINE
8
BLACK
6
CONTINUOUS
10
4.71144
20
-3.46799
11
4.66948
21
-3.40484
0
LINE
8
BLACK
6
CONTINUOUS
10
4.66948
20
-3.40484
11
4.62238
21
-3.34541
0
LINE
8
BLACK
6
CONTINUOUS
10
4.62238
20
-3.34541
11
4.57047
21
-3.29014
0
LINE
8
BLACK
6
CONTINUOUS
10
4.57047
20
-3.29014
11
4.51412
21
-3.2394
0
LINE
8
BLACK
6
CONTINUOUS
10
4.51412
20
-3.2394
11
4.45372
21
-3.19355
0
LINE
8
BLACK
6
CONTINUOUS
10
4.45372
20
-3.19355
11
4.3897
21
-3.15292
0
LINE
8
BLACK
6
CONTINUOUS
10
4.3897
20
-3.15292
11
4.3225
21
-3.11779
0
LINE
8
BLACK
6
CONTINUOUS
10
4.3225
20
-3.11779
11
4.2526
21
-3.08841
0
LINE
8
BLACK
6
CONTINUOUS
10
4.2526
20
-3.08841
11
4.18048
21
-3.06498
0
LINE
8
BLACK
6
CONTINUOUS
10
4.18048
20
-3.06498
11
4.10666
21
-3.04766
0
LINE
8
BLACK
6
CONTINUOUS
10
4.10666
20
-3.04766
11
4.03165
21
-3.03658
0
LINE
8
BLACK
6
CONTINUOUS
10
4.03165
20
-3.03658
11
3.95597
21
-3.03182
0
LINE
8
BLACK
6
CONTINUOUS
10
3.95597
20
-3.03182
11
3.88016
21
-3.03341
0
LINE
8
BLACK
6
CONTINUOUS
10
3.88016
20
-3.03341
11
3.80475
21
-3.04134
0
LINE
8
BLACK
6
CONTINUOUS
10
3.80475
20
-3.04134
11
3.73026
21
-3.05555
0
LINE
8
BLACK
6
CONTINUOUS
10
3.73026
20
-3.05555
11
3.65723
21
-3.07594
0
LINE
8
BLACK
6
CONTINUOUS
10
3.65723
20
-3.07594
11
3.58616
21
-3.10237
0
LINE
8
BLACK
6
CONTINUOUS
10
3.58616
20
-3.10237
11
3.51755
21
-3.13465
0
LINE
8
BLACK
6
CONTINUOUS
10
3.51755
20
-3.13465
11
3.45188
21
-3.17257
0
LINE
8
BLACK
6
CONTINUOUS
10
3.45188
20
-3.17257
11
3.38961
21
-3.21584
0
LINE
8
BLACK
6
CONTINUOUS
10
3.38961
20
-3.21584
11
3.33119
21
-3.26418
0
LINE
8
BLACK
6
CONTINUOUS
10
3.33119
20
-3.26418
11
3.27701
21
-3.31723
0
LINE
8
BLACK
6
CONTINUOUS
10
3.27701
20
-3.31723
11
3.22747
21
-3.37463
0
LINE
8
BLACK
6
CONTINUOUS
10
3.22747
20
-3.37463
11
3.1829
21
-3.43598
0
LINE
8
BLACK
6
CONTINUOUS
10
3.1829
20
-3.43598
11
3.14361
21
-3.50084
0
LINE
8
BLACK
6
CONTINUOUS
10
3.14361
20
-3.50084
11
3.1099
21
-3.56876
0
LINE
8
BLACK
6
CONTINUOUS
10
3.1099
20
-3.56876
11
3.08199
21
-3.63926
0
LINE
8
BLACK
6
CONTINUOUS
10
3.08199
20
-3.63926
11
3.06007
21
-3.71185
0
LINE
8
BLACK
6
CONTINUOUS
10
3.06007
20
-3.71185
11
3.0443
21
-3.78602
0
LINE
8
BLACK
6
CONTINUOUS
10
3.0443
20
-3.78602
11
3.0348
21
-3.86125
0
LINE
8
BLACK
6
CONTINUOUS
10
3.0348
20
-3.86125
11
3.03162
21
-3.93701
0
LINE
8
BLACK
6
CONTINUOUS
10
3.03162
20
-3.93701
11
3.0348
21
-4.01277
0
LINE
8
BLACK
6
CONTINUOUS
10
3.0348
20
-4.01277
11
3.0443
21
-4.088
  0
ENDSEC
  0
EOF
