M48
INCH,TZ
T1C0.0276
T2C0.0354
T3C0.0394
T4C0.1181
%
G90
G05
T1
X29819Y-46800
X31940Y-48922
X46800Y-48922
X48922Y-46800
X29819Y-31940
X31940Y-29819
X46800Y-29819
X48922Y-31940
T2
X38870Y-49705
X39870Y-49705
X29258Y-41562
X29517Y-42528
X48070Y-33770
X48570Y-34636
X31709Y-32416
X32416Y-31709
X36212Y-29517
X37178Y-29258
X30170Y-44104
X30670Y-44970
X31709Y-46324
X32416Y-47031
X41562Y-49482
X42528Y-49223
X33770Y-30670
X34636Y-30170
X49705Y-38870
X49705Y-39870
X36212Y-49223
X37178Y-49482
X46324Y-47031
X47031Y-46324
X30170Y-34636
X30670Y-33770
X44104Y-30170
X44970Y-30670
X44104Y-48570
X44970Y-48070
X29035Y-38870
X29035Y-39870
X33770Y-48070
X34636Y-48570
X41562Y-29258
X42528Y-29517
X49223Y-42528
X49482Y-41562
X38870Y-29035
X39870Y-29035
X48070Y-44970
X48570Y-44104
X29258Y-37178
X29517Y-36212
X46324Y-31709
X47031Y-32416
X49223Y-36212
X49482Y-37178
T3
X38878Y-52559
X39862Y-52559
T4
X25984Y-37008
X52756Y-37008
X52756Y-41732
X25984Y-41732
X41732Y-25984
X37008Y-25984
T0
M30
