%TF.GenerationSoftware,KiCad,Pcbnew,(5.1.6)-1*%
%TF.CreationDate,2020-08-06T18:29:29-04:00*%
%TF.ProjectId,RingLight,52696e67-4c69-4676-9874-2e6b69636164,rev?*%
%TF.SameCoordinates,Original*%
%TF.FileFunction,Legend,Top*%
%TF.FilePolarity,Positive*%
%FSLAX46Y46*%
G04 Gerber Fmt 4.6, Leading zero omitted, Abs format (unit mm)*
G04 Created by KiCad (PCBNEW (5.1.6)-1) date 2020-08-06 18:29:29*
%MOMM*%
%LPD*%
G01*
G04 APERTURE LIST*
%ADD10C,0.120000*%
G04 APERTURE END LIST*
D10*
%TO.C,D2*%
X77144447Y-93206000D02*
G75*
G03*
X77144447Y-93206000I-2500000J0D01*
G01*
X72489515Y-95278895D02*
X75474226Y-96078646D01*
X75418762Y-90318001D02*
G75*
G03*
X72489679Y-95278939I-774315J-2887999D01*
G01*
X75417870Y-90317761D02*
G75*
G02*
X75474062Y-96078602I-773423J-2888239D01*
G01*
%TO.C,D3*%
X79766833Y-86875000D02*
G75*
G03*
X79766833Y-86875000I-2500000J0D01*
G01*
X74648824Y-88319525D02*
X77324842Y-89864525D01*
X78762233Y-84285815D02*
G75*
G03*
X74648971Y-88319610I-1495400J-2589185D01*
G01*
X78761433Y-84285353D02*
G75*
G02*
X77324695Y-89864440I-1494600J-2589647D01*
G01*
%TO.C,D4*%
X83938447Y-81438447D02*
G75*
G03*
X83938447Y-81438447I-2500000J0D01*
G01*
X78535773Y-82156161D02*
X80720733Y-84341121D01*
X83553023Y-79324523D02*
G75*
G03*
X78535893Y-82156281I-2114576J-2113924D01*
G01*
X83552371Y-79323871D02*
G75*
G02*
X80720613Y-84341001I-2113924J-2114576D01*
G01*
%TO.C,D5*%
X89375000Y-77266833D02*
G75*
G03*
X89375000Y-77266833I-2500000J0D01*
G01*
X83885475Y-77208824D02*
X85430475Y-79884842D01*
X89464647Y-75772233D02*
G75*
G03*
X83885560Y-77208971I-2589647J-1494600D01*
G01*
X89464185Y-75771433D02*
G75*
G02*
X85430390Y-79884695I-2589185J-1495400D01*
G01*
%TO.C,D6*%
X95706000Y-74644447D02*
G75*
G03*
X95706000Y-74644447I-2500000J0D01*
G01*
X90333354Y-73814668D02*
X91133105Y-76799379D01*
X96094239Y-73871024D02*
G75*
G03*
X90333398Y-73814832I-2888239J-773423D01*
G01*
X96093999Y-73870132D02*
G75*
G02*
X91133061Y-76799215I-2887999J-774315D01*
G01*
%TO.C,D7*%
X102500000Y-73750000D02*
G75*
G03*
X102500000Y-73750000I-2500000J0D01*
G01*
X97440000Y-72205000D02*
X97440000Y-75295000D01*
X102990000Y-73750462D02*
G75*
G03*
X97440000Y-72205170I-2990000J462D01*
G01*
X102990000Y-73749538D02*
G75*
G02*
X97440000Y-75294830I-2990000J-462D01*
G01*
%TO.C,D8*%
X109294000Y-74644447D02*
G75*
G03*
X109294000Y-74644447I-2500000J0D01*
G01*
X104721105Y-72489515D02*
X103921354Y-75474226D01*
X109681999Y-75418762D02*
G75*
G03*
X104721061Y-72489679I-2887999J774315D01*
G01*
X109682239Y-75417870D02*
G75*
G02*
X103921398Y-75474062I-2888239J773423D01*
G01*
%TO.C,D9*%
X115625000Y-77266833D02*
G75*
G03*
X115625000Y-77266833I-2500000J0D01*
G01*
X111680475Y-74648824D02*
X110135475Y-77324842D01*
X115714185Y-78762233D02*
G75*
G03*
X111680390Y-74648971I-2589185J1495400D01*
G01*
X115714647Y-78761433D02*
G75*
G02*
X110135560Y-77324695I-2589647J1494600D01*
G01*
%TO.C,D10*%
X121061553Y-81438447D02*
G75*
G03*
X121061553Y-81438447I-2500000J0D01*
G01*
X117843839Y-78535773D02*
X115658879Y-80720733D01*
X120675477Y-83553023D02*
G75*
G03*
X117843719Y-78535893I-2113924J2114576D01*
G01*
X120676129Y-83552371D02*
G75*
G02*
X115658999Y-80720613I-2114576J2113924D01*
G01*
%TO.C,D11*%
X125233167Y-86875000D02*
G75*
G03*
X125233167Y-86875000I-2500000J0D01*
G01*
X122791176Y-83885475D02*
X120115158Y-85430475D01*
X124227767Y-89464647D02*
G75*
G03*
X122791029Y-83885560I-1494600J2589647D01*
G01*
X124228567Y-89464185D02*
G75*
G02*
X120115305Y-85430390I-1495400J2589185D01*
G01*
%TO.C,D12*%
X127855553Y-93206000D02*
G75*
G03*
X127855553Y-93206000I-2500000J0D01*
G01*
X126185332Y-90333354D02*
X123200621Y-91133105D01*
X126128976Y-96094239D02*
G75*
G03*
X126185168Y-90333398I-773423J2888239D01*
G01*
X126129868Y-96093999D02*
G75*
G02*
X123200785Y-91133061I-774315J2887999D01*
G01*
%TO.C,D13*%
X128750000Y-100000000D02*
G75*
G03*
X128750000Y-100000000I-2500000J0D01*
G01*
X127795000Y-97440000D02*
X124705000Y-97440000D01*
X126249538Y-102990000D02*
G75*
G03*
X127794830Y-97440000I462J2990000D01*
G01*
X126250462Y-102990000D02*
G75*
G02*
X124705170Y-97440000I-462J2990000D01*
G01*
%TO.C,D14*%
X127855553Y-106794000D02*
G75*
G03*
X127855553Y-106794000I-2500000J0D01*
G01*
X127510485Y-104721105D02*
X124525774Y-103921354D01*
X124581238Y-109681999D02*
G75*
G03*
X127510321Y-104721061I774315J2887999D01*
G01*
X124582130Y-109682239D02*
G75*
G02*
X124525938Y-103921398I773423J2888239D01*
G01*
%TO.C,D15*%
X125233167Y-113125000D02*
G75*
G03*
X125233167Y-113125000I-2500000J0D01*
G01*
X125351176Y-111680475D02*
X122675158Y-110135475D01*
X121237767Y-115714185D02*
G75*
G03*
X125351029Y-111680390I1495400J2589185D01*
G01*
X121238567Y-115714647D02*
G75*
G02*
X122675305Y-110135560I1494600J2589647D01*
G01*
%TO.C,D16*%
X121061553Y-118561553D02*
G75*
G03*
X121061553Y-118561553I-2500000J0D01*
G01*
X121464227Y-117843839D02*
X119279267Y-115658879D01*
X116446977Y-120675477D02*
G75*
G03*
X121464107Y-117843719I2114576J2113924D01*
G01*
X116447629Y-120676129D02*
G75*
G02*
X119279387Y-115658999I2113924J2114576D01*
G01*
%TO.C,D17*%
X115625000Y-122733167D02*
G75*
G03*
X115625000Y-122733167I-2500000J0D01*
G01*
X116114525Y-122791176D02*
X114569525Y-120115158D01*
X110535353Y-124227767D02*
G75*
G03*
X116114440Y-122791029I2589647J1494600D01*
G01*
X110535815Y-124228567D02*
G75*
G02*
X114569610Y-120115305I2589185J1495400D01*
G01*
%TO.C,D18*%
X109294000Y-125355553D02*
G75*
G03*
X109294000Y-125355553I-2500000J0D01*
G01*
X109666646Y-126185332D02*
X108866895Y-123200621D01*
X103905761Y-126128976D02*
G75*
G03*
X109666602Y-126185168I2888239J773423D01*
G01*
X103906001Y-126129868D02*
G75*
G02*
X108866939Y-123200785I2887999J774315D01*
G01*
%TO.C,D19*%
X102500000Y-126250000D02*
G75*
G03*
X102500000Y-126250000I-2500000J0D01*
G01*
X102560000Y-127795000D02*
X102560000Y-124705000D01*
X97010000Y-126249538D02*
G75*
G03*
X102560000Y-127794830I2990000J-462D01*
G01*
X97010000Y-126250462D02*
G75*
G02*
X102560000Y-124705170I2990000J462D01*
G01*
%TO.C,D20*%
X95706000Y-125355553D02*
G75*
G03*
X95706000Y-125355553I-2500000J0D01*
G01*
X95278895Y-127510485D02*
X96078646Y-124525774D01*
X90318001Y-124581238D02*
G75*
G03*
X95278939Y-127510321I2887999J-774315D01*
G01*
X90317761Y-124582130D02*
G75*
G02*
X96078602Y-124525938I2888239J-773423D01*
G01*
%TO.C,D21*%
X89375000Y-122733167D02*
G75*
G03*
X89375000Y-122733167I-2500000J0D01*
G01*
X88319525Y-125351176D02*
X89864525Y-122675158D01*
X84285815Y-121237767D02*
G75*
G03*
X88319610Y-125351029I2589185J-1495400D01*
G01*
X84285353Y-121238567D02*
G75*
G02*
X89864440Y-122675305I2589647J-1494600D01*
G01*
%TO.C,D22*%
X83938447Y-118561553D02*
G75*
G03*
X83938447Y-118561553I-2500000J0D01*
G01*
X82156161Y-121464227D02*
X84341121Y-119279267D01*
X79324523Y-116446977D02*
G75*
G03*
X82156281Y-121464107I2113924J-2114576D01*
G01*
X79323871Y-116447629D02*
G75*
G02*
X84341001Y-119279387I2114576J-2113924D01*
G01*
%TO.C,D23*%
X79766833Y-113125000D02*
G75*
G03*
X79766833Y-113125000I-2500000J0D01*
G01*
X77208824Y-116114525D02*
X79884842Y-114569525D01*
X75772233Y-110535353D02*
G75*
G03*
X77208971Y-116114440I1494600J-2589647D01*
G01*
X75771433Y-110535815D02*
G75*
G02*
X79884695Y-114569610I1495400J-2589185D01*
G01*
%TO.C,D24*%
X77144447Y-106794000D02*
G75*
G03*
X77144447Y-106794000I-2500000J0D01*
G01*
X73814668Y-109666646D02*
X76799379Y-108866895D01*
X73871024Y-103905761D02*
G75*
G03*
X73814832Y-109666602I773423J-2888239D01*
G01*
X73870132Y-103906001D02*
G75*
G02*
X76799215Y-108866939I774315J-2887999D01*
G01*
%TO.C,D1*%
X72205000Y-102560000D02*
X75295000Y-102560000D01*
X76250000Y-100000000D02*
G75*
G03*
X76250000Y-100000000I-2500000J0D01*
G01*
X73749538Y-97010000D02*
G75*
G02*
X75294830Y-102560000I462J-2990000D01*
G01*
X73750462Y-97010000D02*
G75*
G03*
X72205170Y-102560000I-462J-2990000D01*
G01*
%TO.C,R2*%
X120859650Y-76425060D02*
X119558574Y-77726136D01*
X119558574Y-77726136D02*
X122273864Y-80441426D01*
X122273864Y-80441426D02*
X123574940Y-79140350D01*
X123574940Y-79140350D02*
X120859650Y-76425060D01*
X119537360Y-76403846D02*
X120209112Y-77075598D01*
X123596153Y-80462639D02*
X122924402Y-79790888D01*
%TO.C,R1*%
X76425060Y-79140350D02*
X77726136Y-80441426D01*
X77726136Y-80441426D02*
X80441426Y-77726136D01*
X80441426Y-77726136D02*
X79140350Y-76425060D01*
X79140350Y-76425060D02*
X76425060Y-79140350D01*
X76403846Y-80462640D02*
X77075598Y-79790888D01*
X80462639Y-76403847D02*
X79790888Y-77075598D01*
%TO.C,R3*%
X123574940Y-120859650D02*
X122273864Y-119558574D01*
X122273864Y-119558574D02*
X119558574Y-122273864D01*
X119558574Y-122273864D02*
X120859650Y-123574940D01*
X120859650Y-123574940D02*
X123574940Y-120859650D01*
X123596154Y-119537360D02*
X122924402Y-120209112D01*
X119537361Y-123596153D02*
X120209112Y-122924402D01*
%TO.C,R4*%
X79140350Y-123574940D02*
X80441426Y-122273864D01*
X80441426Y-122273864D02*
X77726136Y-119558574D01*
X77726136Y-119558574D02*
X76425060Y-120859650D01*
X76425060Y-120859650D02*
X79140350Y-123574940D01*
X80462640Y-123596154D02*
X79790888Y-122924402D01*
X76403847Y-119537361D02*
X77075598Y-120209112D01*
%TD*%
M02*
